<svg xmlns="http://www.w3.org/2000/svg" width="197.933" height="316.918" viewBox="0 0 197.933 316.918"><defs><style>.a{fill:#fff;}.b{fill:#fcdc4a;}.c{fill:#211715;}</style></defs><path class="a" d="M118.528,164.6c-14.848,4.988-32.849,3.854-45.847-2.707Q71.657,158,70.635,154.03c1.728-.8,2.949-1.365,3.035-1.4,4.5-1.625,4.32-4.517,4.887-7.752a61.359,61.359,0,0,0,.915-7.57A46.128,46.128,0,0,1,65.08,125.425,55.166,55.166,0,0,1,54.822,106.4a7.992,7.992,0,0,1-6.589-1.731c-3.9-3.193-5.521-7.646-6.509-10.557-1.4-4.111-1.484-10.754.6-14.36a6.812,6.812,0,0,1,6.118-3.4A7.342,7.342,0,0,1,53.743,78.3l.7.669,1.11-.518c3.093-1.44,11.7-5.174,12.959-5.915A114.038,114.038,0,0,0,79.12,65.487c1.171-.27,1.816-.415,1.816-.415,13.824-3.119,33.139-13.923,38.539-21.743,2.1,6.574,3.42,12.521,10.474,22.028,5.247,7.071,12.193,11.147,15.3,13.87a7.141,7.141,0,0,1,6.1-2.874,6.812,6.812,0,0,1,6.118,3.4c2.078,3.606,1.991,10.249.595,14.36-.988,2.911-2.607,7.364-6.51,10.557a8.084,8.084,0,0,1-6.238,1.8l-.43-.072c-.739,2.156-1.662,4.072-1.974,5.019-1.635,4.436-10.969,20.448-22.585,25.708a64.473,64.473,0,0,0,.905,7.759c.564,3.233.383,6.124,4.885,7.756.074.025.948.434,2.22,1.033q-.981,3.833-1.945,7.527A49.586,49.586,0,0,1,118.528,164.6Z"></path><path class="a" d="M29.208,314.062a25.081,25.081,0,0,1-6.492-1.134c-7.111-2.183-14.258-8.812-17.1-15.833S2.033,281.926,2.5,274.339a464.033,464.033,0,0,1,5.945-53.307c1.617-9.726,2.889-16.481,4.611-23.78,1.49-6.315,3.175-11.676,6.683-17.09,2.895-4.468,6.98-7.988,11.227-11.124,9.426-6.962,19.951-9.7,31.041-13.263l.315-.1a81.127,81.127,0,0,1,7.525-4.723c5.137,20.123,10.15,38.341,16.391,56.6,4.846,14.177,7.43,19.8,13.374,34.433,6.046-15.024,8.977-20.5,13.574-34.931,6.061-19.032,10.717-35.956,15.846-56.1,1.5.839,3.364,1.925,5.357,3.178l6.026,1.646c7.02,1.917,14.082,3.85,20.654,6.974s12.693,7.54,16.773,13.565a48.06,48.06,0,0,1,4.8,9.663,108.9,108.9,0,0,1,5.939,21.838c5.125,25.341,7.61,45.781,6.792,68.648-.265,7.419-.921,14.971-3.778,21.823s-8.244,12.989-15.358,15.111a25.635,25.635,0,0,1-12.59.606C138.127,314,54.351,314.062,29.208,314.062Z"></path><path class="a" d="M99.664,167.691a59.3,59.3,0,0,1-26.983-5.8c4.19,15.9,8.465,30.765,13.556,45.661,4.846,14.177,7.43,19.8,13.374,34.433,6.046-15.024,8.977-20.5,13.574-34.931,5.007-15.722,9.055-30.006,13.2-45.854A58.056,58.056,0,0,1,99.664,167.691Z"></path><path class="a" d="M62.831,273.326l.734-.982c.907-1.212,3.15-4.423,3.6-4.835a7.838,7.838,0,0,1,1.956-1.184c2.783-1.028,6.264-.525,8.535-1.913,4.029-2.464,4.172-4.554,7.138-7.469,2.543-13.6,6.507-34.808,8.405-44.966-.183,0-.366,0-.548.01a15.513,15.513,0,0,0-4.275,1.034,95.079,95.079,0,0,0-12.921,5.688c-.04-.02-.08-.05-.12-.07a4.288,4.288,0,0,0-.469-.249.6.6,0,0,0-.139-.07,3.652,3.652,0,0,0-.419-.159.612.612,0,0,0-.12-.05,2.016,2.016,0,0,0-.23-.07c-.1-.03-.2-.06-.289-.08-.03-.01-.06-.01-.09-.02-.1-.02-.2-.04-.289-.06-.12-.02-.229-.03-.339-.04a1.492,1.492,0,0,0-.21-.02,2.728,2.728,0,0,0-.409-.02,5.292,5.292,0,0,0-.688.04,5.906,5.906,0,0,0-3,1.327,5.851,5.851,0,0,1-3.881,1.207,5.453,5.453,0,0,0-3.143.978,5.539,5.539,0,0,1-3.063,1.068,2.391,2.391,0,0,0-.369.03,6.548,6.548,0,0,0-1.167.249,7.577,7.577,0,0,0-1.457.639,10.028,10.028,0,0,0-2.753,2.354,25.541,25.541,0,0,0-3.2,5.577c-4.508,9.66-6.447,12.818-11.144,22.553a44.355,44.355,0,0,0,6.726,11.518,26.634,26.634,0,0,0,6.828,6.432c2.465,1.467,7.248,1.88,10.675,1.74Z"></path><path class="a" d="M107.722,232.651c3.37,1.972,16.733,9.949,25.526,15.281l1.455-7.781a56.6,56.6,0,0,1,13.118,8.721,15.316,15.316,0,0,1,3.675,6.1c1.524,4.453,2.873,10.863,2.017,16.669l-.1.671a50.574,50.574,0,0,1-13.465,17.39,83.208,83.208,0,0,1-15.251-1.152,25.621,25.621,0,0,1-9.787-4.569,78.9,78.9,0,0,1-18.394-17.356,5.278,5.278,0,0,1-.964-2.508,2.9,2.9,0,0,1,.765-2.487l1.908-1.774c-.743-.584-1.266-1.012-1.487-1.224a8.384,8.384,0,0,1-2.311-3.142,4.2,4.2,0,0,1-.045-2.419,3.044,3.044,0,0,1,3.556-2.645l1.736.264c-1.952-1.434-3.394-2.507-3.905-2.917-.23-.183-.466-.382-.7-.592a14.5,14.5,0,0,1-3.439-4.231,4.716,4.716,0,0,1,.642-4.937c1.34-1.779,3.679-2.373,6.775-1.408a4.069,4.069,0,0,1,1.19-3.951c1.934-2.138,5.494-1.151,7.011-.277Z"></path><path class="b" d="M44.241,161.775c5.69-2.315,11.64-4.034,17.765-6l.315-.1a81.127,81.127,0,0,1,7.525-4.723c.265,1.037.529,2.05.793,3.077,1.726-.8,2.946-1.363,3.031-1.394,4.5-1.624,4.32-4.516,4.887-7.751a61.359,61.359,0,0,0,.915-7.57A46.142,46.142,0,0,1,65.08,125.425,55.166,55.166,0,0,1,54.822,106.4a7.992,7.992,0,0,1-6.589-1.731c-3.9-3.193-5.521-7.646-6.509-10.557-1.4-4.111-1.484-10.754.6-14.36a6.812,6.812,0,0,1,6.118-3.4A7.342,7.342,0,0,1,53.743,78.3l.7.669,1.11-.518c3.093-1.44,11.7-5.174,12.959-5.915A114.038,114.038,0,0,0,79.12,65.487c1.171-.27,1.816-.415,1.816-.415,13.825-3.119,33.139-13.923,38.539-21.743,2.1,6.574,3.42,12.521,10.474,22.028,5.247,7.071,12.193,11.147,15.3,13.87a7.14,7.14,0,0,1,6.1-2.874,6.812,6.812,0,0,1,6.119,3.4c2.078,3.606,1.991,10.249.595,14.36-.988,2.911-2.607,7.364-6.51,10.557a8.084,8.084,0,0,1-6.238,1.8l-.43-.072c-.739,2.155-1.662,4.072-1.974,5.019-1.635,4.436-10.969,20.448-22.585,25.708a64.473,64.473,0,0,0,.905,7.759c.564,3.233.383,6.124,4.885,7.756.074.025.948.434,2.219,1.033.232-.9.463-1.805.7-2.721,1.5.839,3.364,1.925,5.357,3.178l6.026,1.646a157.7,157.7,0,0,1,16.287,5.1c8.044-2.937,14.209-10.69,14.151-17.158a45.6,45.6,0,0,0-2.879-15.608c-2.371-6.864-6.964-20.81-7.3-45.725.66-7.605-.026-18.593-.324-22.816-1.033-14.64-7.522-30.987-16.86-40.074a61.044,61.044,0,0,0-6.984-6.034l-8.575-5.025-1.4-.8A67.283,67.283,0,0,0,99.428,2.4c-18.674,0-35.295,9.7-42.671,16.826-12.236,11.816-20,33.4-19.017,63.159a261.2,261.2,0,0,1-1.26,27.234A97.255,97.255,0,0,1,33.805,125a96.838,96.838,0,0,0-2.952,20.653C30.8,152.3,35.912,159.385,44.241,161.775Z" style="fill: rgb(121, 211, 241);"></path><path class="b" d="M96.517,266.622a5.278,5.278,0,0,1-.964-2.508,2.9,2.9,0,0,1,.765-2.487l1.908-1.774c-.743-.584-1.266-1.012-1.487-1.224a8.384,8.384,0,0,1-2.311-3.142,4.2,4.2,0,0,1-.045-2.419,3.044,3.044,0,0,1,3.556-2.645l1.736.264c-1.952-1.434-3.394-2.507-3.905-2.917-.23-.183-.466-.382-.7-.592a14.5,14.5,0,0,1-3.439-4.231,4.716,4.716,0,0,1,.642-4.937c1.34-1.779,3.679-2.373,6.775-1.408a4.069,4.069,0,0,1,1.19-3.951c1.934-2.138,5.494-1.151,7.011-.277l.477.277c3.37,1.972,16.733,9.949,25.526,15.281l.007-.034.288-1.542.556-2.971,6.961-37.241a5,5,0,0,0-4-5.836L101.707,193.7a5,5,0,0,0-5.837,4l-13.4,71.7a5,5,0,0,0,4,5.837l22.419,4.191A76.087,76.087,0,0,1,96.517,266.622Z" style="fill: rgb(121, 211, 241);"></path><path class="c" d="M40.139,82.381c-.577-18.329,1.684-38.246,12.047-53.892A47.5,47.5,0,0,1,67.761,14,63.491,63.491,0,0,1,96.143,4.9,66.94,66.94,0,0,1,114.1,6.227a65.544,65.544,0,0,1,7.519,2.1c1.222.421,2.426.884,3.629,1.353.1.039.594.3.117.044.153.083.3.173.453.259l.906.518c2.687,1.534,5.108-2.611,2.423-4.145a46.456,46.456,0,0,0-11.773-4.3A73.129,73.129,0,0,0,100.854.008,67.3,67.3,0,0,0,68.762,7.946,55.171,55.171,0,0,0,50.017,23.284,67.752,67.752,0,0,0,39.184,46.1c-3.292,11.754-4.228,24.117-3.845,36.28.1,3.081,4.9,3.095,4.8,0Z"></path><path class="c" d="M163.077,82.381a123.081,123.081,0,0,0,.1-15.437A122.322,122.322,0,0,0,162.1,53.82a69.51,69.51,0,0,0-11.857-30.083A56.54,56.54,0,0,0,137.72,11.385a2.417,2.417,0,0,0-3.283.861,2.455,2.455,0,0,0,.861,3.284,52.584,52.584,0,0,1,17.5,22.741,73.021,73.021,0,0,1,4.411,15.239A98.547,98.547,0,0,1,158.327,65.9a126.84,126.84,0,0,1-.05,16.486,2.419,2.419,0,0,0,2.4,2.4,2.45,2.45,0,0,0,2.4-2.4Z"></path><path class="c" d="M44.868,159.473c-4.869-1.453-9.319-4.987-10.962-9.926a17.2,17.2,0,0,1-.537-6.843c.187-2.862.525-5.716.977-8.549.746-4.69,2.12-9.21,3.007-13.865a143.207,143.207,0,0,0,1.926-14.9c.637-7.653.856-15.338.861-23.016,0-3.088-4.8-3.093-4.8,0-.008,12.2-.333,24.652-2.616,36.637-.936,4.917-2.375,9.688-3.129,14.651-.473,3.112-.859,6.245-1.048,9.388a20.381,20.381,0,0,0,.73,7.77A21.222,21.222,0,0,0,43.592,164.1c2.966.885,4.234-3.746,1.276-4.629Z"></path><path class="c" d="M143.431,102.539a23.728,23.728,0,0,1-1.817,5.724c-.279.679-.58,1.351-.842,2.036-.075.195-.144.391-.216.586-.028.077-.062.151-.089.228-.155.442.183-.409.059-.135a51.46,51.46,0,0,1-3.1,5.763,57.586,57.586,0,0,1-12.369,14.606,22.892,22.892,0,0,1-9.2,4.762c-3.009.7-1.736,5.325,1.276,4.629,7.068-1.633,12.95-6.794,17.564-12.16a63.2,63.2,0,0,0,9.827-14.835,41.012,41.012,0,0,0,3.712-11.2,2.412,2.412,0,0,0-2.4-2.4,2.461,2.461,0,0,0-2.4,2.4Z"></path><path class="c" d="M51.419,102.993c3.321,14.3,12.28,28.174,25.218,35.524a32.741,32.741,0,0,0,11.285,4.012,2.479,2.479,0,0,0,2.952-1.677A2.418,2.418,0,0,0,89.2,137.9c-13.914-2.07-24.673-14.4-30.056-26.68a54.36,54.36,0,0,1-3.1-9.5c-.7-3.007-5.328-1.734-4.628,1.276Z"></path><path class="c" d="M55.44,76.6A10.386,10.386,0,0,0,44.009,75a10.037,10.037,0,0,0-5.091,6.967,26.255,26.255,0,0,0,4.04,20.408c2.861,4.15,6.914,7.128,12.151,6.413a2.416,2.416,0,0,0,1.677-2.953,2.465,2.465,0,0,0-2.953-1.676c-3.589.49-6.4-3.364-7.875-6.082a22.633,22.633,0,0,1-2.776-8.895,19.7,19.7,0,0,1,.214-5.257,11.98,11.98,0,0,1,.583-2.14,6.659,6.659,0,0,1,.5-.96c.036-.059.411-.6.246-.387a4.8,4.8,0,0,1,2.935-1.613,5.228,5.228,0,0,1,4.389,1.172c2.286,2.068,5.691-1.317,3.394-3.395Z"></path><path class="c" d="M147.741,79.993a5.318,5.318,0,0,1,7.385.518c-.326-.4.133.224.185.31a6.659,6.659,0,0,1,.5.96,11.628,11.628,0,0,1,.548,1.967,19.531,19.531,0,0,1,.249,5.43,22.6,22.6,0,0,1-2.693,8.739c-1.471,2.765-4.311,6.736-7.959,6.238A2.484,2.484,0,0,0,143,105.831a2.418,2.418,0,0,0,1.676,2.953c8.536,1.165,13.5-7.153,15.749-14.183a24.769,24.769,0,0,0,.717-11.253,11.222,11.222,0,0,0-4.358-7.77,10.286,10.286,0,0,0-12.438,1.02c-2.3,2.077,1.107,5.463,3.394,3.395Z"></path><path class="c" d="M92.6,48.205a61.786,61.786,0,0,1-14.97,15.419,113.656,113.656,0,0,1-9.773,6.5,53.738,53.738,0,0,1-5.647,2.714c-2.625,1.177-5.264,2.324-7.873,3.535a2.421,2.421,0,0,0-.861,3.284,2.455,2.455,0,0,0,3.284.861c4.273-1.984,8.8-3.616,12.923-5.895A88.089,88.089,0,0,0,88.649,60.478a59.429,59.429,0,0,0,8.1-9.85c1.691-2.6-2.463-5-4.144-2.423Z"></path><path class="c" d="M117.556,41.891c-.12.177-.242.353-.367.526-.248.346.1-.109-.177.231q-.544.661-1.133,1.284a34.2,34.2,0,0,1-2.508,2.368,58.405,58.405,0,0,1-6.641,4.846,95.817,95.817,0,0,1-16.688,8.539A69.022,69.022,0,0,1,80.3,62.757c-3.01.69-1.736,5.319,1.276,4.629a83.448,83.448,0,0,0,18.393-6.909,83.792,83.792,0,0,0,16.112-10.2,28.556,28.556,0,0,0,5.621-5.96c1.729-2.57-2.428-4.976-4.144-2.422Z"></path><path class="c" d="M145.642,76.468c-2.493-1.929-5.061-3.757-7.441-5.831a47.29,47.29,0,0,1-8.213-9.364,52.628,52.628,0,0,1-5.023-9.154c-1.1-2.654-1.926-5.41-2.778-8.151-.914-2.94-5.549-1.685-4.628,1.276,2.035,6.546,4.433,12.727,8.284,18.452a51.909,51.909,0,0,0,8.528,9.951c2.45,2.179,5.536,4.4,7.877,6.215a2.48,2.48,0,0,0,3.394,0,2.415,2.415,0,0,0,0-3.394Z"></path><path class="c" d="M71.851,156.1c.861-.4,1.722-.8,2.587-1.194.1-.047.206-.091.307-.138.25-.118-.851.345-.183.088a14.019,14.019,0,0,0,1.7-.759A8.151,8.151,0,0,0,80,149.768a21.483,21.483,0,0,0,.858-4.15c.434-2.57.8-5.148.982-7.751a2.4,2.4,0,0,0-4.8,0,62.316,62.316,0,0,1-.794,6.382,32.993,32.993,0,0,1-.759,3.927c-.092.309-.088.224.029-.025-.072.153-.142.3-.224.452-.069.125-.148.243-.222.364-.268.433.082-.03-.054.07a4.014,4.014,0,0,0-.32.331c-.064.06-.544.418-.122.123a8.1,8.1,0,0,1-1.05.623c-.4.2-.453.183-1.091.461-.163.071-.325.144-.486.217-.842.382-1.68.773-2.518,1.163a2.419,2.419,0,0,0-.861,3.284,2.455,2.455,0,0,0,3.283.861Z"></path><path class="c" d="M117.92,137.127a74.745,74.745,0,0,0,.886,7.755,32.576,32.576,0,0,0,.808,4.4,8.17,8.17,0,0,0,3.143,4.334,7.91,7.91,0,0,0,1.065.637c.19.094.383.179.577.263a5.866,5.866,0,0,1,1.083.44c-.014-.03-.761-.346-.289-.114.153.075.311.143.466.215q.73.342,1.46.687a2.467,2.467,0,0,0,3.283-.861,2.421,2.421,0,0,0-.861-3.284c-.691-.326-1.378-.661-2.077-.971a11.238,11.238,0,0,1-1.929-.915c-.051-.033-.519-.373-.274-.179s-.166-.156-.209-.2c-.135-.13-.254-.269-.381-.408.2.217.155.23.007-.015-.075-.124-.152-.245-.221-.373-.036-.068-.248-.518-.1-.178s-.038-.118-.063-.192c-.055-.164-.1-.329-.149-.5-.341-1.272-.467-2.606-.685-3.9a62.687,62.687,0,0,1-.742-6.64,2.454,2.454,0,0,0-2.4-2.4,2.422,2.422,0,0,0-2.4,2.4Z"></path><path class="c" d="M91.283,119.905a18.894,18.894,0,0,0,9.1,2.107,14.812,14.812,0,0,0,9.19-2.714,2.412,2.412,0,0,0,0-3.394,2.461,2.461,0,0,0-3.394,0c.73-.569.172-.14-.015-.02s-.37.225-.562.325c-.1.052-.2.1-.3.15-.366.188.01-.1.1-.035a4.51,4.51,0,0,0-.774.281,13.739,13.739,0,0,1-2.167.495c.358-.054-.042,0-.2.016q-.319.032-.639.053c-.512.033-1.026.046-1.54.043-.46,0-.92-.018-1.379-.05-.211-.014-.421-.031-.632-.052-.031,0-.8-.112-.293-.032a15.738,15.738,0,0,1-2.025-.449c-.283-.085-.56-.187-.84-.282-.61-.209.364.186-.187-.073q-.52-.246-1.029-.514a2.4,2.4,0,1,0-2.423,4.145Z"></path><path class="c" d="M99.144,98.494a42.559,42.559,0,0,1,1,4.587l-.085-.638a2.791,2.791,0,0,1,.017.633l.086-.638a1.551,1.551,0,0,1-.07.284l.242-.573a1.051,1.051,0,0,1-.1.183l.376-.485a.948.948,0,0,1-.15.147l.486-.375a2.938,2.938,0,0,1-.364.192l.574-.242a2.628,2.628,0,0,1-.613.179l.638-.086a2.4,2.4,0,0,1-.575,0l.639.086c-.217-.03-.43-.083-.647-.112a1.812,1.812,0,0,0-.957-.043,1.774,1.774,0,0,0-.892.285,2.4,2.4,0,0,0-.861,3.283,2.29,2.29,0,0,0,1.434,1.1c.5.067.981.194,1.487.216a4.765,4.765,0,0,0,2.2-.523,3.181,3.181,0,0,0,1.76-2.095,5.264,5.264,0,0,0-.022-2.252c-.25-1.477-.592-2.942-.972-4.391a2.4,2.4,0,1,0-4.628,1.276Z"></path><path class="c" d="M74.951,85.5c-.764,2.482-.266,8.191,4.436,8.677,6.214-.037,6.545-6.94,4.453-10.186C82.127,81.332,77.091,80.227,74.951,85.5Z"></path><path class="c" d="M124.836,85.5c.764,2.482.266,8.192-4.436,8.677-6.214-.037-6.545-6.94-4.453-10.186C117.659,81.332,122.7,80.227,124.836,85.5Z"></path><path class="c" d="M158.28,82.377a157.305,157.305,0,0,0,4.26,36.037c.805,3.2,1.761,6.364,2.827,9.49a62.522,62.522,0,0,1,2.46,8.771c.506,2.727.994,6.158.479,8.728-1.212,6.038-6.636,11.054-12.234,13.15a2.466,2.466,0,0,0-1.676,2.952,2.419,2.419,0,0,0,2.952,1.677c5.974-2.238,11.444-6.667,14.193-12.52,2.858-6.085,1.68-13.3-.1-19.547-1.073-3.767-2.486-7.425-3.537-11.2a122.353,122.353,0,0,1-3-14.021,168.574,168.574,0,0,1-1.825-23.517c-.045-3.086-4.845-3.095-4.8,0Z"></path><path class="c" d="M41.08,234.329c-1.666-10.508-3.509-21.035-4.5-31.633a2.465,2.465,0,0,0-2.4-2.4,2.417,2.417,0,0,0-2.4,2.4c1.033,11.024,2.94,21.979,4.673,32.909a2.417,2.417,0,0,0,2.952,1.677,2.461,2.461,0,0,0,1.677-2.953Z"></path><path class="c" d="M162.521,250.36c2.28-14.429,3.488-29.1,4.52-43.664a2.4,2.4,0,1,0-4.8,0c-1,14.091-2.194,28.757-4.348,42.388a2.473,2.473,0,0,0,1.676,2.952,2.417,2.417,0,0,0,2.952-1.676Z"></path><path class="c" d="M70.952,217.766c-4.741-7.783-9.4-15.617-13.9-23.545q-1.6-2.823-3.172-5.664-.768-1.391-1.528-2.786a10.1,10.1,0,0,1-1.231-2.281c.036.183-.17.315.315-.19.348-.362.726-.7,1.1-1.031.686-.606,1.4-1.17,2.14-1.709,1.72-1.252,3.5-2.42,5.212-3.68a2.437,2.437,0,0,0,0-4.145c-1.473-.943-2.919-1.928-4.372-2.9-.737-.494-1.475-.987-2.221-1.468q-.448-.29-.9-.572c-.24-.15-.987-.861-.7-.346l.328,1.211.016-.421-.328,1.211c1.664-3.818,5.432-6.813,8.648-9.351a77.439,77.439,0,0,1,10.705-7.076l-3.525-1.435c4.132,16.367,8.577,32.675,13.775,48.738q2.179,6.736,4.545,13.412a2.461,2.461,0,0,0,2.952,1.677,2.422,2.422,0,0,0,1.676-2.953c-5.59-15.7-10.289-31.708-14.585-47.809q-1.909-7.158-3.735-14.341a2.427,2.427,0,0,0-3.525-1.434,74.053,74.053,0,0,0-16.123,11.7,33.108,33.108,0,0,0-3.282,3.718c-.984,1.3-2.233,2.974-1.971,4.681.328,2.139,3.088,3.179,4.716,4.255,1.833,1.212,3.639,2.464,5.49,3.649v-4.145c-1.882,1.384-3.846,2.653-5.717,4.052-1.661,1.241-3.753,2.647-4.815,4.478-1.394,2.406,0,4.593,1.164,6.731q1.694,3.114,3.43,6.207c4.917,8.763,10.049,17.405,15.277,25.986,1.6,2.634,5.757.225,4.144-2.423Z"></path><path class="c" d="M118.784,197.1c4.584-15.056,8.7-30.252,12.56-45.51l-3.525,1.435a107.445,107.445,0,0,1,10.864,6.9c3.133,2.294,6.858,5.077,8.415,8.682l-.328-1.211.02.416.328-1.211c.311-.563-.278.068-.5.209-.355.221-.707.446-1.058.672-.731.473-1.456.956-2.179,1.441-1.425.956-2.844,1.921-4.288,2.847a2.437,2.437,0,0,0,0,4.145c2.01,1.475,4.144,2.8,6.1,4.351a10.069,10.069,0,0,1,2.53,2.315c-.08-.145,0-.349-.076-.159a8.081,8.081,0,0,1-.456.846q-.493.915-.992,1.828-4.213,7.722-8.673,15.3c-1.564,2.672,2.583,5.09,4.144,2.423,3.424-5.852,6.856-11.727,9.992-17.739a4.883,4.883,0,0,0,.355-4.619,10.758,10.758,0,0,0-2.952-3.2c-2.392-2-5.038-3.652-7.546-5.493v4.145c1.815-1.163,3.588-2.389,5.385-3.579,1.508-1,4.083-1.978,4.608-3.886.47-1.706-.785-3.43-1.762-4.719a28.263,28.263,0,0,0-3.3-3.624,84.076,84.076,0,0,0-16.2-11.227,2.426,2.426,0,0,0-3.525,1.434c-3.859,15.258-7.977,30.454-12.56,45.51-.9,2.962,3.73,4.228,4.628,1.276Z"></path><path class="c" d="M72.826,164.619c13.007,5.977,28.328,7,42.164,3.517a56.17,56.17,0,0,0,11.5-4.28c2.76-1.388.332-5.53-2.423-4.145-11.715,5.89-25.948,6.992-38.652,4.126a51.47,51.47,0,0,1-10.165-3.362,2.47,2.47,0,0,0-3.284.861,2.419,2.419,0,0,0,.861,3.283Z"></path><path class="c" d="M61.367,153.461c-8.27,2.649-16.707,5.009-24.44,9.045-7.634,3.984-15.155,9.784-19.729,17.183-4.364,7.061-6.185,15.233-7.869,23.26-1.65,7.868-2.972,15.806-4.214,23.748C2.72,242.009,1.169,257.4.191,272.864c-.565,8.947-.047,18.424,3.88,26.646a30.978,30.978,0,0,0,18.007,15.732,26.1,26.1,0,0,0,12.089.84,32.61,32.61,0,0,0,10.8-4.22,52.749,52.749,0,0,0,7.921-5.384l5.048-4.335,1.262-1.084a2.421,2.421,0,0,0,0-3.394,2.449,2.449,0,0,0-3.394,0l-3.739,3.211-2.392,2.054c-.216.185-.426.38-.649.557-.043.034-.082.074-.126.108.085-.065.3-.235-.061.013-.3.2-.595.419-.894.627-5.9,4.1-12.333,7.961-19.792,7.36-7.412-.6-14.174-5.378-18.211-11.48-4.48-6.771-5.372-15.65-5.139-23.574.244-8.306,1.056-16.65,1.883-24.917q.991-9.9,2.463-19.735c1.119-7.5,2.348-14.993,3.769-22.444,1.4-7.347,2.722-15.035,5.637-21.958a34.053,34.053,0,0,1,6.331-10.011,52.469,52.469,0,0,1,9.461-7.882c6.813-4.508,14.518-7.154,22.255-9.6,2.015-.636,4.033-1.264,6.046-1.909,2.93-.938,1.677-5.574-1.277-4.628Z"></path><path class="c" d="M29.237,316.467q24.741,0,49.481-.021,30.519-.017,61.037-.036l23.882-.013c3.089,0,3.094-4.8,0-4.8q-24.883.01-49.766.029-30.478.018-60.957.034-11.838.006-23.677.007c-3.088,0-3.094,4.8,0,4.8Z"></path><path class="c" d="M139.776,158.089c12.665,3.459,27.062,7.325,35.294,18.447,4.192,5.665,6.5,12.774,8.419,19.478,2.1,7.335,3.34,14.927,4.706,22.425a288.119,288.119,0,0,1,4.771,40.789c.256,6.8.247,13.626-.132,20.42-.382,6.851-1.308,13.984-4.583,20.121-3.075,5.765-7.932,10.3-14.407,11.776-7.6,1.73-15.222-.714-21.17-5.562a2.471,2.471,0,0,0-3.394,0,2.419,2.419,0,0,0,0,3.394c5.884,4.8,13.089,7.922,20.793,7.5a25.5,25.5,0,0,0,17.9-8.383c9.919-11.051,9.992-27.146,9.955-41.156a271.089,271.089,0,0,0-3.95-43.54c-1.29-7.792-2.636-15.645-4.393-23.346a90.434,90.434,0,0,0-7.714-22.069c-7.073-13.367-21.409-19.41-35.221-23.371-1.862-.534-3.731-1.045-5.6-1.555-2.984-.815-4.257,3.814-1.276,4.628Z"></path><path class="c" d="M93.2,209.587c-3.06-.083-6.116,1.3-8.9,2.412q-4.518,1.8-8.848,4.016a2.4,2.4,0,0,0,2.422,4.145c2.512-1.295,5.076-2.489,7.7-3.533,2.356-.936,5.221-2.305,7.627-2.24a2.4,2.4,0,0,0,0-4.8Z"></path><path class="c" d="M65.638,273.556c.518-.7,1.021-1.4,1.529-2.108q.434-.6.87-1.2l.4-.534c.163-.218.35-.42.07-.094.114-.133.559-.61.158-.269a5.088,5.088,0,0,1,.661-.444c-.057.035.743-.406.438-.271a12.056,12.056,0,0,1,3.509-.7,18.519,18.519,0,0,0,3.887-.692,12.537,12.537,0,0,0,3.754-2.214,14.037,14.037,0,0,0,2.256-2.289c.38-.479.743-.969,1.1-1.462.308-.421.6-.819.784-1.055a2.475,2.475,0,0,0,0-3.394,2.417,2.417,0,0,0-3.394,0c-1.46,1.836-2.2,3.3-4.037,4.72a6.287,6.287,0,0,1-3.01,1.393c-1.206.235-2.568.315-3.862.516a8.96,8.96,0,0,0-5.741,2.9c-1.227,1.55-2.336,3.19-3.516,4.776a2.417,2.417,0,0,0,.861,3.284,2.458,2.458,0,0,0,3.284-.861Z"></path><path class="c" d="M78.48,218.16A8.28,8.28,0,0,0,68.464,216.4a20.1,20.1,0,0,1-2.1,1.345,16.006,16.006,0,0,1-3.07.373,8.183,8.183,0,0,0-2.885,1.161,5.584,5.584,0,0,1-2.54.812c-4.567.577-7.576,4.345-9.5,8.216-1.78,3.584-3.425,7.233-5.226,10.808-1.867,3.707-3.771,7.4-5.6,11.122a2.462,2.462,0,0,0,.861,3.284,2.422,2.422,0,0,0,3.283-.861c2.96-6.034,6.106-11.974,8.988-18.047,1.514-3.191,2.846-7.353,6.1-9.2a5.071,5.071,0,0,1,1.99-.6,9.379,9.379,0,0,0,3.182-.86,9.086,9.086,0,0,1,2.212-1.121c.9-.169,1.841-.079,2.753-.264a7.409,7.409,0,0,0,2.943-1.321,4.192,4.192,0,0,1,2.308-1.035,3.573,3.573,0,0,1,2.925,1.348c2.07,2.3,5.456-1.1,3.394-3.394Z"></path><path class="c" d="M80.37,232.281a32.794,32.794,0,0,1,2.519,7.139,19.8,19.8,0,0,1,.551,3.511,11.235,11.235,0,0,1-.658,2.709c-.3,1.048-.635,2.091-1.036,3.1a5.836,5.836,0,0,1-1.007,1.855c-1,.894-3.459.712-3.849-.593-.883-2.952-5.517-1.694-4.629,1.276,1.089,3.64,5.3,5.335,8.8,4.408,3.324-.882,4.643-3.7,5.688-6.684a36.488,36.488,0,0,0,1.127-3.881,13.123,13.123,0,0,0,0-5.062,35.869,35.869,0,0,0-3.363-10.2A2.422,2.422,0,0,0,81.231,229a2.45,2.45,0,0,0-.861,3.284Z"></path><path class="c" d="M70.373,234.53c.583,1.4,1.256,2.742,1.916,4.1a11.238,11.238,0,0,1,.626,1.457c.115.335.194.675.29,1.014.121.428.041-.086.065.391a14.311,14.311,0,0,1-.506,3.661q-.192.906-.413,1.806c-.07.281-.141.561-.231.836-.036.115-.076.228-.119.341.095-.211.084-.19-.035.063-.1.194-.22.382-.325.576q-.24.342,0,.023c-.086.1-.177.205-.272.3-.16.16-.459.324-.118.124a3.388,3.388,0,0,1-.329.195q.431-.157.048-.02c-.156.038-.655.08-.122.067-.125,0-.933-.066-.4.033a2.946,2.946,0,0,1-1.211-.439c-.113-.066-.537-.438-.162-.082-.146-.139-.5-.685-.219-.184-.086-.153-.177-.3-.254-.457.278.578.01-.143-.028-.288-.122-.478-.02.418-.01-.147,0-.253-.015-.506-.008-.76.007-.278.026-.555.05-.831.015-.17.032-.34.052-.509q.056-.441.018-.174a2.483,2.483,0,0,0-1.676-2.952,2.416,2.416,0,0,0-2.952,1.676c-.312,2.279-.677,4.91.714,6.936a7.083,7.083,0,0,0,6.6,2.913c2.631-.359,4.376-2.414,5.264-4.787a22.451,22.451,0,0,0,.848-3.4,19.436,19.436,0,0,0,.605-4.26c-.084-3.147-1.913-5.7-3.081-8.5a2.481,2.481,0,0,0-2.953-1.677,2.416,2.416,0,0,0-1.676,2.953Z"></path><path class="c" d="M35.449,252.088a32.95,32.95,0,0,0,4.385,9.813,47.6,47.6,0,0,0,6.495,8.365,16.83,16.83,0,0,0,8.559,5.044,31.384,31.384,0,0,0,9.454.489,2.468,2.468,0,0,0,2.4-2.4,2.417,2.417,0,0,0-2.4-2.4,27.616,27.616,0,0,1-7.835-.25,12.689,12.689,0,0,1-7.084-4.185,42.934,42.934,0,0,1-5.659-7.435,28.266,28.266,0,0,1-3.686-8.317c-.687-3.01-5.316-1.736-4.629,1.276Z"></path><path class="c" d="M133.489,242.22a71.567,71.567,0,0,1,8.171,4.79c2.194,1.531,4.661,3.239,6.074,5.551a26.086,26.086,0,0,1,2.9,8.327A29.983,29.983,0,0,1,151.2,271a2.483,2.483,0,0,0,1.676,2.953,2.416,2.416,0,0,0,2.952-1.677,36.4,36.4,0,0,0-.4-11.829,31.639,31.639,0,0,0-3.346-9.968c-1.73-2.99-4.514-5.094-7.267-7.093a68.747,68.747,0,0,0-8.9-5.31c-2.74-1.417-5.17,2.724-2.422,4.145Z"></path><path class="c" d="M109.488,277.093l-19.713-3.682c-2.049-.382-5.271-.532-4.98-3.435.173-1.718.646-3.457.963-5.153l4.458-23.856q1.7-9.072,3.391-18.146,1.323-7.077,2.647-14.156c.638-3.412,1.2-6.847,1.914-10.244.76-3.608,4.606-2.091,7.1-1.626l17.372,3.249,11.829,2.212a11.994,11.994,0,0,1,2.765.6,2.738,2.738,0,0,1,1.421,3.161l-3.9,20.865q-1.488,7.958-2.975,15.915l-.837,4.495a2.465,2.465,0,0,0,1.676,2.953,2.422,2.422,0,0,0,2.952-1.677q1.422-7.625,2.847-15.248l4.509-24.1c.146-.782.306-1.562.439-2.345a7.576,7.576,0,0,0-3.551-8.072,11.543,11.543,0,0,0-3.774-1.115l-5.49-1.027-18.307-3.423c-3.293-.616-6.582-1.294-9.886-1.848a7.525,7.525,0,0,0-8.51,4.7,22.327,22.327,0,0,0-.809,3.778q-1.889,10.1-3.777,20.2-1.285,6.87-2.567,13.738l-4.819,25.786-1.506,8.061c-.09.481-.186.961-.259,1.445a7.462,7.462,0,0,0,5.393,8.371c2.654.692,5.448,1.029,8.142,1.532l12.308,2.3,2.265.423a2.466,2.466,0,0,0,2.952-1.677,2.421,2.421,0,0,0-1.676-2.952Z"></path><path class="c" d="M138.112,248.083q-14.418-8.825-28.995-17.4c-2.329-1.365-5.221-2.259-7.9-1.394-3.521,1.137-5.8,5.349-4.133,8.8,1.04,2.153,3.521,3.626,5.377,5.025,2.258,1.7,4.539,3.369,6.827,5.028,5.122,3.717,10.257,7.435,15.514,10.96,2.573,1.725,4.978-2.431,2.423-4.144-4.164-2.793-8.24-5.721-12.31-8.647q-3.481-2.5-6.934-5.038-1.508-1.11-3-2.234-.567-.426-1.13-.856c-.1-.076-.591-.455-.37-.283s-.3-.234-.37-.29c-.617-.487-1.588-1.119-1.812-1.8a1.148,1.148,0,0,1,.186-.833,3.791,3.791,0,0,1,.241-.4,2.374,2.374,0,0,1,.62-.584c1.528-.909,3.379.257,4.626.99,4.045,2.378,8.069,4.792,12.1,7.2,5.552,3.325,11.1,6.653,16.624,10.032,2.642,1.617,5.056-2.533,2.423-4.145Z"></path><path class="c" d="M99.028,234.1c-2.663-.6-5.432-.464-7.608,1.347a7.353,7.353,0,0,0-2.4,7.323c.979,3.639,4.3,6.169,7.187,8.32,5.347,3.98,10.76,7.873,16.169,11.768,2.286,1.646,4.566,3.3,6.879,4.911a2.423,2.423,0,0,0,3.284-.861,2.449,2.449,0,0,0-.861-3.284c-4.3-2.991-8.531-6.094-12.774-9.169q-3.765-2.73-7.519-5.477-1.349-.989-2.692-1.985c-.32-.239-.641-.477-.96-.719-.115-.087-.229-.176-.346-.263-.388-.286.5.427.106.081-1.365-1.2-4.134-3.21-3.89-5.317.251-2.178,2.408-2.441,4.151-2.046,3.008.68,4.293-3.946,1.276-4.629Z"></path><path class="c" d="M97.939,248.023c-3.745-.418-6.211,2.981-6.108,6.457.082,2.79,2.153,5.038,4.22,6.692,3.987,3.189,8.119,6.2,12.211,9.257q3.182,2.375,6.366,4.745a2.415,2.415,0,0,0,3.284-.861,2.458,2.458,0,0,0-.861-3.284c-3.528-2.636-7.066-5.259-10.589-7.9q-2.751-2.064-5.486-4.153c-.138-.106-.489-.376-.152-.116l-.509-.395c-.291-.227-.582-.455-.87-.686-.343-.274-.687-.547-1.009-.845-.917-.847-2.014-1.875-1.738-3.226a3.807,3.807,0,0,1,.21-.684c-.237.568.313-.465.032-.037.12-.183.083-.158.182-.186a3.222,3.222,0,0,1,.817.024,2.414,2.414,0,0,0,2.4-2.4,2.457,2.457,0,0,0-2.4-2.4Z"></path><path class="c" d="M94.619,259.93a5.741,5.741,0,0,0-1.277,5.392c.453,1.994,1.829,3.5,3.086,5.046a75.952,75.952,0,0,0,7.873,8.279,90.709,90.709,0,0,0,9.054,7.165c3.226,2.249,6.787,4.34,10.709,5.045a38.183,38.183,0,0,0,11.113.191,2.475,2.475,0,0,0,2.4-2.4,2.414,2.414,0,0,0-2.4-2.4,42.435,42.435,0,0,1-5.658.261,25.406,25.406,0,0,1-4.608-.364c-4.266-.89-7.931-3.535-11.368-6.084a77.564,77.564,0,0,1-9.327-8.161q-2.229-2.289-4.257-4.76c-.476-.579-2.782-2.906-1.946-3.816,2.087-2.272-1.3-5.675-3.394-3.394Z"></path><path class="c" d="M152.854,267.091a42.272,42.272,0,0,1-7.3,13.455,35.533,35.533,0,0,1-11.372,10.047c-2.749,1.412-.323,5.555,2.422,4.144,5.07-2.6,9.261-6.82,12.721-11.282a47.32,47.32,0,0,0,8.157-15.088c.9-2.963-3.735-4.229-4.628-1.276Z"></path><path class="c" d="M111.3,203.194q-2.96-.554-5.92-1.11a2.573,2.573,0,0,0-1.849.242,2.4,2.4,0,0,0-.861,3.283,2.354,2.354,0,0,0,1.434,1.1q2.961.553,5.92,1.11a2.577,2.577,0,0,0,1.85-.242,2.4,2.4,0,0,0,.861-3.283,2.359,2.359,0,0,0-1.435-1.1Z"></path></svg>