<svg xmlns="http://www.w3.org/2000/svg" width="216.653" height="328.119" viewBox="0 0 216.653 328.119"><defs><style>.a{fill:#fff;}.b{fill:#fcdc4a;}.c{fill:#211715;}</style></defs><path class="a" d="M110.01,157.188C108.553,156.155,89.338,141,88.4,140.241c0,0,0-1.251,0-2.863a49.279,49.279,0,0,1-11.982-10.607,55.924,55.924,0,0,1-10.4-19.294,8.073,8.073,0,0,1-6.678-1.749c-3.957-3.237-5.6-7.752-6.6-10.7-1.415-4.168-1.5-10.9.6-14.558a6.9,6.9,0,0,1,6.2-3.446,7.445,7.445,0,0,1,5.38,1.969S58.764,35.5,111.7,35.5,158.491,78.99,158.491,78.99a7.444,7.444,0,0,1,5.379-1.969,6.905,6.905,0,0,1,6.2,3.446c2.108,3.655,2.019,10.39.6,14.558-1,2.951-2.643,7.466-6.6,10.7a8.2,8.2,0,0,1-6.324,1.825l-.436-.072c-.75,2.185-1.686,4.127-2,5.087-1.533,4.162-9.752,18.374-20.3,24.7,0,1.669,0,2.976,0,2.976-.943.763-20.159,15.914-21.616,16.947Z"></path><path class="a" d="M110.626,255.807c-6.675-16.473-8.393-21.911-13.611-37.936-7.043-21.628-13.588-45.414-18.6-67.658A104.214,104.214,0,0,0,69,157.085c-13.4,4.114-23.908,8.206-35.976,15.863a39.145,39.145,0,0,0-11.75,11.806c-3.7,5.711-6.511,13.421-8.083,20.083-1.817,7.7-2.663,11.985-4.369,22.246a489.556,489.556,0,0,0-6.272,56.239c-.492,8,.279,16.6,3.283,24.008s10.543,14.4,18.046,16.7a24.09,24.09,0,0,0,16.6-.567c1.444,0,2.271,0,2.271,0H175.3a26.706,26.706,0,0,0,18.606,1.065c7.506-2.239,13.19-8.714,16.2-15.942s3.706-15.2,3.986-23.024c.863-24.125-1.76-45.689-7.166-72.424a114.9,114.9,0,0,0-6.266-23.04,50.667,50.667,0,0,0-5.07-10.194c-4.3-6.357-10.762-11.015-17.695-14.311s-14.384-5.336-21.79-7.358l-.471-.129a104.306,104.306,0,0,0-10.646-7.894c-5.01,22.244-11.554,46.03-18.6,67.658-5.218,16.025-6.936,21.463-13.611,37.936"></path><path class="a" d="M95.306,212.549c-5.751-18.154-11.1-37.576-15.467-56.177l-.057-1.345c-.727-1.959.213-4.676,1.491-6.155,2.17-2.514,4.9-6.149,7.122-8.631.943.763,20.158,15.914,21.615,16.947H113.4c1.457-1.033,20.673-16.184,21.616-16.947,2.218,2.482,4.952,6.117,7.122,8.631,1.278,1.479,2.218,4.2,1.491,6.155l.123.576c-4.823,20.662-10.879,42.378-17.356,62.268-5.487,16.851-7.1,22-14.693,40.571-7.579-18.576-9.2-23.721-14.683-40.571Q96.155,215.231,95.306,212.549Z"></path><path class="a" d="M79.4,275.573l.757-1.012c.935-1.25,3.247-4.558,3.711-4.983a8.068,8.068,0,0,1,2.016-1.22c2.868-1.059,6.455-.541,8.8-1.972,4.153-2.539,4.3-4.693,7.357-7.7,2.62-14.02,6.7-35.873,8.662-46.342-.189,0-.378,0-.565.011a15.94,15.94,0,0,0-4.406,1.065,97.913,97.913,0,0,0-13.316,5.862c-.041-.02-.083-.051-.124-.072a4.376,4.376,0,0,0-.483-.257.625.625,0,0,0-.144-.072,3.628,3.628,0,0,0-.432-.164.588.588,0,0,0-.123-.052,2.076,2.076,0,0,0-.237-.072c-.1-.031-.2-.061-.3-.082-.031-.01-.062-.01-.092-.021-.1-.02-.206-.041-.3-.061-.123-.021-.236-.031-.349-.041a1.436,1.436,0,0,0-.216-.021,2.775,2.775,0,0,0-.422-.021,5.439,5.439,0,0,0-.709.042,6.083,6.083,0,0,0-3.095,1.367,6.029,6.029,0,0,1-4,1.244,5.62,5.62,0,0,0-3.239,1.008A5.712,5.712,0,0,1,75,223.11a2.423,2.423,0,0,0-.381.031,6.777,6.777,0,0,0-1.2.257,7.82,7.82,0,0,0-1.5.658,10.356,10.356,0,0,0-2.838,2.427,26.29,26.29,0,0,0-3.3,5.747c-4.646,9.956-6.645,13.21-11.485,23.243a45.7,45.7,0,0,0,6.932,11.871,27.467,27.467,0,0,0,7.037,6.629c2.54,1.511,7.469,1.937,11,1.793Z"></path><path class="a" d="M125.667,233.654c3.474,2.032,17.245,10.253,26.307,15.748l1.5-8.02a58.4,58.4,0,0,1,13.519,8.988,15.793,15.793,0,0,1,3.788,6.284c1.57,4.589,2.96,11.2,2.078,17.179l-.1.692a52.134,52.134,0,0,1-13.876,17.921,85.661,85.661,0,0,1-15.719-1.187,26.407,26.407,0,0,1-10.086-4.708,81.3,81.3,0,0,1-18.956-17.888,5.426,5.426,0,0,1-.994-2.584,2.984,2.984,0,0,1,.788-2.563l1.966-1.828c-.765-.6-1.3-1.043-1.532-1.261a8.638,8.638,0,0,1-2.381-3.238,4.331,4.331,0,0,1-.047-2.494,3.137,3.137,0,0,1,3.664-2.726l1.79.272c-2.012-1.478-3.5-2.584-4.025-3.006-.237-.189-.48-.393-.725-.61a14.949,14.949,0,0,1-3.545-4.361,4.858,4.858,0,0,1,.663-5.087c1.381-1.834,3.79-2.446,6.981-1.451a4.2,4.2,0,0,1,1.226-4.073c1.994-2.2,5.663-1.186,7.226-.285Z"></path><path class="a" d="M155.676,253.093l.062-1.4c-8.805-5.392-27.844-16.759-30.563-18.326-1.563-.9-5.232-1.918-7.226.285a4.207,4.207,0,0,0-1.234,4.049c-.417-.108-.665-.169-.665-.169-2.861-.707-5.027-.058-6.308,1.644a4.858,4.858,0,0,0-.663,5.087,15.977,15.977,0,0,0,4.27,4.971c.527.422,2.013,1.528,4.025,3.006l-1.79-.272a3.137,3.137,0,0,0-3.664,2.726,4.331,4.331,0,0,0,.047,2.494,8.638,8.638,0,0,0,2.381,3.238c.227.217.765.657,1.527,1.257l-1.963,1.831a2.988,2.988,0,0,0-.788,2.56,5.571,5.571,0,0,0,.991,2.592,81.5,81.5,0,0,0,18.965,17.889,26.389,26.389,0,0,0,10.087,4.7,44.36,44.36,0,0,0,10.795.107Z"></path><path class="b" d="M102.828,174.752a21.482,21.482,0,0,1,1.252,5.972c.01.561-.806,6.524-1.979,14.852-.841,5.968-1.864,13.151-2.9,20.43q3.218-1.407,6.528-2.583a15.94,15.94,0,0,1,4.406-1.065c.187-.011.376-.014.565-.011h0l2.751-14.717a5.157,5.157,0,0,1,6.016-4.121l2.519.471c-.965-7.745-1.666-13.31-1.666-13.628a15.027,15.027,0,0,1,.516-3.372q.195-.756.349-1.511c.556-2.507.658-3.79,1.3-6.446l.039-.131c-3.1-4.18-6.849-9.136-9.134-11.705H110.01c-2.277,2.561-6.009,7.494-9.1,11.665l.338.745A33.079,33.079,0,0,1,102.828,174.752Z" style="fill: rgb(121, 211, 241);"></path><path class="b" d="M136.034,51.118a21.783,21.783,0,0,1,11.771,8.921c2.972,4.241,4.186,8.457,5.581,14.5l5.281,4.42a7.344,7.344,0,0,1,5.308-1.943,8.443,8.443,0,0,1,2.933.591c2.835-13.794,3.1-29.48-2.929-42.828-.746-1.653-3.95-10.174-11.264-16.008-5.915-4.719-8.827-5.7-12.926-5.657L131.7,9.9a17.308,17.308,0,0,0-8-5C110.863.435,96.079,2.205,84.4,8.186A55.915,55.915,0,0,0,58.3,36.858c-4.613,11.8-4.859,28.5-2.5,41.093a7.9,7.9,0,0,1,3.631-.93,7.344,7.344,0,0,1,5.308,1.943l1.9,1.824c.353-3.6,1.253-7.163,4.05-10.024,1.825-1.866,4.41-3.371,5.5-5.541.923-1.838,1.073-3.824,2.036-5.651a9.867,9.867,0,0,1,2.992-3.426,17.405,17.405,0,0,1,5.679-2.365c2.893-.762,17.019-1.759,20.826-1.939,0,0,10.581-2.145,16.32-2.145A47.781,47.781,0,0,1,136.034,51.118Z" style="fill: rgb(121, 211, 241);"></path><path class="b" d="M155.9,200.321l-36.436-6.811a5.157,5.157,0,0,0-6.016,4.121L99.64,271.521a5.157,5.157,0,0,0,4.121,6.016l23.1,4.318a78.606,78.606,0,0,1-12.748-13.188,5.571,5.571,0,0,1-.991-2.592,2.988,2.988,0,0,1,.788-2.56l1.963-1.831c-.762-.6-1.3-1.04-1.527-1.258a8.627,8.627,0,0,1-2.381-3.237,4.331,4.331,0,0,1-.047-2.494,3.137,3.137,0,0,1,3.664-2.726l1.79.272c-2.013-1.478-3.5-2.584-4.025-3.006a15.977,15.977,0,0,1-4.27-4.971,4.858,4.858,0,0,1,.663-5.087c1.281-1.7,3.447-2.351,6.308-1.644,0,0,.248.061.665.169a4.207,4.207,0,0,1,1.234-4.049c1.994-2.2,5.663-1.186,7.226-.285,2.376,1.369,17.218,10.224,26.8,16.034l8.05-43.066A5.156,5.156,0,0,0,155.9,200.321Z" style="fill: rgb(121, 211, 241);"></path><path class="c" d="M119.582,174.948c-5.008,0-10.016-.052-15.024-.053a2.4,2.4,0,1,0,0,4.8c5.008,0,10.016.052,15.024.053a2.4,2.4,0,0,0,0-4.8Z"></path><path class="c" d="M120.178,168.388c-.573,2.383-.935,4.809-1.473,7.2a16.63,16.63,0,0,0-.716,5.439c.48,4.322,1.062,8.634,1.6,12.949a2.477,2.477,0,0,0,2.4,2.4,2.413,2.413,0,0,0,2.4-2.4c-.535-4.268-1.1-8.534-1.587-12.807a12.722,12.722,0,0,1,.529-4.305c.535-2.392.9-4.817,1.472-7.2.722-3-3.905-4.283-4.628-1.276Z"></path><path class="c" d="M99.17,170.807a20.5,20.5,0,0,1,1.014,3.367c.3,1.17.692,2.312,1,3.481a10.355,10.355,0,0,1,.454,3.65c-.242,2.427-.523,4.131-.845,6.467-1.27,9.2-2.595,18.4-3.9,27.6a2.48,2.48,0,0,0,1.676,2.952,2.417,2.417,0,0,0,2.952-1.676q1.668-11.724,3.326-23.449.59-4.209,1.157-8.421c.174-1.3.438-2.637.48-3.953a18.734,18.734,0,0,0-1.057-5.8,52.418,52.418,0,0,0-2.107-6.632,2.417,2.417,0,0,0-3.284-.861,2.457,2.457,0,0,0-.861,3.283Z"></path><path class="c" d="M86.7,138.544c-1.378,1.554-2.674,3.177-3.975,4.8-1.285,1.6-2.76,3.13-3.913,4.826a8.358,8.358,0,0,0-.644,8.885A106.911,106.911,0,0,0,87.753,170.7a32.707,32.707,0,0,0,7.075,6.824,2.458,2.458,0,0,0,3.284-.861c4.463-5.958,8.659-12.19,13.6-17.774a2.446,2.446,0,0,0-.485-3.77c-.295-.211-.581-.434-.869-.654l-.346-.267s.358.278-.026-.02c-.335-.26-.671-.52-1-.781q-2.542-1.977-5.074-3.967-5.454-4.279-10.894-8.574c-.973-.768-1.951-1.53-2.916-2.308a2.473,2.473,0,0,0-3.394,0,2.418,2.418,0,0,0,0,3.394c6.108,4.928,12.32,9.736,18.511,14.559,1.19.927,2.363,1.885,3.59,2.763l-.486-3.769c-5.206,5.89-9.638,12.461-14.346,18.746l3.284-.861a14.889,14.889,0,0,1-2.326-1.921c-.977-.94-1.895-1.941-2.78-2.967-1.874-2.173-3.593-4.473-5.24-6.821-1.349-1.924-2.654-3.882-3.891-5.88-.35-.565-.731-1.13-1.029-1.725-.032-.065-.078-.127-.105-.2.2.5.057-.17.051-.333a4.517,4.517,0,0,1,.5-2.062c.785-1.627,2.3-3.011,3.423-4.411,1.389-1.727,2.768-3.464,4.238-5.123C92.135,139.634,88.753,136.227,86.7,138.544Z"></path><path class="c" d="M77.235,221.885Q70.529,209.806,64.06,197.6q-1.571-2.979-3.12-5.97-.765-1.478-1.525-2.959c-.454-.886-.716-.949-.139-1.615a127.964,127.964,0,0,1,9.323-9.208,2.421,2.421,0,0,0-.485-3.769l-4.769-2.723-2.167-1.237c-.434-.248-.868-.494-1.3-.743l-.433-.247q-.531-.33.091.091l.327,1.211q-.209.45-.059.144c.058-.119.119-.237.182-.354.107-.2.22-.4.336-.6.245-.416.508-.82.782-1.217a25.56,25.56,0,0,1,1.909-2.395,59.48,59.48,0,0,1,5.4-5.29,94.594,94.594,0,0,1,11.226-8.429l-3.526-1.434q5.964,26.444,13.82,52.418,2.186,7.258,4.52,14.472c.947,2.927,5.583,1.675,4.628-1.276q-8.344-25.788-14.847-52.129-1.823-7.362-3.493-14.761a2.417,2.417,0,0,0-3.525-1.434,89.435,89.435,0,0,0-16.424,13.2,41.328,41.328,0,0,0-3.386,4.018,12.025,12.025,0,0,0-2.265,4.105c-.624,2.762,2.1,3.925,4.052,5.04l6.5,3.712-.486-3.769c-1.817,1.707-3.628,3.422-5.4,5.176a36.345,36.345,0,0,0-4.862,5.165c-1.535,2.3-.591,4.508.545,6.72q1.638,3.192,3.3,6.368,6.974,13.31,14.3,26.429c1.5,2.7,5.647.283,4.145-2.422Z"></path><path class="c" d="M135.426,196.694q6.635-22.732,11.88-45.84l-3.525,1.434A95.153,95.153,0,0,1,155,160.717a59.852,59.852,0,0,1,5.281,5.163,26.376,26.376,0,0,1,1.937,2.4c.279.4.546.8.8,1.22q.213.354.408.717l.123.236q.234.483,0-.026l.328-1.211q.574-.381.214-.163-.276.162-.557.319l-1.083.619-2.385,1.361-4.768,2.723a2.422,2.422,0,0,0-.486,3.769c1.819,1.708,3.631,3.422,5.405,5.176q1.335,1.32,2.638,2.673c.43.449.868.894,1.282,1.359.364.409.42.335.33.681a18.111,18.111,0,0,1-1.672,3.262q-.882,1.706-1.77,3.407-1.855,3.553-3.738,7.094c-1.449,2.726,2.693,5.154,4.145,2.422q2.106-3.966,4.183-7.947,1.05-2.016,2.09-4.035c.683-1.326,1.6-2.724,1.622-4.264.036-2.967-2.8-5.124-4.717-7.05-2.09-2.1-4.243-4.143-6.4-6.172l-.485,3.769,6.5-3.712c1.959-1.119,4.68-2.264,4.053-5.04A12.076,12.076,0,0,0,166,165.361a41.613,41.613,0,0,0-3.386-4.018,89.713,89.713,0,0,0-16.414-13.2,2.418,2.418,0,0,0-3.526,1.434q-5.212,23.1-11.88,45.84c-.867,2.971,3.763,4.24,4.628,1.276Z"></path><path class="c" d="M133.313,141.938c2.451,2.764,4.924,5.664,7.123,8.631a5.523,5.523,0,0,1,.83,1.664,4.565,4.565,0,0,1,.2.95c.018.208-.038.93,0,.787.065-.231-.125.23-.192.347-.168.295-.344.586-.52.877a102.891,102.891,0,0,1-8.7,12.349c-.983,1.184-2,2.34-3.089,3.43-.5.5-1.015.988-1.551,1.45a7.539,7.539,0,0,1-1.265.953l3.284.861c-4.708-6.285-9.14-12.856-14.346-18.746l-.486,3.769c2.737-1.958,5.343-4.128,7.99-6.2q5.568-4.365,11.121-8.75c1-.788,2-1.569,2.99-2.367a2.417,2.417,0,0,0,0-3.394,2.457,2.457,0,0,0-3.4,0c-6.031,4.866-12.166,9.613-18.278,14.378l-1.163.905-.507.393c-.464.36.345-.263-.07.054-.368.282-.733.571-1.111.841a2.447,2.447,0,0,0-.486,3.77c4.937,5.584,9.133,11.816,13.6,17.774a2.447,2.447,0,0,0,3.284.861c5.107-3.341,8.892-8.869,12.324-13.8,1.405-2.018,2.768-4.071,4.041-6.176a9.56,9.56,0,0,0,1.046-2.039,8.708,8.708,0,0,0-.716-6.139c-.9-1.95-2.6-3.553-3.935-5.213-1.521-1.889-3.021-3.8-4.63-5.612C134.654,136.228,131.269,139.633,133.313,141.938Z"></path><path class="c" d="M135.4,53.432a20.1,20.1,0,0,1,10.634,8.252c2.743,4.077,3.946,8.768,5.042,13.5.7,3.008,5.326,1.735,4.629-1.276-1.24-5.347-2.715-10.7-5.932-15.231a25.178,25.178,0,0,0-13.1-9.871c-2.956-.922-4.22,3.71-1.276,4.628Z"></path><path class="c" d="M139.789,15.519a10.9,10.9,0,0,1,4.633.752,25.314,25.314,0,0,1,5.6,3.429,34.265,34.265,0,0,1,9.316,10.918,58.061,58.061,0,0,1,7.037,25.672A84.572,84.572,0,0,1,164.9,75.4a2.466,2.466,0,0,0,1.676,2.953,2.422,2.422,0,0,0,2.952-1.677c2.27-12.131,2.636-24.955-1.08-36.849-2.7-8.641-7.218-17.367-14.42-23.055-4.278-3.378-8.639-6.091-14.242-6.057-3.088.02-3.095,4.82,0,4.8Z"></path><path class="c" d="M58.115,77.315a88.018,88.018,0,0,1-.944-24.766,53.02,53.02,0,0,1,7.158-22.455C72.9,16,87.924,6.225,104.462,4.954a46.608,46.608,0,0,1,14.53,1.066c4.173,1.009,8.014,2.4,11.006,5.574,2.124,2.253,5.513-1.146,3.394-3.394a23.286,23.286,0,0,0-10.67-6.14A49.324,49.324,0,0,0,108.7,0,55.6,55.6,0,0,0,81.814,6.845,58.952,58.952,0,0,0,62.337,24.4a54.938,54.938,0,0,0-9.422,23.846,92.2,92.2,0,0,0,.571,30.347,2.422,2.422,0,0,0,2.952,1.676,2.452,2.452,0,0,0,1.677-2.952Z"></path><path class="c" d="M107.72,49.442c-6.54.315-13.146.753-19.627,1.691-3.8.549-7.928,2.027-10.436,5.053-1.812,2.185-2.333,4.606-3.282,7.2-.748,2.044-2.7,3.27-4.275,4.647-4.57,3.992-5.756,9.536-6.042,15.349-.151,3.088,4.649,3.08,4.8,0,.212-4.306.871-8.53,4.207-11.573,1.687-1.539,3.568-2.834,4.844-4.772,1.32-2,1.374-4.512,2.554-6.557,1.751-3.034,5.342-4.157,8.616-4.676.13-.02.26-.038.391-.057.365-.053-.391.05,0,0q.526-.068,1.053-.129,1.2-.14,2.4-.257c1.706-.17,3.414-.318,5.122-.457,3.222-.261,6.447-.506,9.676-.662,3.075-.148,3.093-4.949,0-4.8Z"></path><path class="c" d="M107.279,45.25a28.6,28.6,0,0,1,4.691-.121c.166.013.331.028.5.045.451.045-.553-.1.23.029.335.056.668.119,1,.194a16.751,16.751,0,0,1,2.328.709c-.219-.085.11.045.157.066q.239.109.473.228c.348.175.688.367,1.02.57s.638.414.95.633c.078.054.3.227.1.071.126.1.249.2.371.3a13.522,13.522,0,0,1,1.431,1.4c.088.1.169.207.259.306-.126-.139-.176-.252-.03-.036.156.232.311.461.449.7a2.4,2.4,0,1,0,4.144-2.422,15.314,15.314,0,0,0-7.233-6.116,22.009,22.009,0,0,0-10.84-1.367,2.4,2.4,0,1,0,0,4.8Z"></path><path class="c" d="M182.708,217.871q-1.8,14.139-3.595,28.28-.393,3.115-.782,6.233a2.412,2.412,0,0,0,2.4,2.4,2.459,2.459,0,0,0,2.4-2.4c1.19-9.618,2.429-19.23,3.654-28.844l.723-5.669a2.413,2.413,0,0,0-2.4-2.4,2.46,2.46,0,0,0-2.4,2.4Z"></path><path class="c" d="M44.446,244.326c-1.5-12.023-3.1-24.035-4.673-36.05-.2-1.492-.4-2.984-.576-4.478a2.475,2.475,0,0,0-2.4-2.4,2.415,2.415,0,0,0-2.4,2.4c1.2,10.032,2.623,20.04,3.915,30.06q.677,5.233,1.334,10.468a2.477,2.477,0,0,0,2.4,2.4,2.413,2.413,0,0,0,2.4-2.4Z"></path><path class="c" d="M40.462,325.864h134.83c3.089,0,3.094-4.8,0-4.8H40.462c-3.088,0-3.094,4.8,0,4.8Z"></path><path class="c" d="M162.674,317.516A33.821,33.821,0,0,0,183.471,328a27.111,27.111,0,0,0,20.708-6.707c11.854-10.7,12.363-28.125,12.468-42.937a280.27,280.27,0,0,0-3.849-46.423c-1.339-8.339-2.834-16.7-4.6-24.958a101.273,101.273,0,0,0-7.92-23.738,41.284,41.284,0,0,0-15.142-16.389c-6.814-4.339-14.557-7-22.276-9.22-2.034-.585-4.077-1.143-6.119-1.7-2.984-.815-4.257,3.814-1.276,4.628,13.573,3.707,29.133,7.9,37.706,20.068,4.438,6.3,6.9,14.11,8.906,21.476,1.049,3.857,1.811,7.754,2.532,11.683.743,4.047,1.594,8.073,2.318,12.125a296.287,296.287,0,0,1,4.835,44.062,198.338,198.338,0,0,1-.463,22.386c-.607,7.024-2.1,14.169-5.965,20.172a22.61,22.61,0,0,1-14.958,10.394c-7.4,1.4-14.728-1.011-20.633-5.482a32.33,32.33,0,0,1-3.677-3.312c-2.151-2.224-5.543,1.172-3.394,3.394Z"></path><path class="c" d="M64.69,155.922a146.59,146.59,0,0,0-26.208,10.989,64.009,64.009,0,0,0-11.98,8,42.874,42.874,0,0,0-8.547,10.679c-4.389,7.715-6.657,16.287-8.509,24.9C7.776,218.25,6.519,226.1,5.3,233.942A474.129,474.129,0,0,0,.089,284.417c-.432,9.283.588,19.818,5.6,27.885,4.684,7.545,12.564,13.561,21.443,14.953,14.249,2.235,25.561-7.766,35.963-15.988l1.172-.926a2.413,2.413,0,0,0,0-3.394,2.459,2.459,0,0,0-3.394,0l-8.887,7.025c-.736.581-1.5,1.063-2.595,1.807-1.8,1.225-3.643,2.4-5.554,3.452A26.547,26.547,0,0,1,33.3,322.765c-8.286.66-15.845-3.483-21.122-9.659C6.431,306.377,4.9,297,4.815,288.4c-.047-4.815.409-9.643.761-14.442q.466-6.36,1.068-12.711,1.048-10.93,2.647-21.795c1.133-7.694,2.358-15.386,3.831-23.022s3.1-15.353,6.106-22.555c3.358-8.051,8.555-14.848,16-19.485a126.039,126.039,0,0,1,24.3-11.668c2.133-.763,4.281-1.481,6.438-2.176,2.929-.943,1.676-5.579-1.276-4.628Z"></path><path class="c" d="M155.875,103.569a24.069,24.069,0,0,1-1.843,5.812c-.3.724-.618,1.44-.9,2.173-.068.178-.133.359-.2.539-.223.632.122-.241-.037.1a55.461,55.461,0,0,1-3.186,5.89A57.78,57.78,0,0,1,137.1,132.909a23.182,23.182,0,0,1-9.206,4.726c-3.009.7-1.736,5.324,1.276,4.629,7.167-1.656,13.131-6.9,17.807-12.337a64.342,64.342,0,0,0,9.918-14.963,41.386,41.386,0,0,0,3.783-11.395,2.411,2.411,0,0,0-2.4-2.4,2.462,2.462,0,0,0-2.4,2.4Z"></path><path class="c" d="M62.59,104.021C65.954,118.5,75.022,132.542,88.116,140a33.15,33.15,0,0,0,11.458,4.077,2.479,2.479,0,0,0,2.953-1.676,2.418,2.418,0,0,0-1.677-2.952c-14.106-2.1-25.026-14.6-30.485-27.051a55.1,55.1,0,0,1-3.146-9.655c-.7-3.008-5.328-1.735-4.629,1.276Z"></path><path class="c" d="M66.612,77.293a10.484,10.484,0,0,0-11.589-1.6,10.2,10.2,0,0,0-5.129,7.113,26.631,26.631,0,0,0,4.081,20.522c2.886,4.217,7,7.263,12.316,6.538a2.415,2.415,0,0,0,1.676-2.953,2.465,2.465,0,0,0-2.952-1.676c-3.72.508-6.592-3.494-8.105-6.335a22.954,22.954,0,0,1-2.741-8.938,19.98,19.98,0,0,1,.208-5.2A12.174,12.174,0,0,1,55,82.486a6.906,6.906,0,0,1,.491-.947c.055-.09.5-.714.166-.288A4.426,4.426,0,0,1,58.6,79.515a5.373,5.373,0,0,1,4.617,1.172c2.286,2.068,5.69-1.316,3.394-3.394Z"></path><path class="c" d="M160.188,80.687a5.371,5.371,0,0,1,4.616-1.172,4.462,4.462,0,0,1,2.949,1.736c-.339-.426.111.2.165.288a6.8,6.8,0,0,1,.492.947,12.174,12.174,0,0,1,.619,2.276,19.934,19.934,0,0,1,.207,5.2A22.932,22.932,0,0,1,166.5,98.9c-1.512,2.842-4.383,6.843-8.1,6.335a2.483,2.483,0,0,0-2.952,1.676,2.417,2.417,0,0,0,1.676,2.953c8.678,1.185,13.724-7.348,15.973-14.5a25.017,25.017,0,0,0,.689-11.184c-.481-3.106-1.768-6.089-4.414-7.92a10.4,10.4,0,0,0-12.569,1.029c-2.3,2.077,1.107,5.463,3.394,3.394Z"></path><path class="c" d="M102.991,121.146a19.117,19.117,0,0,0,9.208,2.132,14.985,14.985,0,0,0,9.294-2.742,2.412,2.412,0,0,0,0-3.394,2.46,2.46,0,0,0-3.394,0c.728-.568.165-.135-.023-.015s-.374.228-.569.33c-.1.052-.2.1-.3.151-.39.2.094-.052.1-.032a6.1,6.1,0,0,1-.785.286,13.894,13.894,0,0,1-2.2.5c.355-.053-.062,0-.207.018q-.322.031-.647.053c-.52.034-1.041.047-1.562.044-.466,0-.932-.019-1.4-.051-.213-.014-.427-.031-.64-.053-.026,0-.8-.111-.307-.033a15.822,15.822,0,0,1-2.052-.455c-.288-.086-.568-.19-.852-.287-.612-.209.355.184-.2-.077q-.528-.249-1.043-.521a2.452,2.452,0,0,0-3.283.861,2.426,2.426,0,0,0,.861,3.284Z"></path><path class="c" d="M110.975,99.459a43.248,43.248,0,0,1,1.016,4.65l-.085-.638a2.814,2.814,0,0,1,.017.642l.086-.638a1.525,1.525,0,0,1-.071.289l.242-.574a1.155,1.155,0,0,1-.1.186l.376-.486a1.026,1.026,0,0,1-.152.15l.485-.375a3.076,3.076,0,0,1-.368.195l.573-.242a2.723,2.723,0,0,1-.62.181l.638-.086a2.472,2.472,0,0,1-.583,0l.638.086c-.22-.031-.435-.084-.655-.114a1.823,1.823,0,0,0-.957-.043,1.8,1.8,0,0,0-.893.285,2.4,2.4,0,0,0-.861,3.284,2.3,2.3,0,0,0,1.435,1.1c.5.067.988.195,1.5.217a4.787,4.787,0,0,0,2.21-.526,3.192,3.192,0,0,0,1.769-2.1,5.276,5.276,0,0,0-.023-2.265c-.253-1.5-.6-2.983-.984-4.452a2.4,2.4,0,1,0-4.629,1.276Z"></path><path class="c" d="M86.415,86.292c-.774,2.516-.269,8.3,4.5,8.8,6.3-.037,6.636-7.036,4.515-10.326C93.691,82.069,88.585,80.948,86.415,86.292Z"></path><path class="c" d="M136.99,86.292c.775,2.516.27,8.3-4.5,8.8-6.3-.038-6.636-7.036-4.515-10.326C129.714,82.069,134.821,80.948,136.99,86.292Z"></path><path class="c" d="M110.7,209.956c-3.16-.083-6.318,1.356-9.2,2.5-3.082,1.23-6.112,2.59-9.065,4.1a2.4,2.4,0,1,0,2.423,4.144c2.583-1.325,5.221-2.544,7.918-3.62,1.375-.548,2.762-1.069,4.162-1.549a10.915,10.915,0,0,1,3.758-.783,2.4,2.4,0,0,0,0-4.8Z"></path><path class="c" d="M82.232,275.772c.533-.717,1.052-1.446,1.576-2.171q.447-.618.9-1.234.2-.276.408-.55c.151-.2.368-.446.083-.112.105-.123.57-.627.178-.289a8.012,8.012,0,0,1,1.15-.744,12.509,12.509,0,0,1,3.636-.724,19.009,19.009,0,0,0,3.987-.711,12.812,12.812,0,0,0,3.836-2.263,14.453,14.453,0,0,0,2.325-2.359c.387-.489.758-.988,1.125-1.491.309-.423.606-.834.82-1.1a2.476,2.476,0,0,0,0-3.394,2.417,2.417,0,0,0-3.394,0c-1.483,1.864-2.3,3.431-4.176,4.877a6.674,6.674,0,0,1-3.12,1.442c-1.289.251-2.654.326-3.979.532a9.174,9.174,0,0,0-5.885,2.964c-1.261,1.594-2.4,3.278-3.612,4.908a2.416,2.416,0,0,0,.861,3.283,2.457,2.457,0,0,0,3.284-.861Z"></path><path class="c" d="M95.478,218.77a8.464,8.464,0,0,0-10.19-1.819,22.937,22.937,0,0,1-2.227,1.413,15.4,15.4,0,0,1-3.069.371c-1.981.327-3.4,1.814-5.377,2.006-4.928.479-8.118,4.529-10.153,8.674-1.793,3.651-3.48,7.352-5.311,10.985-1.917,3.805-3.871,7.591-5.747,11.416a2.461,2.461,0,0,0,.861,3.284,2.423,2.423,0,0,0,3.284-.861c3.028-6.175,6.248-12.253,9.2-18.466,1.59-3.349,3.021-7.931,6.555-9.741a5.592,5.592,0,0,1,2.121-.551,8.385,8.385,0,0,0,3.4-1.059,5.955,5.955,0,0,1,2.064-1c.964-.142,1.919-.066,2.886-.284A7.511,7.511,0,0,0,86.6,221.83a4.548,4.548,0,0,1,2.239-1.072,3.816,3.816,0,0,1,3.243,1.407c2.07,2.3,5.456-1.1,3.394-3.395Z"></path><path class="c" d="M97.541,233.235a33.85,33.85,0,0,1,2.6,7.375,19.652,19.652,0,0,1,.568,3.658,11.557,11.557,0,0,1-.678,2.792c-.309,1.08-.653,2.155-1.068,3.2a5.672,5.672,0,0,1-1.056,1.943c-1.076.966-3.669.766-4.09-.643-.883-2.952-5.518-1.695-4.629,1.276,1.111,3.713,5.414,5.437,8.978,4.491,3.4-.9,4.744-3.786,5.811-6.836a37.622,37.622,0,0,0,1.162-4,13.425,13.425,0,0,0,0-5.178,36.887,36.887,0,0,0-3.458-10.5,2.423,2.423,0,0,0-3.284-.861,2.451,2.451,0,0,0-.861,3.284Z"></path><path class="c" d="M87.246,235.57c.6,1.436,1.29,2.814,1.967,4.213a10.237,10.237,0,0,1,1.022,2.987,14.648,14.648,0,0,1-.525,3.793q-.2.933-.426,1.861c-.072.29-.145.578-.238.862-.037.118-.078.235-.122.351.09-.2.076-.173-.043.083-.108.2-.227.394-.335.593q-.243.345-.009.039c-.089.107-.182.21-.281.309-.143.144-.479.345-.135.139a3.746,3.746,0,0,1-.34.2q.417-.151.032-.014c-.117.03-.7.113-.145.073-.121.009-.94-.06-.43.03a3.125,3.125,0,0,1-1.265-.459c-.1-.058-.554-.442-.182-.1-.139-.129-.516-.693-.238-.2-.089-.157-.184-.306-.261-.471.267.568,0-.178-.036-.314-.122-.48-.023.4-.013-.171,0-.26-.016-.522-.009-.783.013-.476.1-1.358.127-1.58a2.484,2.484,0,0,0-1.677-2.952,2.417,2.417,0,0,0-2.952,1.676c-.318,2.329-.693,5.023.729,7.092a7.227,7.227,0,0,0,6.728,2.967c2.681-.367,4.459-2.463,5.364-4.881a23.349,23.349,0,0,0,.874-3.5,19.957,19.957,0,0,0,.621-4.371c-.086-3.234-1.972-5.863-3.173-8.746a2.48,2.48,0,0,0-2.953-1.676,2.414,2.414,0,0,0-1.676,2.952Z"></path><path class="c" d="M51.254,253.666a33.658,33.658,0,0,0,4.455,10,49.114,49.114,0,0,0,6.752,8.712,17.241,17.241,0,0,0,8.9,5.191,32.521,32.521,0,0,0,9.6.476,2.468,2.468,0,0,0,2.4-2.4,2.416,2.416,0,0,0-2.4-2.4,28.569,28.569,0,0,1-7.986-.24,13.079,13.079,0,0,1-7.413-4.324,44.339,44.339,0,0,1-5.812-7.609,29.333,29.333,0,0,1-3.866-8.685c-.685-3.011-5.314-1.737-4.628,1.276Z"></path><path class="c" d="M152.261,243.458a73.654,73.654,0,0,1,8.252,4.81c2.33,1.612,4.957,3.421,6.453,5.869a27.024,27.024,0,0,1,3.007,8.666,30.958,30.958,0,0,1,.575,10.395,2.483,2.483,0,0,0,1.676,2.952,2.416,2.416,0,0,0,2.952-1.676,37.464,37.464,0,0,0-.448-12.32,32.489,32.489,0,0,0-3.409-10.09c-1.784-3.083-4.66-5.257-7.5-7.316a70,70,0,0,0-9.134-5.434c-2.742-1.412-5.173,2.728-2.423,4.144Z"></path><path class="c" d="M127.48,279.532l-20.307-3.792c-2.15-.4-5.542-.576-5.206-3.643.167-1.521.571-3.052.852-4.555l4.255-22.764L111.65,220.3q1.06-5.673,2.12-11.346c.66-3.532,1.237-7.091,1.981-10.606.43-2.034,1.963-2.738,3.881-2.38l3.553.664,18.259,3.414,11.9,2.224a13.88,13.88,0,0,1,2.7.571,2.883,2.883,0,0,1,1.576,3.348l-4.024,21.533q-1.535,8.211-3.07,16.423l-.864,4.622a2.465,2.465,0,0,0,1.676,2.952,2.42,2.42,0,0,0,2.952-1.676q1.475-7.878,2.946-15.757l4.636-24.807c.15-.8.312-1.6.451-2.41a7.723,7.723,0,0,0-3.807-8.351,12.639,12.639,0,0,0-3.683-1.037l-5.385-1.007-19.213-3.592c-3.349-.626-6.693-1.308-10.052-1.879a7.7,7.7,0,0,0-8.748,4.785,22.771,22.771,0,0,0-.83,3.877q-1.389,7.434-2.777,14.868l-4.167,22.287-4.8,25.691L97.51,269.9c-.083.441-.169.879-.236,1.322a7.625,7.625,0,0,0,5.5,8.547c2.728.717,5.606,1.059,8.375,1.576l12.681,2.368,2.369.442a2.464,2.464,0,0,0,2.952-1.676,2.42,2.42,0,0,0-1.676-2.952Z"></path><path class="c" d="M156.95,249.621q-14.82-9.071-29.8-17.882c-2.406-1.412-5.305-2.336-8.084-1.5-3.587,1.082-5.985,5.4-4.333,8.906,1.045,2.219,3.549,3.719,5.451,5.153,2.333,1.76,4.693,3.486,7.059,5.2,5.3,3.851,10.624,7.7,16.069,11.354,2.573,1.725,4.978-2.431,2.423-4.145-4.347-2.915-8.6-5.973-12.85-9.028q-3.611-2.6-7.2-5.232-1.5-1.105-2.991-2.226c-.4-.3-.8-.609-1.2-.914-.447-.341.113.09-.19-.146-.177-.138-.353-.275-.529-.414-.681-.539-1.7-1.223-1.827-2.011a1.627,1.627,0,0,1,.326-.88,1.965,1.965,0,0,1,.915-.935c1.609-.818,3.395.286,4.763,1.09,4.158,2.445,8.294,4.926,12.432,7.4,5.727,3.429,11.452,6.862,17.146,10.347,2.642,1.617,5.056-2.533,2.423-4.145Z"></path><path class="c" d="M116.688,235.219c-2.718-.615-5.548-.478-7.77,1.369a7.467,7.467,0,0,0-2.327,7.9c1.192,3.58,4.454,6.038,7.37,8.2,5.488,4.08,11.041,8.076,16.591,12.073,2.338,1.683,4.67,3.377,7.036,5.022a2.421,2.421,0,0,0,3.284-.861,2.449,2.449,0,0,0-.861-3.283c-4.4-3.057-8.717-6.227-13.052-9.369q-3.846-2.787-7.681-5.593-1.45-1.062-2.9-2.134-.492-.364-.981-.734c-.121-.09-.24-.183-.361-.272-.395-.294.493.421.08.061-1.453-1.265-4.253-3.3-4.082-5.505.182-2.349,2.545-2.66,4.373-2.246,3.008.681,4.292-3.946,1.276-4.628Z"></path><path class="c" d="M115.584,249.569c-3.819-.426-6.327,3.036-6.221,6.581.085,2.855,2.213,5.154,4.328,6.845,4.1,3.283,8.357,6.387,12.569,9.529q3.281,2.446,6.561,4.89a2.415,2.415,0,0,0,3.284-.861,2.457,2.457,0,0,0-.861-3.284c-3.635-2.717-7.282-5.42-10.912-8.144q-2.836-2.127-5.655-4.279c-.126-.1-.5-.389-.171-.131l-.525-.408q-.45-.351-.9-.706c-.353-.283-.708-.565-1.04-.872-.967-.892-2.1-1.978-1.811-3.4a3.824,3.824,0,0,1,.217-.7c-.229.544.328-.474.052-.071.126-.184.095-.172.211-.207a3.112,3.112,0,0,1,.87.018,2.414,2.414,0,0,0,2.4-2.4,2.457,2.457,0,0,0-2.4-2.4Z"></path><path class="c" d="M112.215,261.818a5.9,5.9,0,0,0-1.253,5.683c.536,2.05,2.02,3.641,3.335,5.237a78.574,78.574,0,0,0,8.02,8.379,93.831,93.831,0,0,0,9.378,7.39c3.293,2.283,6.947,4.4,10.949,5.083a39.888,39.888,0,0,0,11.318.173,2.474,2.474,0,0,0,2.4-2.4,2.415,2.415,0,0,0-2.4-2.4,35.821,35.821,0,0,1-10.582-.1c-4.379-.91-8.136-3.606-11.667-6.219a80.106,80.106,0,0,1-9.628-8.4q-2.3-2.354-4.394-4.9c-.536-.651-3.01-3.121-2.082-4.131,2.087-2.272-1.3-5.675-3.394-3.4Z"></path><path class="c" d="M172.25,269.167a43.479,43.479,0,0,1-7.535,13.891c-3.211,4.111-7.063,7.971-11.742,10.373-2.749,1.412-.323,5.555,2.423,4.145,5.216-2.679,9.529-7.018,13.089-11.609a48.67,48.67,0,0,0,8.394-15.524c.9-2.963-3.736-4.23-4.629-1.276Z"></path><path class="c" d="M129.335,203.366q-3.051-.571-6.1-1.144a2.577,2.577,0,0,0-1.85.242,2.4,2.4,0,0,0-.861,3.283,2.359,2.359,0,0,0,1.435,1.1q3.051.571,6.1,1.144a2.577,2.577,0,0,0,1.85-.242,2.4,2.4,0,0,0,.861-3.284,2.361,2.361,0,0,0-1.435-1.1Z"></path></svg>