<svg id="b" xmlns="http://www.w3.org/2000/svg" width="266.452" height="255.489" viewBox="0 0 266.452 255.489"><defs><style>.g{fill:#fcdc4a;}.g,.h,.i{stroke-width:0px;}.h{fill:#fff;}.i{fill:#211715;}</style></defs><g id="c"><g id="d"><path class="h" d="m209.904,80.594c1.71-1.543,4.245-2.29,6.615-1.935,2.37.354,4.528,1.784,5.613,3.732.766,1.366,1.014,2.922,1.156,4.44.519,5.983-.66,12.08-3.372,17.532-1.321,2.656-3.042,5.199-5.436,7.134-1.838,1.466-3.685,2.299-6.355,1.486,0,0-.348-.106-.954-.288-.586,2.305-1.358,4.313-1.704,5.295-1.99,5.042-13.663,23.672-27.982,28.824.114.862.268,1.846.481,3.043.692,4.076,1.846,8.69,7.267,11.689.323.102,5.88,2.739,7.557,3.512-9.112,6.328-23.716,11.176-38.882,11.22-15.158-.045-29.757-4.888-38.861-11.217,1.68-.769,7.222-3.404,7.562-3.506,5.402-2.999,6.556-7.613,7.267-11.689.254-1.442.426-2.551.511-3.503-6.093-2.902-11.726-7.404-16.694-12.954-5.989-6.691-9.626-13.853-11.785-20.029-.892.241-1.41.381-1.41.381-3.019.813-5.325-.797-7.163-2.264-2.394-1.935-4.115-4.478-5.436-7.134-2.712-5.452-3.891-11.549-3.372-17.532.141-1.518.389-3.074,1.156-4.44,1.085-1.948,3.243-3.377,5.613-3.732,2.37-.354,4.905.392,6.615,1.935,0,0-11.583-53.135,55.997-53.135s55.997,53.135,55.997,53.135Z"></path><path class="h" d="m254.187,203.856c6.624,15.017,8.399,32.538,9.858,49.233H43.767c1.942-22.273,4.443-46.015,18.237-63.323,4.756-5.968,10.722-10.916,17.406-14.434,5.129-2.7,10.646-5.169,16.125-7.008,6.039-2.027,12.125-3.287,18.419-4.058,8.994,6.716,24.169,11.964,39.951,12.011,15.837-.047,31.062-5.331,40.049-12.075,6.335.738,12.337,2.282,18.33,4.288,5.495,1.839,10.867,4.143,16.012,6.843,6.704,3.518,12.688,8.466,17.458,14.434,3.465,4.335,6.219,9.073,8.432,14.09Z"></path><path class="h" d="m49.595,121.499c-1.714,1.071-3.32,1.49-4.77,1.245-.857-.144-1.64-.444-2.328-.892-2.451-1.594-4.995-5.436-7.163-10.819-2.788-6.924-1.244-11.673.544-17.173.418-1.287.851-2.617,1.233-4.004.817-2.852.38-5.692-1.231-7.99-1.511-2.154-3.937-3.545-6.49-3.721-2.256-.267-4.655.295-6.72,1.585s-3.638,3.226-4.313,5.31c-1.318,3.442-1.179,7.006-.868,10.034.079.769.062,2.272-.943,3.706-.545.778-1.338,1.514-2.234,2.074-.986.616-2.062,1.007-3.11,1.129-2.811.327-4.977-.984-6.62-4.008-1.73-3.185-2.479-7.07-2.108-10.939.727-7.587,5.918-15.439,13.224-20.004,4.151-2.594,10.838-5.271,19.122-3.295,5.84,1.393,11.205,5.362,14.352,10.617,2.871,4.796,3.703,10.276,2.344,15.43-.858,3.253-1.662,5.628-2.371,7.722-.419,1.237-.78,2.305-1.092,3.375-.758,2.597-.422,5.641.878,7.944l.55.968c.893,1.566,1.665,2.919,2.336,4.505.372.88.613,2.382.312,3.755-.302,1.374-1.224,2.631-2.531,3.448Z"></path><path class="h" d="m61.612,141.724c-2.093,1.308-4.617,1.541-6.75.621-3.344-1.628-4.603-5.178-4.101-7.837.326-1.722,1.436-3.251,3.21-4.421l.13-.084c.83-.519,3.768-2.11,6.734-.818,3.149,1.373,4.931,5.335,3.89,8.653-.488,1.555-1.594,2.935-3.113,3.885Z"></path><path class="h" d="m131.952,139.384c9.017-3.519,22.063-2.887,28.079,5.542.932,1.307,1.643,2.938,1.488,4.683-.183,2.059-1.814,4.435-3.782,4.446l-1.717.009c.762.423,1.523.846,1.523.846,1.155.642,2.129,1.247,3.026,2.218,2.152,2.332,2.546,5.019.92,7.561-.406.635-.91,1.228-1.564,1.601-1.51.861-2.947.675-4.314.071,1.203,1.58,2.225,2.922,2.225,2.922,1.585,2.082,1.376,4.694-.047,6.441-1.354,1.661-3.965,1.835-6.124,1.194,1.464,3.676-.855,8.115-4.39,9.598-3.016,1.265-5.953-1.181-8.868-.03-2.2.869-2.879,3.441-4.632,4.832-1.569,1.245-3.777,1.757-5.736,1.817-4.236.132-8.833-1.776-11.812-4.775-5.338-5.374-5.07-13.411-4.354-20.421,1.357-13.273,7.518-23.893,20.395-28.675"></path><g id="e"><path class="g" d="m91.991,54.296c2.925-20.096,14.652-32.915,25.126-40.427,9.975-7.154,22.439-11.423,37.118-11.423,7.436,0,14.871,1.11,21.91,3.593,3.184,1.123,6.275,2.516,9.242,4.144,4.07,2.234,8.562,5.262,10.582,7.018,1.266,1.1,3.127,2.909,4.351,4.147,3.04,3.073,5.753,6.483,8.043,10.174,5.464,8.807,8.286,19.021,8.741,29.403.287,6.548-.219,12.146-1.072,17.266l-.07.417c-2.203-.182-4.481.564-6.058,1.987-2.571,1.375-5.292,1.748-7.212.734-.719-.379-2.472-1.387-2.521-4.258-1.266-8.887-5.163-17.523-11.284-25.051-2.143-2.482-5.877-6.002-8.904-6.934,0,0-.634-.195-1.659-.494-3.624,1.732-7.396,3.272-11.283,4.606-2.911.999-6.763,1.74-8.89-.113-2.015-1.756-1.194-4.937-3.592-6.365-1.622-.966-3.923-.618-5.862-.133-20.505,5.129-32.855,17.588-40.466,33.4-1.606,3.529-4.231,5.205-7.011,5.307-.854.032-2.703-.249-3.31-.699-1.33-1.201-3.16-1.919-5.023-1.999.378,3.686-1.863-9.751-1.516-17.671.1-2.292.311-4.501.621-6.628Z" style="fill: rgb(121, 211, 241);"></path></g></g><g id="f"><path class="i" d="m226.63,253.095c.152-12.915.31-25.831.576-38.744.064-3.09-4.736-3.09-4.8,0-.266,12.913-.423,25.829-.576,38.744-.036,3.09,4.764,3.092,4.8,0h0Z"></path><path class="i" d="m46.163,253.087c1.326-15.119,2.796-30.533,8.215-44.834,2.593-6.844,6.24-13.395,11.093-18.899,5.378-6.1,11.891-10.461,19.174-13.976,8.997-4.342,18.454-7.21,28.347-8.597,1.285-.18,1.988-1.819,1.676-2.952-.38-1.383-1.663-1.857-2.952-1.676-9.118,1.278-17.833,3.825-26.241,7.571-7.838,3.491-15.161,7.775-21.232,13.916-11.306,11.438-16.8,26.956-19.613,42.491-1.614,8.912-2.476,17.941-3.266,26.957-.113,1.293,1.184,2.4,2.4,2.4,1.393,0,2.286-1.103,2.4-2.4h0Z"></path><path class="i" d="m189.109,166.196c8.952.466,17.713,2.728,26.084,5.864,8.053,3.017,16.005,6.878,22.463,12.644,12.023,10.734,17.724,26.01,20.665,41.491,1.688,8.883,2.535,17.894,3.323,26.893.113,1.291,1.022,2.4,2.4,2.4,1.211,0,2.514-1.101,2.4-2.4-1.455-16.621-3.074-33.661-9.642-49.178-3.282-7.754-7.861-14.961-13.899-20.867-6.567-6.424-14.505-10.734-22.93-14.228-9.803-4.065-20.238-6.867-30.865-7.419-3.087-.161-3.078,4.64,0,4.8h0Z"></path><path class="i" d="m157.333,178.587c13.657-.728,27.97-4.663,38.907-13.143,1.025-.795.835-2.559,0-3.394-1.012-1.012-2.366-.797-3.394,0-4.509,3.496-9.872,5.98-15.245,7.815-6.541,2.234-13.367,3.554-20.268,3.922-3.073.164-3.092,4.965,0,4.8h0Z"></path><path class="i" d="m175.169,147.456c.618,4.546,1.473,9.084,4.519,12.689.839.993,1.843,1.828,2.902,2.577.629.445,1.283.858,2.003,1.137.256.099-.489-.219-.429-.184.087.051.19.083.282.125,1.288.59,2.571,1.192,3.854,1.795,1.236.58,2.461,1.2,3.718,1.733,1.192.506,2.571.357,3.284-.861.589-1.007.339-2.775-.861-3.284-2.345-.994-4.621-2.168-6.933-3.235-.487-.225-1.118-.406-1.564-.689.024.015.346.173-.046-.103-.248-.174-.514-.322-.764-.494-.445-.308-.722-.546-1.153-.957-.853-.816-1.184-1.243-1.738-2.184-.241-.41-.452-.834-.654-1.264-.183-.39.025.118-.115-.286-.088-.253-.184-.503-.267-.758-.741-2.264-1.088-4.679-1.408-7.032-.175-1.286-1.822-1.987-2.952-1.676-1.387.381-1.852,1.663-1.676,2.952h0Z"></path><path class="i" d="m211.601,82.291c2.409-2.058,6.484-1.674,8.278,1.007,1,1.494,1.057,3.55,1.111,5.285.062,1.977-.038,3.973-.374,5.924-.675,3.924-2.033,7.754-4.165,11.128-1.623,2.568-4.29,5.973-7.689,5.032-2.982-.825-4.254,3.805-1.276,4.629,8.542,2.364,14.171-7.705,16.451-14.39,1.341-3.933,1.984-8.169,1.853-12.323-.133-4.225-1.056-8.258-4.773-10.728-3.99-2.651-9.257-1.994-12.81,1.041-.986.842-.866,2.528,0,3.394.977.977,2.405.844,3.394,0h0Z"></path><path class="i" d="m205.512,107.829c-.082,2.299-.675,4.535-1.381,6.714-.254.784-.532,1.559-.81,2.335-.082.229-.176.455-.256.685.207-.593.053-.133-.081.152-1.043,2.228-2.351,4.342-3.708,6.39-3.924,5.919-8.702,11.619-14.441,15.889-3.359,2.499-7.044,4.522-11.161,5.406-3.019.648-1.741,5.277,1.276,4.629,8.076-1.734,14.957-7.301,20.442-13.236,4.474-4.84,8.679-10.364,11.575-16.316,1.879-3.862,3.193-8.358,3.346-12.647.11-3.089-4.69-3.085-4.8,0h0Z"></path><path class="i" d="m99.606,78.897c-3.268-2.792-7.755-3.514-11.678-1.671-3.971,1.865-5.48,5.683-5.82,9.823-.678,8.271,1.789,17.41,7.171,23.816,2.919,3.475,7.164,6.309,11.856,5.21,3.006-.704,1.734-5.334-1.276-4.629-3.245.76-6.42-2.745-8.048-5.126-2.321-3.395-3.789-7.349-4.537-11.379-.362-1.95-.496-3.936-.462-5.918.032-1.853.051-4.123,1.122-5.724,1.794-2.683,5.869-3.065,8.278-1.007.985.841,2.427.967,3.394,0,.862-.862.99-2.549,0-3.394h0Z"></path><path class="i" d="m97.488,106.385c3.21,15.712,12.812,29.921,26.103,38.874,2.569,1.731,4.974-2.426,2.423-4.145-12.293-8.281-20.939-21.524-23.897-36.006-.26-1.271-1.763-2.003-2.952-1.676-1.321.363-1.937,1.678-1.676,2.952h0Z"></path><path class="i" d="m218.345,78.828c2.743-16.667,1.027-34.369-8.149-48.899-8.741-13.841-23.122-23.944-38.987-27.869-15.94-3.944-33.608-2.261-48.213,5.37-10.888,5.69-20.343,14.767-26.325,25.506-3.515,6.309-5.869,13.258-6.946,20.397-1.102,7.303-.798,14.502.142,21.802.159,1.235.325,2.469.526,3.698.209,1.28,1.798,1.993,2.952,1.676,1.36-.374,1.886-1.668,1.676-2.952-.912-5.574-1.547-11.827-1.195-17.722.415-6.954,1.988-13.924,4.873-20.281,4.643-10.23,12.46-18.967,21.646-24.998,12.586-8.264,28.137-11.129,42.977-9.137,8.275,1.111,16.13,3.954,23.285,8.233,2.829,1.692,5.706,3.477,8.165,5.689,2.761,2.484,5.393,5.149,7.733,8.034,10.246,12.63,13.457,29.134,11.895,45.036-.169,1.722-.403,3.434-.684,5.141-.21,1.277.334,2.583,1.676,2.952,1.147.315,2.741-.39,2.952-1.676h0Z"></path><path class="i" d="m182.385,39.804c-3.394,1.867-6.886,3.564-10.476,5.02-3.088,1.252-6.576,2.956-9.973,2.998-1.075.013-2.167-.14-2.658-1.203-.529-1.147-.677-2.478-1.289-3.627-1.896-3.559-6.081-3.611-9.539-2.815-12.063,2.778-23.36,9.195-31.621,18.44-4.323,4.838-7.85,10.325-10.672,16.158-.564,1.166-.319,2.594.861,3.284,1.052.615,2.717.311,3.284-.861,4.835-9.992,11.794-18.854,21.248-24.836,5.249-3.321,10.998-5.688,16.999-7.26,1.314-.344,3.164-.991,4.506-.443.934.382,1.032,1.464,1.301,2.357,1.008,3.354,3.317,5.352,6.862,5.589,3.945.263,7.958-1.545,11.533-2.976,4.129-1.653,8.159-3.534,12.057-5.678,2.707-1.489.288-5.636-2.423-4.145h0Z"></path><path class="i" d="m96.698,82.666c1.092.744,2.706.931,3.982,1.014,1.172.076,2.426-.134,3.52-.56,2.775-1.081,4.858-3.235,6.103-5.924.526-1.137.359-2.639-.861-3.284-1.059-.56-2.721-.355-3.284.861-.258.557-.546,1.099-.884,1.611-.086.131-.177.258-.267.387-.249.356.241-.283.05-.063-.177.204-.348.411-.537.605-.181.186-.37.363-.567.531-.296.252-.046,0,.111-.074-.109.052-.229.167-.33.235-.201.135-.409.26-.622.375-.096.051-.192.101-.29.148-.233.112-.454.083.102-.036-.448.096-.885.281-1.339.379-.403.087.499-.045.202-.022-.105.008-.209.022-.314.03-.224.016-.448.019-.673.009-.212-.01-.426-.052-.637-.056.686.013.291.04.087.004-.115-.02-.23-.043-.344-.067-.237-.051-.473-.109-.704-.185-.405-.134-.005-.126.155.077-.043-.055-.177-.099-.235-.139-1.04-.709-2.707-.231-3.284.861-.643,1.217-.249,2.527.861,3.284h0Z"></path><path class="i" d="m197.771,77.072c.075,2.609,1.265,4.995,3.599,6.269,3.106,1.696,6.767.891,9.745-.675,1.113-.585,1.542-2.228.861-3.284-.73-1.133-2.093-1.487-3.284-.861-.164.086-.327.171-.494.251-.089.043-.647.332-.088.053-.284.142-.607.235-.91.33-.297.094-.597.175-.901.24-.145.031-.346.04-.485.091.345-.042.425-.053.239-.032-.079.009-.158.017-.237.023-.282.023-.565.03-.848.02-.125-.005-.249-.017-.373-.024-.503-.028.51.106.059.001-.14-.033-.279-.061-.417-.1-.107-.03-.302-.147-.401-.133.125-.017.516.241.128.044-.058-.029-.115-.06-.173-.091-.213-.116-.406-.257-.61-.385s.549.465.234.176c-.053-.048-.108-.094-.16-.143-.106-.1-.328-.268-.379-.408.046.125.379.527.136.159-.049-.075-.096-.151-.14-.228-.056-.097-.098-.204-.156-.299-.142-.234.199.566.081.187-.079-.253-.151-.503-.208-.762-.099-.447.026.57.005.056-.007-.16-.02-.318-.025-.478-.036-1.254-1.078-2.459-2.4-2.4-1.269.057-2.439,1.056-2.4,2.4h0Z"></path><path class="i" d="m179.344,47.399c2.495.83,4.643,2.942,6.438,4.785,2.129,2.187,3.887,4.724,5.469,7.326,3.304,5.436,5.535,11.397,6.539,17.682.205,1.281,1.802,1.992,2.952,1.676,1.364-.375,1.881-1.668,1.676-2.952-1.108-6.942-3.737-13.625-7.48-19.567-1.818-2.887-3.861-5.692-6.294-8.094-2.294-2.265-4.925-4.453-8.025-5.485-2.938-.977-4.198,3.657-1.276,4.629h0Z"></path><path class="i" d="m154.105,100.067c.469,1.789.919,3.605,1.188,5.436l-.086-.638c.032.251.046.498.02.75l.086-.638c-.018.117-.043.226-.083.337l.242-.573c-.035.079-.071.146-.119.217l.375-.486c-.056.068-.109.12-.178.175l.486-.375c-.137.088-.282.16-.43.228l.573-.242c-.237.099-.472.171-.726.212l.638-.086c-.229.027-.452.025-.681-.001l.638.086c-.257-.036-.509-.098-.766-.133-.67-.09-1.239-.115-1.849.242-.498.291-.973.862-1.103,1.434-.14.614-.11,1.304.242,1.849.312.484.835,1.022,1.434,1.103.55.074,1.084.215,1.644.24.84.037,1.626-.217,2.378-.559.92-.419,1.636-1.225,1.881-2.217.207-.838.116-1.593-.026-2.432-.296-1.751-.701-3.487-1.151-5.205-.318-1.214-1.729-2.072-2.952-1.676-1.25.404-2.018,1.651-1.676,2.952h0Z"></path><path class="i" d="m125.314,85.883c-.888,2.884-.309,9.518,5.155,10.083,7.221-.043,7.605-8.064,5.175-11.835-1.99-3.088-7.843-4.372-10.329,1.753Z"></path><path class="i" d="m182.903,85.883c.888,2.884.309,9.518-5.154,10.083-7.221-.043-7.606-8.064-5.175-11.836,1.99-3.088,7.842-4.372,10.329,1.753Z"></path><path class="i" d="m48.384,119.427c-1.315.787-2.664,1.328-4.141.658-.645-.293-.766-.427-1.281-.91-.452-.424-.881-.886-1.268-1.371-2.265-2.842-4.01-6.573-4.941-10.068-.865-3.248-.563-6.446.327-9.649,1.025-3.691,2.98-7.506,2.821-11.405s-2.271-7.541-5.667-9.488c-3.332-1.911-7.495-1.927-10.983-.445-3.689,1.567-6.21,4.563-7.446,8.329-.654,1.992-.911,4.145-.925,6.236-.011,1.577.448,3.326.204,4.879-.414,2.638-4.316,4.275-6.418,2.968-2.698-1.677-3.681-6.087-3.851-9.011-.394-6.783,3.072-13.205,7.889-17.78,4.616-4.384,10.749-7.116,17.173-6.905,6.874.225,13.38,3.918,17.023,9.773,1.99,3.198,3.022,6.863,2.826,10.634-.181,3.48-1.533,6.954-2.638,10.233-1.264,3.755-2.474,7.341-1.321,11.312.371,1.278.988,2.436,1.641,3.585.852,1.499,2.091,3.199,2.399,4.929.254,1.428-.217,2.689-1.422,3.495-2.555,1.709-.154,5.869,2.423,4.145,3.88-2.596,4.679-7,2.8-11.122-1.437-3.153-3.896-5.877-3.521-9.557.191-1.873,1.032-3.737,1.63-5.511.602-1.79,1.177-3.588,1.689-5.406,1.189-4.22,1.534-8.447.416-12.732-2.043-7.826-8.198-14.121-15.667-16.985-7.359-2.821-15.764-1.777-22.555,2.04-6.621,3.721-11.941,9.985-14.371,17.194-1.313,3.896-1.582,8.09-.758,12.119.756,3.698,2.631,8.1,6.175,9.916,3.667,1.879,8.289.605,11.017-2.339,1.423-1.536,2.283-3.516,2.256-5.628-.026-2.02-.339-3.984-.159-6.016.339-3.823,2.185-7.424,6.038-8.654,3.336-1.065,7.027.012,8.656,3.255,1.785,3.553-.52,7.796-1.581,11.242-1.145,3.722-1.771,7.468-1.207,11.352.611,4.209,2.584,8.463,4.871,12.024,1.984,3.089,4.596,6,8.459,6.401,2.061.214,4.071-.552,5.813-1.595,2.648-1.585.237-5.737-2.423-4.145Z"></path><path class="i" d="m60.401,139.651c-.203.123-.414.23-.619.35-.054.031-.419.196-.065.047-.35.148-.726.259-1.096.345-.148.034-.296.063-.446.09.52-.092-.196.008-.259.011-.371.017-.748.01-1.117-.036.54.068-.179-.056-.239-.07-.144-.035-.288-.076-.43-.121.006.002-.622-.275-.333-.118.295.16-.287-.178-.272-.169-.116-.069-.231-.141-.343-.215-.004-.003-.511-.395-.237-.163s-.2-.187-.202-.189c-.14-.129-.274-.264-.404-.404-.106-.115-.204-.236-.307-.354-.237-.273.285.469-.011-.032-.154-.261-.323-.508-.462-.779-.054-.106-.103-.215-.156-.321.248.496.057.15.009.002-.097-.303-.197-.601-.267-.912-.03-.135-.041-.283-.081-.416-.099-.331.031.6.013.059-.009-.272-.03-.54-.02-.812.004-.106.015-.211.019-.317.018-.509-.143.38-.016.098.133-.294.174-.695.274-1.012-.151.476-.032.078.035-.054.075-.148.156-.293.243-.434.071-.115.148-.225.222-.337-.291.442.084-.098.14-.161.216-.241.448-.468.692-.681.077-.067.458-.355.131-.118.147-.107.296-.21.448-.308.305-.195.625-.356.947-.521.169-.087.371-.287-.053.013.078-.055.237-.093.333-.127.369-.132.747-.242,1.13-.321.136-.028.276-.056.414-.075-.564.078.164.009.234.007.152-.004.302.005.454.004.68-.007-.218-.082.178.006.364.08.725.161,1.073.298-.438-.173.116.074.17.104.164.09.317.194.477.29.363.219.036.013-.036-.045.145.117.286.239.421.367.205.193.382.409.574.613.251.267-.302-.464.022.036.068.105.14.208.206.314.1.16.193.323.281.49.062.118.288.645.076.111.128.322.238.649.325.985.039.152.068.307.104.46.14.596-.021-.502.018.108.022.345.035.687.015,1.033-.009.155-.09.57.016.016-.035.186-.067.37-.113.554-.039.156-.084.309-.134.461-.031.097-.065.193-.103.288.112-.258.11-.262-.007-.011-.173.301-.338.599-.533.887.29-.429-.103.117-.152.172-.143.159-.294.312-.45.458-.106.099-.215.193-.325.287.359-.308-.328.22-.408.272-1.054.679-1.584,2.162-.861,3.284.68,1.054,2.155,1.588,3.284.861,3.553-2.288,5.376-6.349,4.255-10.497-1.05-3.888-4.479-6.971-8.6-7.007-3.528-.031-7.167,2.009-9.009,5.008s-1.491,7.056.513,9.894c1.32,1.87,3.242,3.389,5.518,3.87,2.525.534,5.117.065,7.322-1.268,1.074-.649,1.571-2.183.861-3.284-.696-1.079-2.134-1.556-3.284-.861Z"></path><path class="i" d="m131.63,136.951c-6.63,2.501-12.321,6.685-16.218,12.657-3.822,5.858-5.441,12.728-6.063,19.612-.676,7.491-.236,15.966,5.739,21.372,5.681,5.139,16.693,7.712,21.961.653.937-1.256,1.599-2.731,3.366-2.669,2.178.077,4.145.968,6.37.569,4.575-.819,7.773-5.685,7.722-10.129-.035-3.087-4.835-3.095-4.8,0,.03,2.601-1.997,5.686-4.867,5.455-1.671-.135-3.273-.782-4.974-.694-1.804.093-3.467.806-4.73,2.107-1.01,1.04-1.622,2.452-2.7,3.421-1.016.913-2.505,1.302-3.841,1.401-3.331.247-6.734-.881-9.385-2.895-5.343-4.058-5.621-11.17-5.169-17.294.431-5.842,1.603-11.692,4.513-16.839,3.199-5.658,8.286-9.811,14.351-12.099,1.212-.457,2.042-1.62,1.676-2.952-.32-1.163-1.733-2.136-2.952-1.676h0Z"></path><path class="i" d="m157.737,156.455c3.79-.258,6.398-4.051,6.19-7.708-.201-3.541-2.633-6.643-5.319-8.777-4.855-3.859-11.204-5.283-17.319-4.959-3.401.18-6.793.838-9.976,2.059-1.21.464-2.044,1.615-1.676,2.952.318,1.157,1.736,2.143,2.952,1.676,5.494-2.107,11.748-2.652,17.419-.916,2.693.824,5.172,2.241,7.09,4.321,1.007,1.092,2.082,2.513,2.041,4.072-.02.749-.609,2.425-1.403,2.48-1.293.088-2.4,1.04-2.4,2.4,0,1.231,1.1,2.489,2.4,2.4h0Z"></path><path class="i" d="m143.793,152.406c2.845.572,5.842,1.387,8.405,2.507,1.272.556,2.512,1.183,3.73,1.848,1.187.648,2.365,1.294,3.22,2.368.754.948,1.082,1.99.889,2.924-.207.999-.846,2.011-1.557,2.289-.156.061-.36.116-.53.142.057-.009.264-.036-.016-.013-.048.004-.575-.014-.325.01.216.02-.193-.038-.191-.038-.684-.147-.878-.26-1.521-.626-1.117-.636-2.129-1.434-3.212-2.123-2.979-1.896-6.613-2.846-10.073-3.368-1.28-.193-2.58.322-2.952,1.676-.312,1.134.387,2.758,1.676,2.952,3.318.5,6.671,1.347,9.478,3.248,2.724,1.844,5.769,3.969,9.21,2.667,3.723-1.409,5.773-6.066,4.465-9.808s-4.621-5.74-8-7.419c-3.632-1.805-7.445-3.066-11.418-3.865-1.27-.255-2.592.365-2.952,1.676-.325,1.183.399,2.696,1.676,2.952h0Z"></path><path class="i" d="m155.763,170.494c.555.77.779,1.335.777,2.004,0,.108-.046.585.004.267-.039.25-.113.51-.196.748.111-.316-.433.748-.257.513-.409.548-.718.676-1.562.818-.168.031-.166.03.006-.003l-.258.015c-.217-.005-.434.006-.651-.004-.399-.019-.494-.029-1.045-.172-1.903-.492-3.565-1.679-5.352-2.495-2.351-1.074-4.799-1.825-7.405-1.834-3.089-.01-3.093,4.79,0,4.8,5.277.018,9.147,4.733,14.453,4.504,2.651-.114,5.08-1.36,6.266-3.816,1.211-2.507,1.004-5.498-.635-7.77-.757-1.05-2.089-1.56-3.284-.861-1.037.606-1.624,2.227-.861,3.284h0Z"></path><path class="i" d="m165.014,122.789c-2.655-2.599-6.843-3.368-10.409-3.366s-7.755.766-10.411,3.366c-.926.907-.91,2.485,0,3.394.928.928,2.465.909,3.394,0,.101-.098.57-.456.225-.219-.352.242.282-.184.409-.262.226-.139.458-.267.695-.386.159-.08.321-.154.484-.227-.308.139-.182.072.057-.013,1.851-.656,3.234-.852,5.147-.853,1.869-.001,3.255.164,5.055.818.08.029.693.294.151.048.136.062.272.123.405.189.263.129.522.27.772.424.057.035.568.321.558.378-.007.036-.482-.422-.135-.092.069.066.141.129.209.195.926.907,2.471.923,3.394,0,.912-.912.929-2.484,0-3.394h0Z"></path></g></g></svg>