<svg id="b" xmlns="http://www.w3.org/2000/svg" width="290.796" height="273.478" viewBox="0 0 290.796 273.478"><defs><style>.g{fill:#fcdc4a;}.g,.h,.i{stroke-width:0px;}.h{fill:#fff;}.i{fill:#211715;}</style></defs><g id="c"><g id="d"><path class="h" d="m192.489,86.827c1.71-1.543,4.245-2.29,6.615-1.935s4.528,1.784,5.613,3.732c.766,1.366,1.014,2.922,1.156,4.44.519,5.983-.66,12.08-3.372,17.532-1.321,2.656-3.042,5.199-5.436,7.134-1.838,1.466-3.685,2.299-6.355,1.486,0,0-.35-.106-.954-.289-.586,2.305-1.358,4.313-1.704,5.296-1.982,5.022-13.568,23.519-27.806,28.76.112.852.265,1.848.476,3.053.691,4.071,1.843,8.68,7.259,11.675.365.115,7.431,3.476,7.988,3.706l1.901.787c-.299.178-.598.356-.598.356-.568.338-.987.538-1.517.849-10.157,5.957-25.383,9.295-38.443,9.589-13.075-.298-28.384-3.646-38.53-9.63-.588-.347-.96-.561-1.51-.951,0,0-.42-.299-.841-.598l.994-.398c.576-.23,7.624-3.591,8.008-3.706,5.396-2.996,6.548-7.604,7.259-11.675.24-1.36.406-2.423.497-3.342-6.176-2.898-11.883-7.441-16.91-13.056-5.989-6.691-9.626-13.853-11.785-20.029-.891.241-1.41.381-1.41.381-3.019.813-5.325-.797-7.163-2.264-2.394-1.935-4.115-4.478-5.436-7.134-2.712-5.452-3.891-11.549-3.372-17.532.141-1.518.389-3.074,1.156-4.44,1.085-1.948,3.243-3.377,5.613-3.732,2.37-.354,4.905.392,6.615,1.935,0,0-3.669-53.134,55.997-53.134s55.997,53.134,55.997,53.134Z"></path><path class="h" d="m117.014,208.163c-4.568,1.939-7.172,5.042-9.117,10.124-3.865,10.907,2.696,21.154-3.285,31.202-.757,1.271-1.749,2.517-1.836,3.94-.073,1.199.515,2.348,1.117,3.434,2.31,4.171,5.008,8.187,8.061,11.998,1.011,1.263,2.816,1.555,4.156.648l14.09-9.534,7.973-4.998c5.573,7.277,16.865,10.004,28.213,9.534,2.405-5.577,4.001-9.979,4.858-14.776-4.501-4.887-7.198-10.939-7.689-17.125-.294-3.7.187-7.412.196-11.12.007-2.594-.218-5.187-.671-7.752-.767-4.346-2.447-8.936-6.613-11.542-2.69-1.683-6.113-2.321-9.452-2.419-3.339-.098-6.683.161-10.017.344-2.295.126-4.648.301-6.747,1.098-2.139.812-3.942,2.67-3.568,4.648-3.98.499-7.128,1.217-9.668,2.296Z"></path><path class="h" d="m37.259,248.26c1.75-19.54,4-40.37,16.42-55.55,4.29-5.24,9.66-9.58,15.68-12.66,4.62-2.37,9.57-4,14.51-5.61,3.83-1.255,7.707-2.514,11.643-3.38,1.863,1.496,2.228,1.694,3.268,2.307,10.147,5.985,25.456,9.333,38.53,9.63,13.06-.294,28.286-3.632,38.443-9.589,1.004-.589,1.612-.783,3.587-2.267,3.82.862,7.584,2.084,11.308,3.299,4.94,1.61,9.89,3.24,14.51,5.61,6.02,3.08,11.39,7.42,15.68,12.66,12.42,15.18,14.67,36.01,16.42,55.55"></path><g id="e"><path class="g" d="m215.909,55.74c-.86-1.76-1.86-4.7-2.18-6.32-1.69-8.79-.23-18.11-2.67-26.73-2.92-10.34-9.64-16.6-18.98-19.28-9.95-2.86-23.03.23-26.65,11.03l-.195.568c-2.117-1.032-4.287-1.953-6.505-2.736-7.039-2.483-14.474-3.593-21.91-3.593-14.679,0-27.143,4.269-37.118,11.423-10.793,7.741-22.917,21.118-25.368,42.285-.179,1.548-.307,3.138-.378,4.77-.347,7.922,1.896,21.364,1.516,17.668,1.758.078,3.484.723,4.787,1.806,3.782-.672,9.908-4.152,12.667-5.716,16.667-9.444,29.222-17.444,40.403-27.051-.989,2.696-2.68,5.698-4.094,8.598-1.107,2.269.826,4.794,3.314,4.365,9.913-1.708,17.928-8.099,25.002-15.884,3.208,9.292,9.437,16.544,17.434,23.677,7.052,6.291,13.716,9.55,18.128,11.704,1.523-1.093,3.508-1.645,5.436-1.496.044-.262.068-.406.068-.406.853-5.12,1.359-10.718,1.072-17.266-.186-4.256-.778-8.482-1.779-12.597,3.89,1.47,8.19,2.36,13.169,2.75,1.47.11,5.53-.16,4.83-1.57Z" style="fill: rgb(95, 196, 230);"></path><path class="g" d="m20.499,115.473c-.214.92-1.515.936-1.752.022-.991-3.82-2.529-8.383-4.865-11.103-2.85-3.318-6.968-4.727-10.785-5.547-.948-.204-.944-1.562.004-1.763,3.78-.801,7.947-2.212,10.718-5.203,2.638-2.847,4.127-8.576,4.961-12.463.202-.942,1.538-.957,1.761-.021.928,3.887,2.581,9.632,5.224,12.483,2.744,2.96,6.709,4.373,10.373,5.178.951.209.942,1.573-.013,1.764-3.913.784-8.203,2.127-11.051,5.444-2.335,2.719-3.677,7.353-4.575,11.206Z" style="fill: rgb(95, 196, 230);"></path><path class="g" d="m241.782,144.781c-.214.92-1.515.936-1.752.022-.991-3.82-2.529-8.383-4.865-11.103-2.85-3.318-6.968-4.727-10.785-5.547-.948-.204-.944-1.562.004-1.763,3.78-.801,7.947-2.212,10.718-5.203,2.638-2.847,4.127-8.576,4.961-12.463.202-.942,1.538-.957,1.761-.021.928,3.887,2.581,9.632,5.224,12.483,2.744,2.96,6.709,4.373,10.373,5.178.951.209.942,1.573-.013,1.764-3.913.784-8.203,2.127-11.051,5.444-2.335,2.719-3.677,7.353-4.575,11.206Z" style="fill: rgb(95, 196, 230);"></path><path class="g" d="m276.54,101.83c-.155.667-1.099.679-1.271.016-.719-2.771-1.835-6.082-3.529-8.055-2.068-2.407-5.055-3.429-7.825-4.024-.687-.148-.685-1.133.003-1.279,2.742-.581,5.766-1.605,7.776-3.775,1.914-2.065,2.994-6.222,3.599-9.042.147-.683,1.116-.694,1.278-.015.674,2.82,1.873,6.988,3.79,9.057,1.99,2.148,4.867,3.173,7.526,3.757.69.152.683,1.141-.01,1.28-2.839.569-5.951,1.543-8.018,3.95-1.694,1.972-2.668,5.334-3.319,8.13Z" style="fill: rgb(95, 196, 230);"></path></g></g><g id="f"><path class="i" d="m167.743,15.078c1.964-5.675,7.219-8.874,12.892-9.926,5.878-1.09,12.143.266,17.292,3.348,5.654,3.384,9.263,8.983,10.941,15.275,2.351,8.815.513,18.157,2.708,26.988.233.937.532,1.859.855,2.769.191.539.394,1.073.61,1.602.133.325.369,1.373.659,1.531-.268-.146.857-2.599.313-1.109.563-.886.628-1.182.193-.887l.178-.078c-.283-.015-.681.19-.976.241-.366.063-1.197.112-1.838.1-4.388-.089-8.926-1.16-13.023-2.684-1.215-.452-2.63.504-2.952,1.676-.369,1.343.457,2.499,1.676,2.952,4.387,1.632,9.134,2.573,13.808,2.836,2.71.152,8.405-.52,7.144-4.608-.278-.902-.778-1.771-1.1-2.664-.366-1.017-.705-2.051-.958-3.103-.534-2.223-.703-4.543-.838-6.819-.307-5.17-.219-10.352-.939-15.491-1.161-8.291-4.982-16.054-11.759-21.134-5.776-4.329-13.423-6.492-20.608-5.744-8.404.875-16.048,5.396-18.907,13.656-1.013,2.925,3.623,4.182,4.629,1.276h0Z"></path><path class="i" d="m200.931,85.061c2.743-16.667,1.027-34.369-8.149-48.899-8.741-13.841-23.122-23.944-38.987-27.869-15.94-3.944-33.608-2.261-48.213,5.37-10.888,5.69-20.343,14.767-26.325,25.506-3.515,6.309-5.869,13.258-6.946,20.397-1.102,7.303-.798,14.502.142,21.802.159,1.235.325,2.469.526,3.698.209,1.28,1.798,1.993,2.952,1.676,1.36-.374,1.886-1.668,1.676-2.952-.912-5.574-1.547-11.827-1.195-17.722.415-6.954,1.988-13.924,4.873-20.281,4.643-10.23,12.46-18.967,21.646-24.998,12.586-8.264,28.137-11.129,42.977-9.137,8.275,1.111,16.13,3.954,23.285,8.233,2.829,1.692,5.706,3.477,8.165,5.689,2.761,2.484,5.393,5.149,7.733,8.034,10.246,12.63,13.457,29.134,11.895,45.036-.169,1.722-.403,3.434-.684,5.141-.21,1.277.334,2.583,1.676,2.952,1.147.315,2.741-.39,2.952-1.676h0Z"></path><path class="i" d="m98.062,173.735c2.605-1.073,5.118-2.378,7.679-3.551.202-.092.406-.18.606-.274.361-.17-.589.242-.33.138s.514-.208.759-.337c1.197-.629,2.329-1.519,3.301-2.452,1.738-1.67,2.949-3.747,3.78-5.993.842-2.272,1.227-4.732,1.55-7.124.174-1.283-.309-2.576-1.676-2.952-1.118-.307-2.777.383-2.952,1.676-.271,2.001-.596,4.031-1.169,5.971-.125.424-.268.842-.421,1.257-.038.105-.08.209-.121.312.017-.042.137-.309.022-.056-.11.242-.222.482-.344.718-.232.448-.489.883-.771,1.301-.347.513-.292.443-.756.948-.784.854-1.408,1.361-2.346,1.942-.095.059-.566.433-.243.19.06-.045.195-.073.112-.03-.21.109-.444.184-.661.278-.166.072-.332.146-.497.221-1.275.578-2.54,1.179-3.807,1.774-.73.343-1.46.686-2.19,1.027-.285.133-.57.266-.855.397-.247.113-.977.415.056-.01-1.198.493-2.05,1.593-1.676,2.952.311,1.133,1.746,2.173,2.952,1.676h0Z"></path><path class="i" d="m157.926,153.601c.618,4.557,1.46,9.099,4.515,12.714.838.992,1.841,1.826,2.899,2.574.628.444,1.282.857,2.001,1.136.256.099-.489-.219-.43-.184.087.051.19.083.281.125,1.287.59,2.568,1.191,3.85,1.793,1.234.579,2.458,1.198,3.713,1.731,1.192.506,2.571.357,3.284-.861.589-1.007.339-2.775-.861-3.284-2.342-.993-4.615-2.166-6.925-3.231-.487-.225-1.117-.406-1.563-.688.023.015.346.173-.046-.102-.247-.174-.514-.321-.763-.494-.444-.308-.72-.544-1.151-.956-.853-.816-1.182-1.241-1.735-2.181-.241-.41-.452-.833-.654-1.263-.183-.39.026.119-.115-.285-.088-.253-.184-.503-.267-.757-.745-2.275-1.085-4.698-1.406-7.062-.174-1.286-1.822-1.987-2.952-1.676-1.387.381-1.851,1.663-1.676,2.952h0Z"></path><path class="i" d="m194.186,88.524c2.409-2.058,6.484-1.674,8.278,1.007,1,1.494,1.057,3.55,1.111,5.285.062,1.977-.038,3.973-.374,5.924-.675,3.924-2.033,7.754-4.165,11.128-1.623,2.568-4.29,5.973-7.689,5.032-2.982-.825-4.254,3.805-1.276,4.629,8.542,2.364,14.171-7.705,16.451-14.39,1.341-3.933,1.984-8.169,1.853-12.323-.133-4.225-1.056-8.258-4.773-10.728-3.99-2.651-9.257-1.994-12.81,1.041-.986.842-.866,2.528,0,3.394.977.977,2.405.844,3.394,0h0Z"></path><path class="i" d="m82.191,85.13c-3.268-2.792-7.755-3.514-11.678-1.671-3.971,1.865-5.48,5.683-5.82,9.823-.678,8.271,1.789,17.41,7.171,23.816,2.919,3.475,7.164,6.309,11.856,5.21,3.006-.704,1.734-5.334-1.276-4.629-3.245.76-6.42-2.745-8.048-5.126-2.321-3.395-3.789-7.349-4.537-11.379-.362-1.95-.496-3.936-.462-5.918.032-1.853.051-4.123,1.122-5.724,1.794-2.683,5.869-3.065,8.278-1.007.985.841,2.427.967,3.394,0,.862-.862.99-2.549,0-3.394h0Z"></path><path class="i" d="m188.097,114.063c-.082,2.299-.675,4.535-1.381,6.714-.254.784-.532,1.559-.81,2.335-.082.229-.176.455-.256.685.207-.593.053-.133-.081.152-1.043,2.228-2.351,4.342-3.708,6.39-3.924,5.919-8.702,11.619-14.441,15.889-3.359,2.499-7.044,4.522-11.161,5.406-3.019.648-1.741,5.277,1.276,4.629,8.076-1.734,14.957-7.301,20.442-13.236,4.474-4.84,8.679-10.364,11.575-16.316,1.879-3.862,3.193-8.358,3.346-12.647.11-3.089-4.69-3.085-4.8,0h0Z"></path><path class="i" d="m80.075,112.617c3.427,16.818,14.433,32.721,29.609,40.99,4.241,2.311,8.849,3.964,13.641,4.625,1.282.177,2.577-.311,2.952-1.676.308-1.121-.384-2.774-1.676-2.952-8.146-1.125-15.46-5.137-21.543-10.568-6.488-5.793-11.716-12.929-15.074-20.968-1.442-3.453-2.533-7.062-3.28-10.727-.259-1.271-1.763-2.003-2.952-1.676-1.321.363-1.936,1.678-1.676,2.952h0Z"></path><path class="i" d="m136.69,106.3c.469,1.789.919,3.605,1.188,5.436l-.086-.638c.032.251.046.498.02.75l.086-.638c-.018.117-.043.226-.083.337l.242-.573c-.035.079-.071.146-.119.217l.375-.486c-.056.068-.109.12-.178.175l.486-.375c-.137.088-.282.16-.43.228l.573-.242c-.237.099-.472.171-.726.212l.638-.086c-.229.027-.452.025-.681-.001l.638.086c-.257-.036-.509-.098-.766-.133-.67-.09-1.239-.115-1.849.242-.498.291-.973.862-1.103,1.434-.14.614-.11,1.304.242,1.849.312.484.835,1.022,1.434,1.103.55.074,1.084.215,1.644.24.84.037,1.626-.217,2.378-.559.92-.419,1.636-1.225,1.881-2.217.207-.838.116-1.593-.026-2.432-.296-1.751-.701-3.487-1.151-5.205-.318-1.214-1.729-2.072-2.952-1.676-1.25.404-2.018,1.651-1.676,2.952h0Z"></path><path class="i" d="m107.899,92.117c-.888,2.884-.309,9.518,5.155,10.083,7.221-.043,7.605-8.064,5.175-11.835-1.99-3.088-7.843-4.372-10.329,1.753Z"></path><path class="i" d="m165.488,92.117c.888,2.884.309,9.518-5.154,10.083-7.221-.043-7.606-8.064-5.175-11.836,1.99-3.088,7.842-4.372,10.329,1.753Z"></path><path class="i" d="m193.248,83.732c-7.305-3.612-13.822-8.056-19.709-13.712-5.831-5.602-10.97-12.002-13.674-19.715-.564-1.609-2.715-2.479-4.011-1.059-4.831,5.294-10.264,10.242-16.891,13.168-1.525.674-3.124,1.2-4.74,1.608-.831.21-2.485.886-2.847.051-.114-.263-.068-.36.134-.815.441-.994.987-1.951,1.479-2.921.968-1.908,1.898-3.832,2.654-5.835.37-.981-.247-2.21-1.103-2.71-.967-.566-2.093-.324-2.908.375-12.575,10.778-26.875,19.396-41.294,27.452-3.295,1.841-6.756,3.848-10.481,4.652-3.018.652-1.741,5.28,1.276,4.629,3.6-.778,7.023-2.625,10.236-4.369,3.724-2.022,7.387-4.164,11.037-6.316,7.486-4.413,14.859-9.042,21.88-14.169,3.685-2.691,7.275-5.515,10.74-8.485l-4.011-2.335c-.636,1.686-1.46,3.293-2.276,4.897-.837,1.645-2.034,3.396-2.194,5.273-.283,3.341,2.694,6.185,6.004,5.831,6.733-.72,13.094-4.467,18.293-8.591,3.036-2.408,5.797-5.137,8.406-7.996l-4.011-1.059c2.262,6.45,5.934,12.153,10.465,17.241,4.844,5.439,10.421,10.373,16.56,14.301,2.754,1.763,5.634,3.305,8.564,4.753,1.161.574,2.598.312,3.284-.861.62-1.06.306-2.707-.861-3.284h0Z"></path><path class="i" d="m39.659,248.26c1.212-13.515,2.574-27.324,7.686-40.022,2.467-6.127,5.981-11.901,10.556-16.681,5.026-5.252,11.152-9.142,17.909-11.779,4.178-1.63,8.473-2.993,12.752-4.331,4.294-1.342,8.674-2.55,13.168-2.968,1.291-.12,2.4-1.017,2.4-2.4,0-1.205-1.102-2.521-2.4-2.4-8.35.776-16.459,3.61-24.32,6.402-7.545,2.679-14.531,6.296-20.482,11.718-10.835,9.873-16.269,23.849-18.978,37.959-1.553,8.09-2.355,16.304-3.09,24.501-.116,1.293,1.186,2.4,2.4,2.4,1.395,0,2.284-1.104,2.4-2.4h0Z"></path><path class="i" d="m172.249,172.43c7.911.64,15.698,3.512,23.139,6.123,7.036,2.469,13.618,5.824,19.12,10.927,10.118,9.386,14.944,22.48,17.47,35.755,1.448,7.607,2.19,15.32,2.881,23.025.116,1.291,1.02,2.4,2.4,2.4,1.208,0,2.516-1.101,2.4-2.4-1.288-14.357-2.707-29.089-8.355-42.503-2.807-6.667-6.649-12.871-11.734-18.049-5.602-5.705-12.382-9.771-19.805-12.644-4.335-1.678-8.79-3.093-13.233-4.458-4.667-1.434-9.405-2.582-14.283-2.976-1.294-.105-2.4,1.178-2.4,2.4,0,1.386,1.103,2.295,2.4,2.4h0Z"></path><path class="i" d="m176.059,170.487c-9.152,5.271-19.331,8.223-29.8,9.468-5.448.648-10.798.737-16.257.18-5.353-.547-10.67-1.565-15.846-3.033-5.413-1.535-11.011-3.533-15.674-6.759-1.066-.738-2.665-.197-3.284.861-.697,1.192-.208,2.544.861,3.284,4.313,2.985,9.482,4.962,14.453,6.533,5.605,1.772,11.381,2.922,17.208,3.653,5.584.701,11.077.842,16.679.283,5.765-.575,11.5-1.59,17.08-3.157,5.979-1.678,11.625-4.073,17.003-7.17,2.676-1.541.261-5.691-2.423-4.145h0Z"></path><path class="i" d="m126.778,129.753c2.655,2.599,6.843,3.368,10.409,3.366s7.755-.766,10.411-3.366c.926-.907.91-2.485,0-3.394-.928-.928-2.465-.909-3.394,0-.101.098-.57.456-.225.219.352-.242-.282.184-.409.262-.226.139-.458.267-.695.386-.159.08-.321.154-.484.227.308-.139.182-.072-.057.013-1.851.656-3.234.852-5.147.853-1.869.001-3.255-.164-5.055-.818-.08-.029-.693-.294-.151-.048-.136-.062-.272-.123-.405-.189-.263-.129-.522-.27-.772-.424-.057-.035-.568-.321-.558-.378.007-.036.482.422.135.092-.069-.066-.141-.129-.209-.195-.926-.907-2.471-.923-3.394,0-.912.912-.929,2.484,0,3.394h0Z"></path><path class="i" d="m18.184,114.835v-.13c.287-.287.574-.574.861-.861.517-.143,1.017-.076,1.499.2l.617,1.059c-.846-2.066-1.247-4.318-2.107-6.399-.919-2.225-2.005-4.347-3.611-6.161-1.516-1.713-3.48-3.068-5.556-4.012-1.06-.482-2.146-.908-3.258-1.253-.771-.239-2.459-.509-2.776-.746l.861.861c.097.381.098.762.003,1.143l-.861.861c.378-.281,2.211-.556,3.042-.816,1.198-.376,2.372-.837,3.509-1.369,2.273-1.065,4.372-2.598,5.9-4.602,1.425-1.87,2.351-4.079,3.108-6.292.366-1.071.684-2.158.969-3.252.15-.573.29-1.149.424-1.726.05-.218.1-.436.148-.655.037-.168.252-.667.135-.509l-.861.861c-.511.134-1.006.069-1.484-.195l-.617-1.059c.791,2.033,1.124,4.274,1.868,6.341.783,2.174,1.7,4.377,3.088,6.241,1.464,1.967,3.419,3.527,5.6,4.641,1.174.6,2.411,1.101,3.663,1.514.823.272,2.655.569,3.034.856l-.861-.861c-.097-.379-.1-.76-.009-1.141l.861-.861c.174-.127-.097.045-.243.068-.3.047-.603.129-.899.198-.486.112-.969.234-1.449.368-1.139.318-2.244.716-3.332,1.179-2.163.92-4.212,2.205-5.811,3.948-3.121,3.405-4.423,8.172-5.455,12.561-.707,3.004,3.92,4.287,4.629,1.276.854-3.632,1.786-7.97,4.491-10.729,1.323-1.349,3.003-2.323,4.77-2.972.945-.347,1.913-.631,2.89-.874.961-.239,1.987-.331,2.831-.878,2.25-1.457,1.691-4.951-.763-5.819-1.918-.678-3.901-.971-5.748-1.89-1.649-.821-3.257-1.891-4.344-3.408s-1.829-3.297-2.444-5.057c-.64-1.833-1.044-3.717-1.604-5.57-.681-2.255-3.38-3.51-5.328-1.835-1.475,1.268-1.551,3.818-2.05,5.605-.515,1.843-1.105,3.684-1.998,5.383-1.844,3.511-5.315,5.207-9.016,6.212-.925.251-2.029.334-2.868.825-1.049.614-1.668,1.774-1.631,2.976.084,2.771,2.726,3.066,4.807,3.665,2.064.594,4.119,1.432,5.801,2.798,1.773,1.44,2.922,3.375,3.817,5.45.459,1.065.837,2.168,1.186,3.274s.531,2.356,1.041,3.399c.591,1.208,1.741,1.918,3.09,1.89,1.535-.031,2.555-1.096,3.069-2.445.461-1.212-.511-2.632-1.676-2.952-1.351-.371-2.489.46-2.952,1.676Z"></path><path class="i" d="m239.468,144.143v-.13c.287-.287.574-.574.861-.861.517-.143,1.017-.076,1.499.2l.617,1.059c-.846-2.066-1.247-4.318-2.107-6.399-.919-2.225-2.005-4.347-3.611-6.161-1.516-1.713-3.48-3.068-5.556-4.012-1.06-.482-2.146-.908-3.258-1.253-.771-.239-2.459-.509-2.776-.746l.861.861c.097.381.098.762.003,1.143l-.861.861c.378-.281,2.211-.556,3.042-.816,1.198-.376,2.372-.837,3.509-1.369,2.273-1.065,4.372-2.598,5.9-4.602,1.425-1.87,2.351-4.079,3.108-6.292.366-1.071.684-2.158.969-3.252.15-.573.29-1.149.424-1.726.05-.218.1-.436.148-.655.037-.168.252-.667.135-.509l-.861.861c-.511.134-1.006.069-1.484-.195l-.617-1.059c.791,2.033,1.124,4.274,1.868,6.341.783,2.174,1.7,4.377,3.088,6.241,1.464,1.967,3.419,3.527,5.6,4.641,1.174.6,2.411,1.101,3.663,1.514.823.272,2.655.569,3.034.856l-.861-.861c-.097-.379-.1-.76-.009-1.141l.861-.861c.174-.127-.097.045-.243.068-.3.047-.603.129-.899.198-.486.112-.969.234-1.449.368-1.139.318-2.244.716-3.332,1.179-2.163.92-4.212,2.205-5.811,3.948-3.121,3.405-4.423,8.172-5.455,12.561-.707,3.004,3.92,4.287,4.629,1.276.854-3.632,1.786-7.97,4.491-10.729,1.323-1.349,3.003-2.323,4.77-2.972.945-.347,1.913-.631,2.89-.874.961-.239,1.987-.331,2.831-.878,2.25-1.457,1.691-4.951-.763-5.819-1.918-.678-3.901-.971-5.748-1.89-1.649-.821-3.257-1.891-4.344-3.408s-1.829-3.297-2.444-5.057c-.64-1.833-1.044-3.717-1.604-5.57-.681-2.255-3.38-3.51-5.328-1.835-1.475,1.268-1.551,3.818-2.05,5.605-.515,1.843-1.105,3.684-1.998,5.383-1.844,3.511-5.315,5.207-9.016,6.212-.925.251-2.029.334-2.868.825-1.049.614-1.668,1.774-1.631,2.976.084,2.771,2.726,3.066,4.807,3.665,2.064.594,4.119,1.432,5.801,2.798,1.773,1.44,2.922,3.375,3.817,5.45.459,1.065.837,2.168,1.186,3.274s.531,2.356,1.041,3.399c.591,1.208,1.741,1.918,3.09,1.89,1.535-.031,2.555-1.096,3.069-2.445.461-1.212-.511-2.632-1.676-2.952-1.351-.371-2.489.46-2.952,1.676Z"></path><path class="i" d="m274.468,100.619l.085-.075,1.059-.617.595.009,1.059.617c.257.413.297.387.121-.078-.052-.188-.105-.375-.16-.562-.13-.446-.267-.89-.415-1.331-.279-.833-.598-1.65-.945-2.458-.676-1.573-1.515-3.065-2.693-4.323-1.171-1.251-2.65-2.235-4.211-2.926-1.506-.667-3.133-.904-4.635-1.513l1.059.617.328.51v1.276l-.326.511-1.059.617c.76-.305,1.62-.406,2.406-.648.932-.287,1.847-.644,2.731-1.055,1.735-.808,3.338-1.973,4.509-3.495,1.092-1.418,1.8-3.075,2.384-4.758.544-1.569.724-3.325,1.338-4.851l-.617,1.059-.516.323h-1.276c-.822-1.068-1.115-1.251-.879-.549.055.219.111.439.169.657.091.345.186.69.285,1.033.243.841.512,1.677.822,2.496.615,1.626,1.324,3.207,2.391,4.589,1.113,1.44,2.605,2.583,4.233,3.389.879.435,1.805.809,2.738,1.112.794.257,1.661.368,2.427.683l-1.059-.617-.33-.507v-1.276l.321-.513,1.059-.617c-1.54.6-3.206.802-4.75,1.467-1.589.684-3.101,1.622-4.291,2.895-2.399,2.566-3.412,6.145-4.2,9.483-.709,3.004,3.918,4.286,4.629,1.276.665-2.816,1.384-6.294,3.816-8.16.984-.755,2.148-1.253,3.323-1.617,1.591-.494,3.565-.502,4.445-2.156.944-1.775-.084-3.795-1.914-4.38-1.407-.45-2.817-.692-4.14-1.396-2.587-1.377-3.703-3.672-4.568-6.361-.419-1.303-.558-3.004-1.269-4.176-1.04-1.714-3.513-1.934-4.862-.473-.927,1.005-1.003,2.683-1.351,3.948-.398,1.451-.853,2.906-1.595,4.222-1.385,2.456-4.129,3.467-6.74,4.091-1.81.433-3.377,1.664-2.914,3.753.415,1.872,1.973,2.214,3.588,2.654,3.267.891,5.552,2.615,6.89,5.762.337.793.609,1.617.863,2.439.269.869.402,1.9.885,2.681,1.201,1.943,4.338,1.883,5.299-.259.531-1.182.341-2.581-.861-3.284-1.026-.6-2.75-.327-3.284.861Z"></path><path class="i" d="m124.367,203.784c-6.833,1.055-13.298,3.499-16.899,9.767-2.159,3.758-3.162,7.967-3.266,12.283-.106,4.411.695,8.783.664,13.192-.015,2.08-.249,4.109-.886,6.097-.72,2.246-2.257,4.015-3.12,6.177-.956,2.395-.222,4.62.96,6.775,1.189,2.167,2.495,4.274,3.879,6.321,1.414,2.093,2.877,4.273,4.557,6.162,1.449,1.629,3.815,2.304,5.892,1.581,1.441-.502,2.732-1.613,3.978-2.456,3.761-2.545,7.523-5.09,11.284-7.635,2.544-1.722.145-5.882-2.423-4.145-2.924,1.979-5.849,3.958-8.773,5.936l-4.7,3.18c-.261.176-.647.528-.957.595-.492.108-.74-.254-1.05-.63-.691-.838-1.334-1.72-1.973-2.598-1.329-1.828-2.586-3.709-3.765-5.636-.585-.956-1.151-1.924-1.696-2.903-.384-.691-1.009-1.576-.898-2.418.103-.776.788-1.569,1.188-2.209.576-.922,1.072-1.873,1.501-2.872.877-2.042,1.375-4.135,1.629-6.34.904-7.856-2.216-16.089.948-23.673.611-1.464,1.387-2.928,2.368-4.18.621-.793,1.863-1.935,2.751-2.514,2.975-1.941,6.546-2.682,10.083-3.228,1.282-.198,1.991-1.806,1.676-2.952-.376-1.369-1.666-1.875-2.952-1.676h0Z"></path><path class="i" d="m171.4,246.233c-3.34-4.48-5.396-9.695-5.531-15.313-.075-3.147.274-6.284.28-9.43s-.303-6.34-.956-9.423c-1.03-4.868-3.438-9.587-7.871-12.157-5.307-3.077-11.813-2.679-17.704-2.34-3.378.195-6.986.152-10.18,1.406-2.757,1.083-5.47,3.555-5.175,6.783.118,1.291,1.018,2.4,2.4,2.4,1.207,0,2.519-1.102,2.4-2.4-.172-1.875,2.528-2.539,3.996-2.836,2.596-.525,5.351-.495,7.99-.632,4.85-.251,10.715-.692,14.842,2.405,3.358,2.52,4.499,6.937,5.067,10.884.818,5.686-.256,11.344.194,17.03.46,5.818,2.618,11.372,6.102,16.046.774,1.038,2.076,1.567,3.284.861,1.023-.598,1.64-2.238.861-3.284h0Z"></path><path class="i" d="m148.706,206.104c-3.578-.149-7.16-.147-10.737.024-3.305.158-6.884.199-10.093,1.07-2.455.666-4.685,2.161-5.381,4.723-.765,2.814.825,5.314,3.221,6.688,2.684,1.54,5.105-2.606,2.423-4.145-.207-.119-.42-.232-.609-.378.014.011-.346-.332-.19-.147-.107-.127-.177-.289-.26-.432.176.301.039-.244.015.014.008-.086.01-.205.03-.325.068-.42-.089.107.019-.106.061-.121.132-.235.2-.353.139-.241-.269.252.04-.052.033-.032.344-.304.233-.22.156-.118.686-.371,1.008-.483,1.071-.373,2.206-.5,3.327-.612,5.567-.554,11.167-.699,16.756-.467,3.089.128,3.083-4.672,0-4.8h0Z"></path><path class="i" d="m149.943,215.52c-3.719-.207-7.437-.414-11.156-.621-3.372-.188-6.735-.363-10.1.03-2.917.34-5.842,1.244-7.181,4.118-1.389,2.982-.059,5.983,2.206,8.097s5.658-1.281,3.394-3.394c-.419-.391-.841-.769-1.119-1.276-.115-.21-.283-.742-.278-.699-.05-.391.029-.705.417-1.112.644-.675,1.68-.821,2.561-.935,1.34-.172,2.698-.238,4.049-.25,5.725-.051,11.493.523,17.208.841,3.086.172,3.077-4.629,0-4.8h0Z"></path><path class="i" d="m147.398,225.711c-3.934-.471-7.87-.922-11.815-1.295-4.346-.41-9.518-1.474-13.15,1.649-3.565,3.066-1.813,8.165,1.894,10.144,1.741.929,3.794,1.151,5.711,1.489,2.173.384,4.351.74,6.52,1.143,1.273.237,2.588-.352,2.952-1.676.321-1.168-.395-2.714-1.676-2.952-3.337-.621-6.723-1.057-10.032-1.818-.98-.226-2.431-.817-2.548-1.941-.03-.288.033-.428.204-.647.415-.533,1.222-.793,1.853-.943,1.688-.4,3.568-.07,5.272.079,1.775.156,3.549.32,5.322.499,3.169.319,6.333.69,9.495,1.069,1.289.154,2.4-1.214,2.4-2.4,0-1.425-1.107-2.245-2.4-2.4h0Z"></path><path class="i" d="m134.029,238.02c-2.252,2.821-2.012,7.11-1.367,10.476.622,3.247,2.166,6.24,4.276,8.763,4.09,4.889,10.409,7.472,16.513,8.707,1.269.257,2.592-.366,2.952-1.676.325-1.184-.4-2.694-1.676-2.952-4.956-1.003-9.978-2.822-13.558-6.541-1.582-1.643-2.775-3.633-3.442-5.817-.484-1.586-.656-3.152-.641-4.806.007-.745-.047-2.279.336-2.759.808-1.012.989-2.406,0-3.394-.838-.838-2.581-1.018-3.394,0h0Z"></path><path class="i" d="m169.37,245.96c-.443,4.357-1.618,8.574-3.159,12.664-1.501,3.981-3.12,7.789-5.624,11.244-.761,1.05-.18,2.675.861,3.284,1.212.709,2.521.192,3.284-.861,2.738-3.777,4.469-8.041,6.108-12.39,1.704-4.519,2.842-9.133,3.331-13.94.131-1.291-1.197-2.4-2.4-2.4-1.407,0-2.268,1.105-2.4,2.4h0Z"></path></g></g></svg>