<svg id="b" xmlns="http://www.w3.org/2000/svg" width="290.796" height="268.279" viewBox="0 0 290.796 268.279"><defs><style>.g{fill:#fcdc4a;}.g,.h,.i{stroke-width:0px;}.h{fill:#fff;}.i{fill:#211715;}</style></defs><g id="c"><g id="d"><path class="h" d="m192.24,80.594c1.71-1.543,4.245-2.29,6.615-1.935,2.37.354,4.528,1.784,5.613,3.732.766,1.366,1.014,2.922,1.156,4.44.519,5.983-.66,12.08-3.372,17.532-1.321,2.656-3.042,5.199-5.436,7.134-1.838,1.466-3.685,2.299-6.355,1.486,0,0-.348-.106-.954-.288-.586,2.305-1.358,4.313-1.704,5.295-1.99,5.042-13.663,23.672-27.982,28.824.114.862.268,1.846.481,3.043.692,4.076,1.846,8.69,7.267,11.689.323.102,5.88,2.739,7.557,3.512-9.112,6.328-23.716,11.176-38.882,11.22-15.158-.045-29.757-4.888-38.861-11.217,1.68-.769,7.222-3.404,7.562-3.506,5.402-2.999,6.556-7.613,7.267-11.689.254-1.442.426-2.551.511-3.503-6.093-2.902-11.726-7.404-16.694-12.954-5.989-6.691-9.626-13.853-11.785-20.029-.892.241-1.41.381-1.41.381-3.019.813-5.325-.797-7.163-2.264-2.394-1.935-4.115-4.478-5.436-7.134-2.712-5.452-3.891-11.549-3.372-17.532.141-1.518.389-3.074,1.156-4.44,1.085-1.948,3.243-3.377,5.613-3.732,2.37-.354,4.905.392,6.615,1.935,0,0-11.583-53.135,55.997-53.135s55.997,53.135,55.997,53.135Z"></path><path class="h" d="m236.523,203.856c6.624,15.017,8.399,32.538,9.858,49.233H26.103c1.942-22.273,4.443-46.015,18.237-63.323,4.756-5.968,10.722-10.916,17.406-14.434,5.129-2.7,10.646-5.169,16.125-7.008,6.039-2.027,12.125-3.287,18.419-4.058,8.994,6.716,24.169,11.964,39.951,12.011,15.837-.047,31.062-5.331,40.049-12.075,6.335.738,12.337,2.282,18.33,4.288,5.495,1.839,10.867,4.143,16.012,6.843,6.704,3.518,12.688,8.466,17.458,14.434,3.465,4.335,6.219,9.073,8.432,14.09Z"></path><path class="h" d="m105.108,209.5c-.307.648-.597,1.333-.874,2.058-3.977,11.223,2.774,21.767-3.38,32.106-.779,1.308-1.8,2.59-1.889,4.054-.075,1.233.53,2.416,1.149,3.534,2.377,4.292,5.154,8.424,8.294,12.346,1.041,1.3,2.898,1.6,4.277.667l14.498-9.81s4.402-2.858,8.108-5.263c3.604,4.787,9.592,7.683,16.474,9.044l12.418,1.426c.012-.025.024-.053.036-.082,2.586-5.958,4.291-10.595,5.197-15.663-4.632-5.029-7.407-11.256-7.912-17.621-.302-3.808.192-7.626.202-11.443.007-2.669-.224-5.338-.69-7.977-.79-4.472-2.518-9.195-6.804-11.877-2.768-1.732-6.29-2.388-9.726-2.489-3.436-.101-6.877.166-10.308.354-2.361.129-4.783.31-6.943,1.13-2.201.836-4.057,2.748-3.671,4.783-10.44,1.309-15.316,4.085-18.456,10.723Z"></path><g id="e"><path class="g" d="m74.327,54.296c2.925-20.096,14.652-32.915,25.126-40.427,9.975-7.154,22.439-11.423,37.118-11.423,7.436,0,14.871,1.11,21.91,3.593,3.184,1.123,6.275,2.516,9.242,4.144,4.07,2.234,8.562,5.262,10.582,7.018,1.266,1.1,3.127,2.909,4.351,4.147,3.04,3.073,5.753,6.483,8.043,10.174,5.464,8.807,8.286,19.021,8.741,29.403.287,6.548-.219,12.146-1.072,17.266l-.07.417c-2.203-.182-4.481.564-6.058,1.987-2.571,1.375-5.292,1.748-7.212.734-.719-.379-2.472-1.387-2.521-4.258-1.266-8.887-5.163-17.523-11.284-25.051-2.143-2.482-5.877-6.002-8.904-6.934,0,0-.634-.195-1.659-.494-3.624,1.732-7.396,3.272-11.283,4.606-2.911.999-6.763,1.74-8.89-.113-2.015-1.756-1.194-4.937-3.592-6.365-1.622-.966-3.923-.618-5.862-.133-20.505,5.129-32.855,17.588-40.466,33.4-1.606,3.529-4.231,5.205-7.011,5.307-.854.032-2.703-.249-3.31-.699-1.33-1.201-3.16-1.919-5.023-1.999.378,3.686-1.863-9.751-1.516-17.671.1-2.292.311-4.501.621-6.628Z" style="fill: rgb(121, 211, 241);"></path><path class="g" d="m20.499,109.24c-.214.92-1.515.936-1.752.022-.991-3.82-2.529-8.383-4.865-11.103-2.85-3.318-6.968-4.727-10.785-5.547-.948-.204-.944-1.562.004-1.763,3.78-.801,7.947-2.212,10.718-5.203,2.638-2.847,4.127-8.576,4.961-12.463.202-.942,1.538-.957,1.761-.021.928,3.887,2.581,9.632,5.224,12.483,2.744,2.96,6.709,4.373,10.373,5.178.951.209.942,1.573-.013,1.764-3.913.784-8.203,2.127-11.051,5.444-2.335,2.719-3.677,7.353-4.575,11.206Z" style="fill: rgb(121, 211, 241);"></path><path class="g" d="m241.782,138.548c-.214.92-1.515.936-1.752.022-.991-3.82-2.529-8.383-4.865-11.103-2.85-3.318-6.968-4.727-10.785-5.547-.948-.204-.944-1.562.004-1.763,3.78-.801,7.947-2.212,10.718-5.203,2.638-2.847,4.127-8.576,4.961-12.463.202-.942,1.538-.957,1.761-.021.928,3.887,2.581,9.632,5.224,12.483,2.744,2.96,6.709,4.373,10.373,5.178.951.209.942,1.573-.013,1.764-3.913.784-8.203,2.127-11.051,5.444-2.335,2.719-3.677,7.353-4.575,11.206Z" style="fill: rgb(121, 211, 241);"></path><path class="g" d="m276.54,95.597c-.155.667-1.099.679-1.271.016-.719-2.771-1.835-6.082-3.529-8.055-2.068-2.407-5.055-3.429-7.825-4.024-.687-.148-.685-1.133.003-1.279,2.742-.581,5.766-1.605,7.776-3.775,1.914-2.065,2.994-6.222,3.599-9.042.147-.683,1.116-.694,1.278-.015.674,2.82,1.873,6.988,3.79,9.057,1.99,2.148,4.867,3.173,7.526,3.757.69.152.683,1.141-.01,1.28-2.839.569-5.951,1.543-8.018,3.95-1.694,1.972-2.668,5.334-3.319,8.13Z" style="fill: rgb(121, 211, 241);"></path></g></g><g id="f"><path class="i" d="m100.819,161.396c-9.604.846-19.035,2.699-28.027,6.235-8.555,3.364-16.874,7.508-23.766,13.679-12.568,11.254-18.764,27.385-21.837,43.609-1.762,9.303-2.662,18.745-3.485,28.169-.113,1.293,1.184,2.4,2.4,2.4,1.392,0,2.287-1.103,2.4-2.4,1.37-15.699,2.896-31.771,8.864-46.511,2.897-7.156,7.038-13.872,12.456-19.393,6.046-6.162,13.426-10.282,21.285-13.703,9.454-4.115,19.461-6.383,29.71-7.285,1.291-.114,2.4-1.022,2.4-2.4,0-1.21-1.101-2.514-2.4-2.4h0Z"></path><path class="i" d="m171.446,166.196c8.952.466,17.713,2.728,26.084,5.864,8.053,3.017,16.005,6.878,22.463,12.644,12.023,10.734,17.724,26.01,20.665,41.491,1.688,8.883,2.535,17.894,3.323,26.893.113,1.291,1.022,2.4,2.4,2.4,1.211,0,2.514-1.101,2.4-2.4-1.455-16.621-3.074-33.661-9.642-49.178-3.282-7.754-7.861-14.961-13.899-20.867-6.567-6.424-14.505-10.734-22.93-14.228-9.803-4.065-20.238-6.867-30.865-7.419-3.087-.161-3.078,4.64,0,4.8h0Z"></path><path class="i" d="m93.904,165.445c8.942,6.929,20.2,10.789,31.313,12.383,12.571,1.804,25.508.52,37.451-3.848,5.698-2.084,11.108-4.813,15.912-8.535,1.025-.795.835-2.559,0-3.394-1.012-1.012-2.366-.797-3.394,0-8.173,6.333-18.871,9.656-28.974,11.116-11.654,1.684-23.671.299-34.736-3.676-4.993-1.794-9.967-4.177-14.179-7.44-1.023-.793-2.396-.998-3.394,0-.827.827-1.03,2.596,0,3.394h0Z"></path><path class="i" d="m97.564,167.578c2.608-1.075,5.124-2.381,7.687-3.555.202-.092.406-.18.607-.275.361-.17-.589.242-.33.138s.514-.208.76-.337c1.198-.63,2.332-1.52,3.304-2.455,1.74-1.672,2.951-3.751,3.784-5.999.843-2.275,1.228-4.738,1.552-7.132.174-1.283-.309-2.576-1.676-2.952-1.118-.307-2.777.383-2.952,1.676-.271,2.003-.596,4.036-1.17,5.978-.126.425-.269.843-.421,1.259-.039.105-.08.209-.122.313.017-.042.137-.308.022-.055-.11.242-.223.482-.345.718-.232.449-.489.884-.772,1.303-.347.513-.294.445-.758.949-.784.854-1.411,1.363-2.349,1.944-.095.059-.567.434-.244.191.06-.045.195-.073.111-.03-.21.109-.444.184-.661.278-.166.072-.332.146-.497.221-1.277.578-2.543,1.181-3.812,1.777-.731.343-1.461.687-2.193,1.028-.285.133-.57.266-.856.398-.247.113-.978.416.055-.01-1.198.493-2.05,1.593-1.676,2.952.311,1.133,1.746,2.173,2.952,1.676h0Z"></path><path class="i" d="m157.505,147.456c.618,4.546,1.473,9.084,4.519,12.689.839.993,1.843,1.828,2.902,2.577.629.445,1.283.858,2.003,1.137.256.099-.489-.219-.429-.184.087.051.19.083.282.125,1.288.59,2.571,1.192,3.854,1.795,1.236.58,2.461,1.2,3.718,1.733,1.192.506,2.571.357,3.284-.861.589-1.007.339-2.775-.861-3.284-2.345-.994-4.621-2.168-6.933-3.235-.487-.225-1.118-.406-1.564-.689.024.015.346.173-.046-.103-.248-.174-.514-.322-.764-.494-.445-.308-.722-.546-1.153-.957-.853-.816-1.184-1.243-1.738-2.184-.241-.41-.452-.834-.654-1.264-.183-.39.025.118-.115-.286-.088-.253-.184-.503-.267-.758-.741-2.264-1.088-4.679-1.408-7.032-.175-1.286-1.822-1.987-2.952-1.676-1.387.381-1.852,1.663-1.676,2.952h0Z"></path><path class="i" d="m193.937,82.291c2.409-2.058,6.484-1.674,8.278,1.007,1,1.494,1.057,3.55,1.111,5.285.062,1.977-.038,3.973-.374,5.924-.675,3.924-2.033,7.754-4.165,11.128-1.623,2.568-4.29,5.973-7.689,5.032-2.982-.825-4.254,3.805-1.276,4.629,8.542,2.364,14.171-7.705,16.451-14.39,1.341-3.933,1.984-8.169,1.853-12.323-.133-4.225-1.056-8.258-4.773-10.728-3.99-2.651-9.257-1.994-12.81,1.041-.986.842-.866,2.528,0,3.394.977.977,2.405.844,3.394,0h0Z"></path><path class="i" d="m187.849,107.829c-.082,2.299-.675,4.535-1.381,6.714-.254.784-.532,1.559-.81,2.335-.082.229-.176.455-.256.685.207-.593.053-.133-.081.152-1.043,2.228-2.351,4.342-3.708,6.39-3.924,5.919-8.702,11.619-14.441,15.889-3.359,2.499-7.044,4.522-11.161,5.406-3.019.648-1.741,5.277,1.276,4.629,8.076-1.734,14.957-7.301,20.442-13.236,4.474-4.84,8.679-10.364,11.575-16.316,1.879-3.862,3.193-8.358,3.346-12.647.11-3.089-4.69-3.085-4.8,0h0Z"></path><path class="i" d="m81.942,78.897c-3.268-2.792-7.755-3.514-11.678-1.671-3.971,1.865-5.48,5.683-5.82,9.823-.678,8.271,1.789,17.41,7.171,23.816,2.919,3.475,7.164,6.309,11.856,5.21,3.006-.704,1.734-5.334-1.276-4.629-3.245.76-6.42-2.745-8.048-5.126-2.321-3.395-3.789-7.349-4.537-11.379-.362-1.95-.496-3.936-.462-5.918.032-1.853.051-4.123,1.122-5.724,1.794-2.683,5.869-3.065,8.278-1.007.985.841,2.427.967,3.394,0,.862-.862.99-2.549,0-3.394h0Z"></path><path class="i" d="m79.826,106.383c3.427,16.818,14.433,32.721,29.609,40.99,4.241,2.311,8.849,3.964,13.641,4.625,1.282.177,2.577-.311,2.952-1.676.308-1.121-.384-2.774-1.676-2.952-8.146-1.125-15.46-5.137-21.543-10.568-6.488-5.793-11.716-12.929-15.074-20.968-1.442-3.453-2.533-7.062-3.28-10.727-.259-1.271-1.763-2.003-2.952-1.676-1.321.363-1.936,1.678-1.676,2.952h0Z"></path><path class="i" d="m200.682,78.828c2.743-16.667,1.027-34.369-8.149-48.899-8.741-13.841-23.122-23.944-38.987-27.869-15.94-3.944-33.608-2.261-48.213,5.37-10.888,5.69-20.343,14.767-26.325,25.506-3.515,6.309-5.869,13.258-6.946,20.397-1.102,7.303-.798,14.502.142,21.802.159,1.235.325,2.469.526,3.698.209,1.28,1.798,1.993,2.952,1.676,1.36-.374,1.886-1.668,1.676-2.952-.912-5.574-1.547-11.827-1.195-17.722.415-6.954,1.988-13.924,4.873-20.281,4.643-10.23,12.46-18.967,21.646-24.998,12.586-8.264,28.137-11.129,42.977-9.137,8.275,1.111,16.13,3.954,23.285,8.233,2.829,1.692,5.706,3.477,8.165,5.689,2.761,2.484,5.393,5.149,7.733,8.034,10.246,12.63,13.457,29.134,11.895,45.036-.169,1.722-.403,3.434-.684,5.141-.21,1.277.334,2.583,1.676,2.952,1.147.315,2.741-.39,2.952-1.676h0Z"></path><path class="i" d="m164.721,39.804c-3.394,1.867-6.886,3.564-10.476,5.02-3.088,1.252-6.576,2.956-9.973,2.998-1.075.013-2.167-.14-2.658-1.203-.529-1.147-.677-2.478-1.289-3.627-1.896-3.559-6.081-3.611-9.539-2.815-12.063,2.778-23.36,9.195-31.621,18.44-4.323,4.838-7.85,10.325-10.672,16.158-.564,1.166-.319,2.594.861,3.284,1.052.615,2.717.311,3.284-.861,4.835-9.992,11.794-18.854,21.248-24.836,5.249-3.321,10.998-5.688,16.999-7.26,1.314-.344,3.164-.991,4.506-.443.934.382,1.032,1.464,1.301,2.357,1.008,3.354,3.317,5.352,6.862,5.589,3.945.263,7.958-1.545,11.533-2.976,4.129-1.653,8.159-3.534,12.057-5.678,2.707-1.489.288-5.636-2.423-4.145h0Z"></path><path class="i" d="m79.034,82.666c1.092.744,2.706.931,3.982,1.014,1.172.076,2.426-.134,3.52-.56,2.775-1.081,4.858-3.235,6.103-5.924.526-1.137.359-2.639-.861-3.284-1.059-.56-2.721-.355-3.284.861-.258.557-.546,1.099-.884,1.611-.086.131-.177.258-.267.387-.249.356.241-.283.05-.063-.177.204-.348.411-.537.605-.181.186-.37.363-.567.531-.296.252-.046,0,.111-.074-.109.052-.229.167-.33.235-.201.135-.409.26-.622.375-.096.051-.192.101-.29.148-.233.112-.454.083.102-.036-.448.096-.885.281-1.339.379-.403.087.499-.045.202-.022-.105.008-.209.022-.314.03-.224.016-.448.019-.673.009-.212-.01-.426-.052-.637-.056.686.013.291.04.087.004-.115-.02-.23-.043-.344-.067-.237-.051-.473-.109-.704-.185-.405-.134-.005-.126.155.077-.043-.055-.177-.099-.235-.139-1.04-.709-2.707-.231-3.284.861-.643,1.217-.249,2.527.861,3.284h0Z"></path><path class="i" d="m180.107,77.072c.075,2.609,1.265,4.995,3.599,6.269,3.106,1.696,6.767.891,9.745-.675,1.113-.585,1.542-2.228.861-3.284-.73-1.133-2.093-1.487-3.284-.861-.164.086-.327.171-.494.251-.089.043-.647.332-.088.053-.284.142-.607.235-.91.33-.297.094-.597.175-.901.24-.145.031-.346.04-.485.091.345-.042.425-.053.239-.032-.079.009-.158.017-.237.023-.282.023-.565.03-.848.02-.125-.005-.249-.017-.373-.024-.503-.028.51.106.059.001-.14-.033-.279-.061-.417-.1-.107-.03-.302-.147-.401-.133.125-.017.516.241.128.044-.058-.029-.115-.06-.173-.091-.213-.116-.406-.257-.61-.385s.549.465.234.176c-.053-.048-.108-.094-.16-.143-.106-.1-.328-.268-.379-.408.046.125.379.527.136.159-.049-.075-.096-.151-.14-.228-.056-.097-.098-.204-.156-.299-.142-.234.199.566.081.187-.079-.253-.151-.503-.208-.762-.099-.447.026.57.005.056-.007-.16-.02-.318-.025-.478-.036-1.254-1.078-2.459-2.4-2.4-1.269.057-2.439,1.056-2.4,2.4h0Z"></path><path class="i" d="m161.68,47.399c2.495.83,4.643,2.942,6.438,4.785,2.129,2.187,3.887,4.724,5.469,7.326,3.304,5.436,5.535,11.397,6.539,17.682.205,1.281,1.802,1.992,2.952,1.676,1.364-.375,1.881-1.668,1.676-2.952-1.108-6.942-3.737-13.625-7.48-19.567-1.818-2.887-3.861-5.692-6.294-8.094-2.294-2.265-4.925-4.453-8.025-5.485-2.938-.977-4.198,3.657-1.276,4.629h0Z"></path><path class="i" d="m136.441,100.067c.469,1.789.919,3.605,1.188,5.436l-.086-.638c.032.251.046.498.02.75l.086-.638c-.018.117-.043.226-.083.337l.242-.573c-.035.079-.071.146-.119.217l.375-.486c-.056.068-.109.12-.178.175l.486-.375c-.137.088-.282.16-.43.228l.573-.242c-.237.099-.472.171-.726.212l.638-.086c-.229.027-.452.025-.681-.001l.638.086c-.257-.036-.509-.098-.766-.133-.67-.09-1.239-.115-1.849.242-.498.291-.973.862-1.103,1.434-.14.614-.11,1.304.242,1.849.312.484.835,1.022,1.434,1.103.55.074,1.084.215,1.644.24.84.037,1.626-.217,2.378-.559.92-.419,1.636-1.225,1.881-2.217.207-.838.116-1.593-.026-2.432-.296-1.751-.701-3.487-1.151-5.205-.318-1.214-1.729-2.072-2.952-1.676-1.25.404-2.018,1.651-1.676,2.952h0Z"></path><path class="i" d="m107.65,85.883c-.888,2.884-.309,9.518,5.155,10.083,7.221-.043,7.605-8.064,5.175-11.835-1.99-3.088-7.843-4.372-10.329,1.753Z"></path><path class="i" d="m165.239,85.883c.888,2.884.309,9.518-5.154,10.083-7.221-.043-7.606-8.064-5.175-11.836,1.99-3.088,7.842-4.372,10.329,1.753Z"></path><path class="i" d="m18.184,108.602v-.13c.287-.287.574-.574.861-.861.517-.143,1.017-.076,1.499.2l.617,1.059c-.846-2.066-1.247-4.318-2.107-6.399-.919-2.225-2.005-4.347-3.611-6.161-1.516-1.713-3.48-3.068-5.556-4.012-1.06-.482-2.146-.908-3.258-1.253-.771-.239-2.459-.509-2.776-.746l.861.861c.097.381.098.762.003,1.143l-.861.861c.378-.281,2.211-.556,3.042-.816,1.198-.376,2.372-.837,3.509-1.369,2.273-1.065,4.372-2.598,5.9-4.602,1.425-1.87,2.351-4.079,3.108-6.292.366-1.071.684-2.158.969-3.252.15-.573.29-1.149.424-1.726.05-.218.1-.436.148-.655.037-.168.252-.667.135-.509l-.861.861c-.511.134-1.006.069-1.484-.195l-.617-1.059c.791,2.033,1.124,4.274,1.868,6.341.783,2.174,1.7,4.377,3.088,6.241,1.464,1.967,3.419,3.527,5.6,4.641,1.174.6,2.411,1.101,3.663,1.514.823.272,2.655.569,3.034.856l-.861-.861c-.097-.379-.1-.76-.009-1.141l.861-.861c.174-.127-.097.045-.243.068-.3.047-.603.129-.899.198-.486.112-.969.234-1.449.368-1.139.318-2.244.716-3.332,1.179-2.163.92-4.212,2.205-5.811,3.948-3.121,3.405-4.423,8.172-5.455,12.561-.707,3.004,3.92,4.287,4.629,1.276.854-3.632,1.786-7.97,4.491-10.729,1.323-1.349,3.003-2.323,4.77-2.972.945-.347,1.913-.631,2.89-.874.961-.239,1.987-.331,2.831-.878,2.25-1.457,1.691-4.951-.763-5.819-1.918-.678-3.901-.971-5.748-1.89-1.649-.821-3.257-1.891-4.344-3.408s-1.829-3.297-2.444-5.057c-.64-1.833-1.044-3.717-1.604-5.57-.681-2.255-3.38-3.51-5.328-1.835-1.475,1.268-1.551,3.818-2.05,5.605-.515,1.843-1.105,3.684-1.998,5.383-1.844,3.511-5.315,5.207-9.016,6.212-.925.251-2.029.334-2.868.825-1.049.614-1.668,1.774-1.631,2.976.084,2.771,2.726,3.066,4.807,3.665,2.064.594,4.119,1.432,5.801,2.798,1.773,1.44,2.922,3.375,3.817,5.45.459,1.065.837,2.168,1.186,3.274s.531,2.356,1.041,3.399c.591,1.208,1.741,1.918,3.09,1.89,1.535-.031,2.555-1.096,3.069-2.445.461-1.212-.511-2.632-1.676-2.952-1.351-.371-2.489.46-2.952,1.676Z"></path><path class="i" d="m239.468,137.91v-.13c.287-.287.574-.574.861-.861.517-.143,1.017-.076,1.499.2l.617,1.059c-.846-2.066-1.247-4.318-2.107-6.399-.919-2.225-2.005-4.347-3.611-6.161-1.516-1.713-3.48-3.068-5.556-4.012-1.06-.482-2.146-.908-3.258-1.253-.771-.239-2.459-.509-2.776-.746l.861.861c.097.381.098.762.003,1.143l-.861.861c.378-.281,2.211-.556,3.042-.816,1.198-.376,2.372-.837,3.509-1.369,2.273-1.065,4.372-2.598,5.9-4.602,1.425-1.87,2.351-4.079,3.108-6.292.366-1.071.684-2.158.969-3.252.15-.573.29-1.149.424-1.726.05-.218.1-.436.148-.655.037-.168.252-.667.135-.509l-.861.861c-.511.134-1.006.069-1.484-.195l-.617-1.059c.791,2.033,1.124,4.274,1.868,6.341.783,2.174,1.7,4.377,3.088,6.241,1.464,1.967,3.419,3.527,5.6,4.641,1.174.6,2.411,1.101,3.663,1.514.823.272,2.655.569,3.034.856l-.861-.861c-.097-.379-.1-.76-.009-1.141l.861-.861c.174-.127-.097.045-.243.068-.3.047-.603.129-.899.198-.486.112-.969.234-1.449.368-1.139.318-2.244.716-3.332,1.179-2.163.92-4.212,2.205-5.811,3.948-3.121,3.405-4.423,8.172-5.455,12.561-.707,3.004,3.92,4.287,4.629,1.276.854-3.632,1.786-7.97,4.491-10.729,1.323-1.349,3.003-2.323,4.77-2.972.945-.347,1.913-.631,2.89-.874.961-.239,1.987-.331,2.831-.878,2.25-1.457,1.691-4.951-.763-5.819-1.918-.678-3.901-.971-5.748-1.89-1.649-.821-3.257-1.891-4.344-3.408s-1.829-3.297-2.444-5.057c-.64-1.833-1.044-3.717-1.604-5.57-.681-2.255-3.38-3.51-5.328-1.835-1.475,1.268-1.551,3.818-2.05,5.605-.515,1.843-1.105,3.684-1.998,5.383-1.844,3.511-5.315,5.207-9.016,6.212-.925.251-2.029.334-2.868.825-1.049.614-1.668,1.774-1.631,2.976.084,2.771,2.726,3.066,4.807,3.665,2.064.594,4.119,1.432,5.801,2.798,1.773,1.44,2.922,3.375,3.817,5.45.459,1.065.837,2.168,1.186,3.274s.531,2.356,1.041,3.399c.591,1.208,1.741,1.918,3.09,1.89,1.535-.031,2.555-1.096,3.069-2.445.461-1.212-.511-2.632-1.676-2.952-1.351-.371-2.489.46-2.952,1.676Z"></path><path class="i" d="m274.468,94.386l.085-.075,1.059-.617.595.009,1.059.617c.257.413.297.387.121-.078-.052-.188-.105-.375-.16-.562-.13-.446-.267-.89-.415-1.331-.279-.833-.598-1.65-.945-2.458-.676-1.573-1.515-3.065-2.693-4.323-1.171-1.251-2.65-2.235-4.211-2.926-1.506-.667-3.133-.904-4.635-1.513l1.059.617.328.51v1.276l-.326.511-1.059.617c.76-.305,1.62-.406,2.406-.648.932-.287,1.847-.644,2.731-1.055,1.735-.808,3.338-1.973,4.509-3.495,1.092-1.418,1.8-3.075,2.384-4.758.544-1.569.724-3.325,1.338-4.851l-.617,1.059-.516.323h-1.276c-.822-1.068-1.115-1.251-.879-.549.055.219.111.439.169.657.091.345.186.69.285,1.033.243.841.512,1.677.822,2.496.615,1.626,1.324,3.207,2.391,4.589,1.113,1.44,2.605,2.583,4.233,3.389.879.435,1.805.809,2.738,1.112.794.257,1.661.368,2.427.683l-1.059-.617-.33-.507v-1.276l.321-.513,1.059-.617c-1.54.6-3.206.802-4.75,1.467-1.589.684-3.101,1.622-4.291,2.895-2.399,2.566-3.412,6.145-4.2,9.483-.709,3.004,3.918,4.286,4.629,1.276.665-2.816,1.384-6.294,3.816-8.16.984-.755,2.148-1.253,3.323-1.617,1.591-.494,3.565-.502,4.445-2.156.944-1.775-.084-3.795-1.914-4.38-1.407-.45-2.817-.692-4.14-1.396-2.587-1.377-3.703-3.672-4.568-6.361-.419-1.303-.558-3.004-1.269-4.176-1.04-1.714-3.513-1.934-4.862-.473-.927,1.005-1.003,2.683-1.351,3.948-.398,1.451-.853,2.906-1.595,4.222-1.385,2.456-4.129,3.467-6.74,4.091-1.81.433-3.377,1.664-2.914,3.753.415,1.872,1.973,2.214,3.588,2.654,3.267.891,5.552,2.615,6.89,5.762.337.793.609,1.617.863,2.439.269.869.402,1.9.885,2.681,1.201,1.943,4.338,1.883,5.299-.259.531-1.182.341-2.581-.861-3.284-1.026-.6-2.75-.327-3.284.861Z"></path><path class="i" d="m121.201,196.701c-3.706.572-7.461,1.448-10.745,3.329-2.76,1.58-4.995,3.906-6.581,6.653-2.198,3.806-3.238,8.07-3.368,12.447-.133,4.496.673,8.952.679,13.443.003,2.22-.216,4.391-.882,6.517-.707,2.258-2.19,4.033-3.122,6.17-1.108,2.541-.417,4.874.86,7.205,1.222,2.23,2.567,4.398,3.991,6.505,1.452,2.15,2.955,4.384,4.678,6.327,1.638,1.846,4.332,2.417,6.568,1.367,1.283-.602,2.443-1.561,3.611-2.351,3.835-2.595,7.669-5.189,11.504-7.784,2.544-1.722.145-5.882-2.423-4.145-2.993,2.025-5.985,4.05-8.978,6.075l-4.829,3.267c-.278.188-.694.572-1.026.654-.478.117-.717-.142-1.034-.477-.814-.858-1.494-1.918-2.187-2.872-1.367-1.881-2.661-3.816-3.874-5.8-.602-.984-1.185-1.979-1.745-2.987-.418-.752-1.069-1.688-.909-2.595.151-.86.876-1.69,1.32-2.415.645-1.052,1.182-2.147,1.649-3.289.836-2.045,1.273-4.184,1.492-6.377.809-8.066-2.317-16.484,1.052-24.244.568-1.309,1.479-2.953,2.186-3.866.883-1.14,1.97-2.125,2.982-2.787,3.065-2.005,6.758-2.775,10.406-3.339,1.282-.198,1.991-1.806,1.676-2.952-.376-1.369-1.666-1.875-2.952-1.676h0Z"></path><path class="i" d="m169.518,240.348c-3.484-4.671-5.589-10.103-5.705-15.958-.063-3.183.286-6.356.293-9.538.007-3.113-.299-6.251-.905-9.305-1.016-5.119-3.472-10.124-8.128-12.832-5.378-3.128-11.974-2.761-17.952-2.422-3.474.197-7.228.132-10.524,1.386-2.877,1.095-5.761,3.611-5.452,6.985.118,1.291,1.018,2.4,2.4,2.4,1.207,0,2.519-1.102,2.4-2.4-.184-2.01,2.701-2.697,4.236-2.998,2.736-.537,5.635-.513,8.413-.653,4.925-.247,10.936-.666,15.103,2.527,3.474,2.662,4.659,7.242,5.229,11.372.791,5.727-.247,11.417.161,17.144.431,6.059,2.66,11.851,6.286,16.714.774,1.037,2.076,1.567,3.284.861,1.023-.598,1.64-2.239.861-3.284h0Z"></path><path class="i" d="m146.226,199.091c-3.682-.153-7.367-.152-11.048.025-3.395.162-7.071.204-10.367,1.099-2.502.679-4.779,2.199-5.489,4.811-.779,2.865.844,5.405,3.282,6.803,2.684,1.54,5.105-2.606,2.423-4.145-.265-.152-.755-.456-.847-.565-.112-.133-.171-.302-.267-.444.193.285-.015-.281.007-.012-.008-.103.009-.231.032-.362.074-.417-.08.087.026-.125.063-.125.135-.242.206-.363.132-.227-.263.214.052-.068.038-.034.333-.297.247-.232.196-.148.717-.39,1.061-.509,1.107-.385,2.282-.516,3.441-.632,5.728-.57,11.49-.72,17.242-.481,3.089.128,3.083-4.672,0-4.8h0Z"></path><path class="i" d="m147.499,208.779c-3.755-.209-7.51-.418-11.265-.627-3.474-.193-6.947-.395-10.416-.002-3.148.356-6.277,1.295-7.621,4.462-1.264,2.979.131,5.933,2.359,8.01,2.258,2.104,5.66-1.283,3.394-3.394-.641-.597-1.347-1.454-1.455-2.074-.079-.454.034-.786.443-1.215.632-.664,1.748-.843,2.647-.962,1.394-.184,2.811-.25,4.216-.262,5.889-.051,11.82.538,17.697.865,3.086.172,3.077-4.629,0-4.8h0Z"></path><path class="i" d="m144.88,219.266c-4.048-.485-8.098-.949-12.158-1.332-4.451-.42-9.76-1.519-13.482,1.676-3.637,3.123-1.84,8.315,1.935,10.328,1.785.952,3.894,1.179,5.86,1.526,2.236.395,4.477.761,6.709,1.176,1.273.237,2.588-.352,2.952-1.676.321-1.168-.395-2.714-1.676-2.952-3.433-.639-6.918-1.087-10.323-1.871-1.013-.233-2.545-.842-2.671-2.046-.103-.987,1.265-1.508,2.165-1.721,1.745-.413,3.682-.075,5.443.079,1.826.16,3.652.33,5.476.513,3.261.328,6.516.71,9.77,1.099,1.289.154,2.4-1.214,2.4-2.4,0-1.425-1.107-2.245-2.4-2.4h0Z"></path><path class="i" d="m131.173,231.911c-2.299,2.88-2.047,7.277-1.388,10.712.638,3.329,2.218,6.399,4.382,8.986,4.201,5.022,10.691,7.673,16.961,8.941,1.269.257,2.592-.366,2.952-1.676.325-1.184-.4-2.694-1.676-2.952-5.111-1.034-10.29-2.914-13.982-6.748-1.636-1.7-2.87-3.758-3.559-6.016-.5-1.638-.678-3.256-.662-4.963.007-.767-.088-2.318.367-2.888.808-1.012.989-2.406,0-3.394-.838-.838-2.581-1.018-3.394,0h0Z"></path><path class="i" d="m167.559,240.033c-.453,4.458-1.647,8.775-3.22,12.962-1.552,4.131-3.229,8.09-5.828,11.674-.761,1.05-.18,2.675.861,3.284,1.212.709,2.521.192,3.284-.861,2.831-3.906,4.621-8.322,6.312-12.821,1.734-4.615,2.893-9.33,3.391-14.238.131-1.291-1.197-2.4-2.4-2.4-1.407,0-2.268,1.105-2.4,2.4h0Z"></path><path class="i" d="m143.956,120.126c-.103.1-.57.449-.224.219.356-.237-.281.184-.408.262-.225.139-.458.267-.694.386-.159.08-.321.154-.483.227.308-.14.183-.072-.056.013-1.85.657-3.236.852-5.15.853-1.869.001-3.252-.165-5.052-.818-.079-.029-.694-.293-.152-.048-.136-.061-.272-.123-.406-.189-.264-.129-.523-.27-.773-.424-.057-.035-.569-.32-.559-.378.006-.033.482.421.134.092-.069-.066-.141-.129-.209-.195-.926-.907-2.471-.923-3.394,0-.912.912-.929,2.485,0,3.394,2.655,2.598,6.846,3.368,10.411,3.366s7.752-.765,10.409-3.366c.926-.907.91-2.484,0-3.394-.927-.927-2.465-.91-3.394,0h0Z"></path></g></g></svg>