<?xml version="1.0" encoding="UTF-8"?><svg id="b" xmlns="http://www.w3.org/2000/svg" width="333.055" height="248.041" viewBox="0 0 333.055 248.041"><defs><style>.r{fill:#ffda71;}.r,.s,.t,.u,.v{stroke-width:0px;}.s{fill:#fff;}.t{fill:#95cbeb;}.u{fill:#c6c6c6;}.v{fill:#211715;}</style></defs><g id="c"><path class="r" d="M81.902,161.942L2.382,116.032h-.33v25.747l79.85,46.101v-25.938Z"/><path class="s" d="M151.202,111.452v10.48l-80.15-46.27v-10.49l79.27,45.77.88.51Z"/><path class="s" d="M151.202,111.452l1.647.951c1.913,1.104,4.36.448,5.464-1.464,1.739-3.012,3.477-6.021,5.219-9.036,6.873-11.905,13.747-23.811,20.62-35.708,1.105-1.912,3.549-2.566,5.461-1.461,7.031,4.063,14.072,8.125,21.099,12.179l-.11.18v36.49c.54-.31,1.1-.63,1.67-.96.52-.31,1.06-.62,1.61-.94,1.47-.84,3.02-1.74,4.65-2.68.33-.19.66-.38,1-.58,2.69-1.55,5.58-3.22,8.58-4.95l1.14-.66c.14-.08.27-.16.41-.24.76-.43,1.54-.88,2.32-1.34.25-.14.5-.29.75-.43.92-.54,1.85-1.07,2.79-1.61.4-.23.79-.46,1.19-.69.67-.39,1.33-.77,2-1.15.54-.31,1.08-.63,1.62-.94.4-.24.81-.47,1.21-.7s.81-.47,1.22-.7c1.09-.63,2.18-1.26,3.28-1.89.12-.08.24-.15.37-.22,1.92-1.11,3.84-2.22,5.74-3.31.11-.07.21-.13.32-.19,1.11-.64,2.21-1.28,3.31-1.91.12-.07.25-.14.38-.22.67-.39,1.34-.78,2-1.15.4-.24.8-.47,1.19-.69.85-.5,1.7-.98,2.54-1.47.38-.22.75-.43,1.13-.65.7-.4,1.39-.8,2.07-1.19.79-.46,1.58-.92,2.35-1.36.68-.39,1.35-.78,2.01-1.16,3.88-2.24,7.42-4.29,10.44-6.03v58.79c-23.1,13.34-46.19,26.67-69.29,40v.01c-3.37,1.94-6.73,3.89-10.1,5.83-13.07,7.55-26.14,15.09-39.21,22.63-3.36,1.95-6.73,3.89-10.09,5.83-23.08,13.33-46.16,26.65-69.24,39.98l-.06.03-.21-.12.21-.01v-58.66c6.8-3.93,16.23-9.37,26.22-15.14.8-.46,1.6-.93,2.41-1.39,1.24-.72,2.49-1.44,3.74-2.16.77-.45,1.55-.9,2.33-1.35.41-.23.81-.47,1.22-.7,1.62-.94,3.24-1.88,4.85-2.8,2.02-1.16,4.01-2.31,5.97-3.45.79-.45,1.56-.9,2.34-1.35.77-.44,1.54-.89,2.3-1.33,6.83-3.94,13.06-7.54,17.92-10.34v-36.42Z"/><path class="r" d="M2.382,116.032h-.33v-.54c17.06-9.85,42.13-24.33,69-39.84v.01l80.15,46.27c-7.96,4.59-20.16,11.64-32.54,18.78l-2.39,1.39c-7.05,4.06-14.07,8.12-20.31,11.73-.69.39-1.38.79-2.05,1.17-4.61,2.67-8.72,5.04-12.01,6.94L2.382,116.032Z"/><path class="r" d="M199.742,1.362c40.08,23.13,80.15,46.27,80.15,46.27-.47.27-.97.56-1.49.86-.76.44-1.58.91-2.43,1.4-1.16.67-2.4,1.39-3.71,2.15-.61.34-1.24.71-1.88,1.08-1.08.62-2.2,1.27-3.35,1.93-1.3.75-2.65,1.53-4.02,2.33-9.82,5.66-21.33,12.31-31.73,18.32-.4.23-.8.46-1.19.69-.4.22-.79.45-1.18.68-.39.22-.78.45-1.17.67-.78.45-1.55.89-2.3,1.33-3.4,1.96-6.61,3.81-9.5,5.49-.32.18-.64.37-.95.55l-4.39,2.517v-10.537l.11-.18c.603.349,1.205.698,1.806,1.045,1.912,1.105,4.358.451,5.464-1.46.272-.471.545-.941.817-1.411,1.107-1.913.451-4.36-1.463-5.466l-32.364-18.689-35.55-20.52c18.65-10.76,36-20.78,50.32-29.05Z"/><path class="r" d="M279.895,47.632v25.94c-17.539,10.126-52.915,30.55-69.296,40.008v-25.94c16.236-9.374,54.093-31.231,69.296-40.008Z"/><polygon class="r" points="151.201 121.933 151.201 147.873 81.905 187.882 81.905 161.942 151.201 121.933"/><path class="t" d="M224.034,144.088v-21.535c0-.357.191-.687.5-.866l39.016-22.526c.667-.385,1.5.096,1.5.866v21.535c0,.357-.191.687-.5.866l-39.016,22.526c-.667.385-1.5-.096-1.5-.866Z"/><path class="t" d="M96.754,217.573v-21.535c0-.357.191-.687.5-.866l39.016-22.526c.667-.385,1.5.096,1.5.866v21.535c0,.357-.191.687-.5.866l-39.016,22.526c-.667.385-1.5-.096-1.5-.866Z"/><path class="v" d="M226.034,144.088v-20.932c0-.131.06-.438,0-.556-.023-.045-.864.867-.391.756.319-.074.704-.407.985-.569,9.42-5.439,18.841-10.878,28.261-16.316l6.305-3.64,2.079-1.2c.303-.175.905-.38,1.131-.653.247-.298.999.392-.6-.518-1.18-.672-.642-.575-.754-.033-.158.764,0,1.734,0,2.512v16.982c0,.325-.182,1.33,0,1.617-.399-.629.882-.893.391-.779-.127.029-.281.162-.394.227l-10.726,6.193-27.248,15.732c-.121.07-.287.134-.393.227-.649.573.848-2.384,1.283.419-.165-1.068-1.505-1.659-2.46-1.397-1.14.313-1.563,1.389-1.397,2.46.337,2.177,2.718,2.941,4.515,2.017.357-.184.7-.404,1.047-.605l5.176-2.988,16.541-9.55,14.192-8.194c1.084-.626,2.541-1.223,3.14-2.385.391-.76.334-1.597.334-2.419v-3.378c0-5.58.161-11.184,0-16.762-.081-2.809-2.619-4.014-4.951-2.667l-4.155,2.399c-10.394,6.001-20.787,12.002-31.181,18.002-1.049.605-2.146,1.165-3.162,1.825-1.857,1.208-1.567,3.142-1.567,5.038v19.134c0,2.574,4,2.578,4,0Z"/><path class="v" d="M98.754,217.573v-20.932c0-.131.06-.438,0-.556-.023-.045-.864.867-.391.756.319-.074.704-.407.985-.569,9.42-5.439,18.841-10.878,28.261-16.316l6.305-3.64,2.079-1.2c.303-.175.905-.38,1.131-.653.247-.298.999.392-.6-.518-1.18-.672-.642-.575-.754-.033-.158.764,0,1.734,0,2.512v16.982c0,.325-.182,1.33,0,1.617-.399-.629.882-.893.391-.779-.127.029-.281.162-.394.227l-10.726,6.193-27.248,15.732c-.121.07-.287.134-.393.227-.649.573.848-2.384,1.283.419-.165-1.068-1.505-1.659-2.46-1.397-1.14.313-1.563,1.389-1.397,2.46.337,2.177,2.718,2.941,4.515,2.017.357-.184.7-.404,1.047-.605l5.176-2.988,16.541-9.55,14.192-8.194c1.084-.626,2.541-1.223,3.14-2.385.391-.76.334-1.597.334-2.419v-3.378c0-5.58.161-11.184,0-16.762-.081-2.809-2.619-4.014-4.951-2.667l-4.155,2.399c-10.394,6.001-20.787,12.002-31.181,18.002-1.049.605-2.146,1.165-3.162,1.825-1.857,1.208-1.567,3.142-1.567,5.038v19.134c0,2.574,4,2.578,4,0Z"/><path class="v" d="M211.608,115.307c18.539-10.704,37.078-21.407,55.617-32.111,4.56-2.633,9.119-5.265,13.679-7.898,2.229-1.287.217-4.745-2.019-3.454-18.563,10.718-37.127,21.435-55.69,32.153l-13.606,7.856c-2.229,1.287-.217,4.745,2.019,3.454h0Z"/><path class="v" d="M208.598,77.09v95.281c0,2.574,4,2.578,4,0v-95.281c0-2.574-4-2.578-4,0h0Z"/><path class="v" d="M149.201,111.384v95.277c0,2.574,4,2.578,4,0v-95.277c0-2.574-4-2.578-4,0h0Z"/><g id="d"><path class="v" d="M11.599,123.66c6.988,4.035,13.976,8.069,20.964,12.104,11.734,6.775,23.468,13.549,35.203,20.324l10.111,5.838c1.435.828,2.832,1.532,4.591,1.357,1.495-.149,2.642-.882,3.891-1.603,9.857-5.691,19.713-11.381,29.57-17.072l26.888-15.524.454-.262c2.229-1.287.217-4.745-2.019-3.454-7.545,4.356-15.091,8.713-22.636,13.069l-32.037,18.497c-1.104.637-2.204,1.281-3.311,1.912-.869.495-1.718.574-2.615.065-2.717-1.54-5.411-3.124-8.116-4.686-11.313-6.531-22.625-13.063-33.938-19.594-8.192-4.73-16.322-9.591-24.586-14.195-.133-.074-.264-.152-.396-.229-2.233-1.289-4.25,2.166-2.019,3.454h0Z"/></g><path class="s" d="M2.052,141.779v58.793c5.16,2.98,75.26,43.45,79.64,45.98l.21-.01v-58.662L2.052,141.779Z"/><g id="e"><path class="v" d="M70.041,77.385c2.655,1.533,5.31,3.066,7.966,4.599,6.377,3.682,12.754,7.364,19.131,11.045l23.15,13.365,20.021,11.559c3.238,1.87,6.432,3.887,9.744,5.626.047.025.093.054.14.081,2.233,1.289,4.25-2.166,2.019-3.454-2.655-1.533-5.31-3.066-7.966-4.599l-19.131-11.045-23.15-13.365-20.021-11.559c-3.238-1.87-6.432-3.887-9.744-5.626-.047-.025-.093-.054-.14-.081-2.233-1.289-4.25,2.166-2.019,3.454h0Z"/></g><g id="f"><path class="v" d="M69.051,65.177v4.762c0,1.237.401,3.457-.363,4.559-.47.678-1.398,1.018-2.087,1.416-.953.55-1.907,1.1-2.86,1.651-2.045,1.18-4.089,2.36-6.134,3.541-3.683,2.126-7.366,4.252-11.048,6.378-12.979,7.493-25.956,14.987-38.934,22.481-2.675,1.545-6.418,2.906-7.34,6.166-.446,1.577-.235,3.397-.235,5.018,0,2.099,0,4.199,0,6.298,0,7.922.001,15.844.001,23.767,0,12.821,0,25.643.001,38.464,0,1.949,0,3.897,0,5.846,0,2.152-.205,4.365,1.121,6.219,1.011,1.414,2.652,2.166,4.123,3.015,1.4.808,2.8,1.617,4.2,2.425,8.067,4.658,16.135,9.315,24.202,13.973,9.122,5.267,18.244,10.533,27.366,15.8,3.686,2.128,7.372,4.256,11.058,6.384,1.353.781,2.706,1.562,4.059,2.343,1.251.722,2.577,1.697,3.967,2.113,1.638.49,3.268.221,4.765-.547,2.128-1.092,4.17-2.408,6.242-3.604,3.921-2.264,7.843-4.528,11.764-6.792,7.763-4.482,15.526-8.964,23.288-13.446,15.686-9.056,31.371-18.112,47.057-27.168,31.051-17.927,62.102-35.855,93.153-53.782,4.001-2.31,8.029-4.577,12.004-6.931,2.124-1.258,3.389-3.042,3.471-5.549.041-1.237,0-2.481,0-3.718,0-6.465,0-12.929,0-19.394v-55.436c0-2.418-.298-4.716-2.455-6.306-1.264-.932-2.739-1.643-4.099-2.428-1.802-1.041-3.605-2.081-5.407-3.122-5.163-2.981-10.326-5.962-15.489-8.943-14.037-8.104-28.074-16.207-42.111-24.309-1.913-1.104-3.825-2.208-5.738-3.312-1.83-1.056-3.78-2.596-5.905-2.934-1.767-.281-3.208.285-4.708,1.151-1.678.969-3.355,1.938-5.033,2.907-6.895,3.982-13.79,7.963-20.686,11.944-7.283,4.204-14.566,8.408-21.85,12.61-2.229,1.286-.217,4.744,2.019,3.454,14.181-8.182,28.359-16.367,42.536-24.555,1.424-.822,2.848-1.645,4.272-2.467.674-.389,1.427-1.005,2.213-1.123,1.004-.152,1.909.613,2.722,1.082,3.821,2.205,7.641,4.41,11.462,6.615,7.15,4.127,14.3,8.254,21.45,12.381,11.28,6.512,22.559,13.024,33.838,19.536,1.712.988,3.423,1.977,5.135,2.965,1.134.655,3.329,1.439,3.741,2.765.281.901.091,2.095.091,3.018v66.656c0,3.635.248,7.369,0,10.998-.046.667-.254,1.213-.788,1.649-.617.504-1.456.847-2.142,1.243-1.12.647-2.241,1.294-3.361,1.941-3.841,2.218-7.683,4.436-11.524,6.653-7.683,4.436-15.365,8.871-23.048,13.307-15.205,8.779-30.411,17.558-45.616,26.337-30.571,17.65-61.142,35.3-91.713,52.951-3.841,2.218-7.683,4.436-11.524,6.653-1.724.996-3.461,2.241-5.282,3.05-1.068.474-1.807.101-2.728-.431-2.533-1.463-5.067-2.925-7.6-4.388-8.218-4.745-16.437-9.49-24.655-14.235-8.869-5.121-17.739-10.242-26.608-15.362-3.512-2.027-7.023-4.055-10.535-6.082-1.292-.746-2.584-1.492-3.876-2.238-1.353-.781-2.771-1.294-2.838-3.075-.141-3.75,0-7.533,0-11.285,0-5.818,0-11.637,0-17.455,0-15.065-.001-30.131-.002-45.196,0-1.765,0-3.53,0-5.295,0-.74-.084-1.462.359-2.101.436-.628,1.284-.95,1.926-1.32,2.673-1.543,5.346-3.087,8.019-4.63,6.177-3.567,12.354-7.134,18.531-10.701,7.056-4.074,14.111-8.148,21.168-12.221,3.744-2.161,7.488-4.323,11.233-6.484,3.159-1.823,7.429-3.368,7.747-7.56.215-2.823.019-5.724.019-8.556,0-2.574-4-2.578-4,0h0Z"/></g><path class="v" d="M211.608,89.367l56.089-32.383c4.204-2.427,8.409-4.855,12.613-7.282,2.229-1.287.217-4.745-2.019-3.454-18.326,10.581-36.653,21.161-54.979,31.742-4.574,2.641-9.149,5.282-13.723,7.923-2.229,1.287-.217,4.745,2.019,3.454h0Z"/><path class="v" d="M202.504,178.198v-32.378c0-2.574-4-2.578-4,0v32.378c0,2.574,4,2.578,4,0h0Z"/><path class="v" d="M159.296,163.097v37.738c0,2.574,4,2.578,4,0v-37.738c0-2.574-4-2.578-4,0h0Z"/><path class="v" d="M177.664,116.279c.873-.504,1.745-1.008,2.618-1.511.437-.252.875-.505,1.312-.757.816-.471,1.393-1.043,1.44-2.062.09-1.923,0-3.871,0-5.795v-2.621c0-1.046-.92-2.048-2-2s-2,.879-2,2v8.492l.991-1.727c-1.46.843-2.92,1.686-4.379,2.528-.906.523-1.301,1.832-.718,2.736.59.914,1.767,1.277,2.736.718h0Z"/><path class="v" d="M179.261,94.467c-6.519,3.84-11.237,10.705-13.185,17.955-1.463,5.444-1.812,14.345,4.284,17.236,6.366,3.019,13.905-2.604,17.835-7.22,4.883-5.734,8.032-13.767,6.962-21.369-.453-3.219-2.016-6.472-5.079-7.932-3.567-1.699-7.561-.508-10.817,1.329-2.242,1.265-.228,4.722,2.019,3.454,2.011-1.135,4.593-2.182,6.811-1.309,1.74.685,2.674,2.647,3.058,4.576,1.167,5.88-1.405,12.527-4.822,17.211-1.839,2.521-4.217,4.698-6.906,6.279-1.873,1.101-4.432,2.189-6.447,1.692-.88-.217-1.388-.503-2.007-1.174-.59-.639-1.029-1.593-1.294-2.516-.755-2.635-.589-5.531.009-8.18,1.503-6.656,5.661-13.081,11.598-16.579,2.216-1.306.206-4.765-2.019-3.454Z"/><g id="g"><path class="r" d="M97.949,5.309c-10.214,17.698-20.427,35.389-30.648,53.084-1.105,1.913-.45,4.359,1.463,5.464l84.087,48.548c1.913,1.105,4.36.45,5.465-1.463,8.614-14.913,17.228-29.832,25.836-44.749,1.104-1.913,3.549-2.568,5.462-1.462,7.633,4.412,15.27,8.821,22.908,13.226,1.914,1.104,4.36.443,5.465-1.47.271-.469.542-.939.813-1.408,1.105-1.913.449-4.356-1.464-5.461L103.413,3.844c-1.913-1.105-4.359-.449-5.464,1.465Z"/></g><g id="h"><path class="v" d="M96.222,4.3c-7.306,12.661-14.615,25.32-21.925,37.979-1.828,3.165-3.655,6.329-5.483,9.494-.831,1.439-1.662,2.877-2.493,4.316s-1.638,2.814-1.551,4.542c.121,2.395,1.566,4.135,3.547,5.278l22.922,13.234c12.241,7.067,24.482,14.135,36.723,21.202,7.745,4.471,15.489,8.943,23.234,13.414,1.746,1.008,3.688,1.564,5.682.821,3.088-1.151,4.366-4.709,5.898-7.361,1.822-3.155,3.644-6.31,5.466-9.465,3.644-6.311,7.288-12.622,10.931-18.933,1.78-3.084,3.56-6.168,5.34-9.251.596-1.032,1.132-2.72,2.321-3.226,1.135-.483,2.123.319,3.066.864,6.338,3.663,12.677,7.323,19.018,10.981,2.674,1.543,5.32,3.229,8.404,1.605,2.277-1.199,4.114-4.378,4.007-6.95-.149-3.599-3.009-4.965-5.651-6.491-7.926-4.576-15.853-9.153-23.779-13.729-12.116-6.995-24.231-13.99-36.347-20.985l-34.054-19.661c-5.635-3.253-11.232-6.586-16.911-9.763-2.991-1.674-6.518-.822-8.365,2.087-1.384,2.179,2.076,4.188,3.454,2.019,1.388-2.185,3.939-.048,5.466.834l9.109,5.259c10.253,5.92,20.506,11.839,30.76,17.759,12.11,6.992,24.22,13.983,36.33,20.975l27.842,16.075,6.492,3.748c.742.428,1.454.805,1.635,1.765.187.992-.589,2.136-1.143,2.889-.583.792-1.574,1.084-2.494.695-1.386-.587-2.725-1.578-4.033-2.333-1.585-.914-3.17-1.829-4.755-2.744-3.026-1.746-6.051-3.494-9.077-5.241-1.512-.874-3.025-1.748-4.537-2.622-1.336-.772-2.645-1.304-4.217-1.145-3.301.333-4.625,2.943-6.119,5.532-1.738,3.012-3.477,6.024-5.216,9.036-3.56,6.168-7.121,12.335-10.682,18.503-1.739,3.012-3.478,6.024-5.218,9.035-.828,1.434-1.656,2.868-2.485,4.302-.59,1.022-1.057,2.246-2.408,2.296-.77.029-1.447-.479-2.091-.851l-3.393-1.959-12.151-7.015c-11.711-6.761-23.421-13.522-35.132-20.284l-28.471-16.438-3.137-1.811c-.907-.523-1.831-1.022-1.786-2.273.044-1.232,1.291-2.683,1.883-3.709.955-1.654,1.911-3.309,2.866-4.963,1.745-3.021,3.489-6.042,5.233-9.062,3.572-6.185,7.143-12.371,10.714-18.557,3.405-5.899,6.81-11.797,10.214-17.696,1.289-2.234-2.166-4.25-3.454-2.019Z"/></g><g id="i"><path class="v" d="M151.503,113.625c2.574,0,2.578-4,0-4s-2.578,4,0,4h0Z"/></g><path class="v" d="M242.541,111.429v20.685c0,2.574,4,2.578,4,0v-20.685c0-2.574-4-2.578-4,0h0Z"/><path class="v" d="M115.262,184.914c0,6.895,0,13.79,0,20.685,0,2.574,4,2.578,4,0,0-6.895,0-13.79,0-20.685,0-2.574-4-2.578-4,0h0Z"/><path class="v" d="M79.905,170.031v67c0,2.574,4,2.578,4,0v-67c0-2.574-4-2.578-4,0h0Z"/><g id="j"><path class="v" d="M156.78,101.567c8.409-14.558,16.815-29.117,25.218-43.678,1.289-2.234-2.166-4.25-3.454-2.019-8.403,14.561-16.809,29.121-25.218,43.678-1.29,2.233,2.165,4.25,3.454,2.019h0Z"/></g><g id="k"><path class="v" d="M1.375,143.696c5.052,2.917,10.103,5.833,15.155,8.75,10.447,6.031,20.893,12.063,31.34,18.094l26.284,15.175c1.571.907,3.121,1.873,4.723,2.727,1.801.96,3.829,1.076,5.687.193,1.678-.797,3.268-1.865,4.876-2.794,3.661-2.114,7.323-4.227,10.984-6.341,15.764-9.101,31.527-18.202,47.291-27.303,1.499-.865,2.998-1.731,4.496-2.596,2.229-1.287.217-4.745-2.019-3.454-15.156,8.75-30.311,17.5-45.467,26.25-7.198,4.156-14.361,8.382-21.598,12.469-1.138.643-1.941.289-2.908-.269l-2.659-1.535c-8.172-4.718-16.343-9.436-24.515-14.154-10.503-6.064-21.006-12.128-31.509-18.192-5.95-3.435-11.832-7.047-17.874-10.319-.091-.049-.179-.104-.269-.155-2.233-1.289-4.25,2.166-2.019,3.454h0Z"/></g><g id="l"><path class="s" d="M160.296,161.868v-9.446c0-1.429.762-2.75,2-3.464l35.381-20.427c1.238-.715,2.762-.715,4,0l.06.035c1.238.715,2,2.035,2,3.464v9.446c0,1.429-.762,2.75-2,3.464l-35.381,20.427c-1.238.715-2.762.715-4,0l-.06-.035c-1.238-.715-2-2.035-2-3.464Z"/></g><g id="m"><path class="v" d="M196.153,134.193c-9.765,5.638-19.529,11.275-29.294,16.913-2.229,1.287-.217,4.745,2.019,3.454,9.765-5.638,19.529-11.275,29.294-16.913,2.229-1.287.217-4.745-2.019-3.454h0Z"/></g><g id="n"><path class="v" d="M162.296,161.868v-5.589c0-1.42-.541-4.344.71-5.404.523-.443,1.256-.744,1.843-1.082l4.229-2.442c8.339-4.815,16.679-9.629,25.018-14.444l3.646-2.105c.947-.547,1.865-1.167,2.986-.511,1.575.923,1.009,3.833,1.009,5.351,0,1.926.131,3.902,0,5.824-.086,1.265-.931,1.7-1.879,2.248l-3.645,2.104-12.205,7.047-12.805,7.393c-1.933,1.116-3.844,2.41-5.856,3.381-1.402.677-2.981-.195-3.051-1.772-.114-2.564-4.114-2.578-4,0,.205,4.62,4.968,7.406,9.081,5.219.729-.387,1.434-.828,2.149-1.241l11.675-6.74,14.138-8.163c2.455-1.417,4.974-2.762,7.38-4.261,1.435-.894,2.559-2.282,2.885-3.972.175-.911.134-1.837.134-2.759v-7.353c0-3.678-2.694-6.955-6.624-6.564-1.422.141-2.528.816-3.717,1.503l-25.129,14.508c-2.905,1.677-5.828,3.326-8.717,5.033-2.097,1.239-3.23,3.201-3.256,5.636-.026,2.378,0,4.757,0,7.135v2.02c0,2.574,4,2.578,4,0Z"/></g><g id="o"><path class="u" d="M295.72,187.819l-16.807-9.704c-.51-.294-.821-.93-.821-1.829v-10.342c0-1.339.139-2.72.402-4.117,1.586-8.426,7.665-17.414,14.763-20.944,2.459-1.223,5.041-1.791,7.601-1.453.382.05.747.134,1.094.251.358.121.796.071,1.251-.145.238-.113.478-.219.718-.317,2.585-1.055,4.857-.962,6.603.046l16.807,9.704"/></g><path class="v" d="M293.875,178.471c-1.198,1.49-3.059,3.804-4.549,5.657,2.456,1.418,6.394,3.692,6.394,3.692-.51-.294-.821-.93-.821-1.829,0,0,0-5.914.002-8.798l-1.027,1.277Z"/><g id="p"><path class="v" d="M296.73,186.093c-4.338-2.504-8.675-5.009-13.013-7.513l-2.937-1.696c-.227-.131-.53-.249-.729-.421-.03-.026-.102-.039-.124-.072.284.406.129.011.166-.112.232-.775,0-1.984,0-2.784v-4.869c0-3.554.238-6.905,1.418-10.315,1.69-4.887,4.683-9.46,8.572-12.875,1.854-1.628,4.025-3.002,6.413-3.678,1.265-.358,2.622-.546,3.937-.374.612.08,1.182.329,1.803.357.882.04,1.543-.329,2.336-.641,1.679-.661,3.445-.949,5.072-.033.668.376,1.329.767,1.993,1.151,4.895,2.826,9.791,5.653,14.686,8.479,2.233,1.289,4.25-2.166,2.019-3.454-4.631-2.674-9.262-5.347-13.893-8.021-2.252-1.3-4.379-2.779-7.108-2.753-.8.008-1.62.13-2.397.318-.826.199-1.581.667-2.392.859-.071.017-.414.124-.068.108-.3.014-.784-.202-1.094-.251-.881-.139-1.776-.201-2.667-.149-2.967.173-5.813,1.244-8.301,2.844-8.573,5.509-14.329,16.236-14.329,26.383v8.87c0,1.662.199,3.301,1.709,4.318.49.33,1.022.604,1.533.899,5.126,2.959,10.252,5.919,15.377,8.878,2.233,1.289,4.25-2.166,2.019-3.454h0Z"/></g><path class="u" d="M295.255,174.19c-.168.303-13.987,17.589-15.918,20.004-.188.235-.402.431-.651.599-.605.407-1.725,1.098-2.648,1.66-.918.558-2.066.57-2.996.033l-7.249-4.185c-1.886-1.089-1.972-3.782-.162-4.992.014-.01.028-.019.042-.028.249-.168.463-.364.651-.599,1.763-2.205,13.432-16.802,15.58-19.559.234-.3.518-.549.847-.739,2.618-1.511,14.717-8.497,22.461-12.968"/><path class="v" d="M293.528,173.181c-.249.395-.019.031.005,0-.247.312-.491.626-.737.939-.773.979-1.549,1.956-2.325,2.932-2.171,2.731-4.347,5.458-6.524,8.185-1.771,2.219-3.544,4.438-5.317,6.656-.22.275-.427.568-.663.829-.689.764-1.699,1.269-2.586,1.787-1.142.666-1.826-.037-2.844-.624l-4.134-2.387c-.56-.324-1.831-.775-2.037-1.47-.168-.566.152-.873.552-1.2.527-.429.918-.859,1.334-1.38.775-.969,1.549-1.938,2.323-2.907,4.142-5.184,8.303-10.354,12.401-15.573.835-1.063,2.056-1.595,3.214-2.264,1.937-1.118,3.874-2.237,5.811-3.355,4.739-2.736,9.479-5.473,14.218-8.209,2.229-1.287.217-4.745-2.019-3.454-4.487,2.59-8.974,5.181-13.46,7.771-1.976,1.141-3.953,2.282-5.929,3.423-1.242.717-2.694,1.36-3.79,2.295-.951.812-1.686,1.995-2.461,2.972-1.079,1.361-2.161,2.719-3.243,4.077-2.472,3.103-4.947,6.203-7.423,9.303-.85,1.063-1.699,2.127-2.549,3.19-1.081,1.353-2.55,2.173-2.912,4.023-.813,4.15,3.177,5.762,6.08,7.438,1.146.662,2.277,1.368,3.446,1.989,2.704,1.439,4.871.195,7.197-1.299,2.23-1.432,3.784-4.002,5.417-6.046,2.596-3.25,5.191-6.5,7.781-9.755,1.523-1.913,3.323-3.797,4.628-5.871,1.375-2.185-2.085-4.195-3.454-2.019h0Z"/><path class="u" d="M310.064,150.589c-7.098,3.53-13.177,12.518-14.763,20.944-.263,1.397-.402,2.778-.402,4.117v10.342c0,1.803,1.262,2.536,2.823,1.636,6.767-3.9,23.489-13.537,30.441-17.545,1.563-.901,2.825-3.092,2.825-4.897v-8.076c0-6.955-4.3-10.617-10.26-8.185-.241.098-.48.204-.718.317-.455.216-.893.266-1.251.145-.347-.117-.712-.2-1.094-.251-2.559-.338-5.141.23-7.601,1.453Z"/><path class="v" d="M306.212,159.748c-1.478.853-2.5,2.765-2.5,4.312,0,1.731,1.044,2.32,2.5,1.479,1.512-.873,2.5-2.646,2.5-4.366,0-1.557-1.027-2.276-2.5-1.425Z"/><g id="q"><path class="v" d="M326.322,150.697c2.715,1.658,2.666,5.197,2.666,8.014v4.348c0,.833.104,1.754-.041,2.579-.337,1.913-1.835,2.74-3.357,3.618-1.496.862-2.992,1.725-4.488,2.587-3.686,2.125-7.373,4.249-11.06,6.374-3.454,1.991-6.908,3.981-10.363,5.972-.613.353-1.226.707-1.84,1.06-.316.182-.628.378-.95.548-.067.035-.455.255-.453.217.157-.004.285.048.383.156.086.111.113.108.082-.008.253-.309-.002-1.856-.002-2.223,0-2.611-.004-5.222,0-7.833.006-4.189,1.169-8.244,3.084-11.956,2.354-4.563,5.781-8.896,10.323-11.43,2.532-1.412,5.222-2.001,8.062-1.377,1.563.344,2.778-.56,4.23-.944,1.264-.335,2.555-.331,3.724.297,2.268,1.218,4.29-2.234,2.019-3.454-2.763-1.484-5.799-1.242-8.622-.046.072-.031-.919.283-.428.261-.256.012-.639-.172-.906-.22-.729-.13-1.474-.198-2.214-.197-1.61.003-3.255.299-4.772.83-5.232,1.83-9.394,5.871-12.509,10.344-3.273,4.7-5.563,10.335-5.944,16.082-.183,2.762-.046,5.568-.046,8.334,0,1.095-.034,2.196,0,3.291.078,2.497,1.902,4.681,4.601,3.949,1.75-.475,3.465-1.806,5.028-2.706,1.886-1.087,3.772-2.174,5.658-3.261,4.191-2.416,8.383-4.831,12.574-7.247,1.837-1.059,3.674-2.117,5.51-3.176,1.68-.968,3.568-1.812,4.808-3.349,2.53-3.138,1.91-7.239,1.91-11.001,0-4.467-.438-9.318-4.648-11.888-2.203-1.345-4.215,2.113-2.019,3.454Z"/></g><path class="v" d="M300.3,174.603c0,2.558,0,5.116,0,7.674v1.105c0,1.046.92,2.048,2,2s2-.879,2-2c0-2.558,0-5.116,0-7.674v-1.105c0-1.046-.92-2.048-2-2s-2,.879-2,2h0Z"/></g></svg>